M48
;Layer_Color=9474304
;FILE_FORMAT=4:4
METRIC,LZ
;TYPE=PLATED
T01F00S00C0.7000
T02F00S00C0.7620
T03F00S00C0.8000
T04F00S00C0.8500
T05F00S00C0.8890
T06F00S00C0.9906
T07F00S00C1.0000
T08F00S00C1.0160
T09F00S00C1.0200
T10F00S00C1.0500
T11F00S00C1.0700
T12F00S00C1.5000
;TYPE=NON_PLATED
T13F00S00C3.4000
%
T01
X00318Y0095225
Y0103375
T02
X008028Y001746
X008282
X008536
X00879
X009044
X009298
X009888Y001756
X010142
X010396
X01065
X010904
X011158
X011752
Y00328
X011158
X010904
X01065
X010396
X010142
X009888
X009298Y00327
X009044
X00879
X008536
X008282
X008028
X012006Y00328
X01226
X012514
X012768
X013022
X013614
X013868
X014122
X014376
X01463
X014884
Y001756
X01463
X014376
X014122
X013868
X013614
X013022
X012768
X012514
X01226
X012006
T03
X00232Y00979
Y01029
X00419Y00999
Y00924
T04
X00334Y00099
X003556Y00209
Y00299
X002286
Y00209
X004826
Y00299
X00424Y00099
X012048Y007648
X01233343
X01368457Y007678
X01397
X01084943Y007628
X010564
X00950456Y00761791
X00921914Y007618
X00777762Y00991345
X00727Y009912
X006762
X006254
Y010812
X006762
X00727
X00777762Y01081345
X00921914Y008518
X00950456Y00851792
X010564Y008528
X01084943
X012048Y008548
X01233343
X01368457Y008578
X01397
T05
X001778Y000508
X002032
X002286
X00254
X002794
X003048
X003302
T06
X00280175Y00204
Y00229
Y00254
X00281Y00383226
X00306
X00331
X00356
X00256
X00231
X00407175Y00254
Y00229
Y00204
X00534175Y002036
Y002286
Y002536
X00536168Y00050492
X00511168
X00486168
X008034Y001088
X008284
X008534
X008784
X009034
X009914
X010164
X010414
X010664
X010914
X011764Y001098
X012014
X012264
X012514
X012764
X013624
X013874
X014124
X014374
X014624
X0109Y00992
X01065
X0104
X00951Y0099
X00926
X00901
X00914Y0107
X00939
X01052Y01071
X01077
X01205Y0107
X0123
X012192Y009906
X012442
X011942
X01347
X01372
X01397
X01384Y01069
X01359
T07
X00371Y00972
Y009974
Y010228
T08
X006604Y000508
Y000762
Y001016
Y00127
Y001524
Y001778
Y002032
Y002286
Y00254
Y002794
Y003048
Y003302
Y003556
Y00381
T09
X011938Y004826
X012192
X012446
X0127
X012954
Y00508
X013208
X013462
X013716
X01397
X014224
Y004826
X014478
X014732
Y00508
X014478
X01397Y004826
X013716
X013462
X013208
X0127Y00508
X012446
X012192
X011938
Y006858
X012192
X012446
X0127
X012954
Y007112
X013208
X013462
X013716
X01397
X014224
Y006858
X014478
Y007112
X014732
Y006858
X01397
X013716
X013462
X013208
X0127Y007112
X012446
X012192
X011938
X011684
Y006858
X01143
Y007112
X011176
Y006858
X010922
Y007112
X010668
X010414
Y006858
X010668
X01016
Y007112
X009906
Y006858
Y00508
Y004826
X01016
X010414
Y00508
X010668
Y004826
X010922
Y00508
X011176
X01143
X011684
Y004826
X01143
X011176
X01016Y00508
X007112
Y004826
X006858
X006604
Y00508
X006858
X00635
Y004826
X006096
Y00508
X005842
Y004826
X005588
X005334
Y00508
X00508
X004826
X004572
Y004826
X004318
X004064
Y00508
X004318
X004826Y004826
X00508
X005588Y00508
Y006858
X005334
Y007112
X00508
X004826
X004572
X004318
X004064
Y006858
X004318
X004572
X004826
X00508
X005588Y007112
X005842
Y006858
X006096
Y007112
X00635
X006604
Y006858
X006858
Y007112
X007112
Y006858
X00635
X00381
X003556
X003302
X003048
X002794
Y007112
X00254
X002286
Y006858
X00254
X003048Y007112
X003302
X003556
X00381
Y00508
Y004826
X003556
Y00508
X003302
X003048
Y004826
X003302
X002794
Y00508
X00254
Y004826
X002286
Y00508
T10
X002083Y0086
Y00903
X003677
Y0086
T11
X008966Y00888
X00922
X009474
X009728
Y009134
X009474
X00922
X008966
X010342Y00914
X010596
X01085
X011104
Y008886
X01085
X010596
X010342
X011826
Y00914
X01208
X012334
X012588
Y008886
X012334
X01208
X013332Y008896
X013586
X01384
X014094
Y00915
X01384
X013586
X013332
T12
X000335Y009329
Y010091
T13
X0003Y00027
X01561
X0003Y01115
X01561
M30
