G04*
G04 #@! TF.GenerationSoftware,Altium Limited,Altium Designer,26.5.0 (11)*
G04*
G04 Layer_Physical_Order=2*
G04 Layer_Color=16711680*
G04 Board_Origin=0|0*
%FSLAX44Y44*%
%MOMM*%
G71*
G04*
G04 #@! TF.SameCoordinates,BF38CAAB-9107-40E0-8CC0-74BF54994753*
G04*
G04*
G04 #@! TF.FilePolarity,Positive*
G04*
G01*
G75*
%ADD16C,0.2540*%
%ADD18C,1.4986*%
%ADD19R,1.5240X1.5240*%
%ADD20C,1.5240*%
%ADD21C,1.5300*%
%ADD22C,1.6050*%
%ADD23C,1.3500*%
%ADD24R,1.3000X1.3000*%
%ADD25C,1.2000*%
%ADD26C,1.6000*%
G04:AMPARAMS|DCode=27|XSize=2.25mm|YSize=2.25mm|CornerRadius=0.5625mm|HoleSize=0mm|Usage=FLASHONLY|Rotation=90.000|XOffset=0mm|YOffset=0mm|HoleType=Round|Shape=RoundedRectangle|*
%AMROUNDEDRECTD27*
21,1,2.2500,1.1250,0,0,90.0*
21,1,1.1250,2.2500,0,0,90.0*
1,1,1.1250,0.5625,0.5625*
1,1,1.1250,0.5625,-0.5625*
1,1,1.1250,-0.5625,-0.5625*
1,1,1.1250,-0.5625,0.5625*
%
%ADD27ROUNDEDRECTD27*%
%ADD28R,1.3500X1.3500*%
%ADD29C,1.3970*%
%ADD30R,1.2000X1.2000*%
%ADD31C,1.3000*%
%ADD32C,1.6000*%
%ADD33C,2.2500*%
%ADD34R,1.3500X1.3500*%
%ADD35R,1.6050X1.6050*%
%ADD36R,1.6000X1.6000*%
%ADD37R,1.6000X1.6000*%
%ADD38C,3.4000*%
%ADD39C,0.7000*%
%ADD40C,1.0000*%
%ADD41C,0.5000*%
G36*
X1591000D02*
X0D01*
Y1142000D01*
X1591000D01*
Y0D01*
D02*
G37*
%LPC*%
G36*
X1562925Y1134540D02*
X1559076D01*
X1555301Y1133789D01*
X1551745Y1132316D01*
X1548544Y1130178D01*
X1545822Y1127456D01*
X1543684Y1124256D01*
X1542211Y1120700D01*
X1541460Y1116925D01*
Y1113075D01*
X1542211Y1109300D01*
X1543684Y1105744D01*
X1545822Y1102544D01*
X1548544Y1099822D01*
X1551745Y1097684D01*
X1555301Y1096211D01*
X1559076Y1095460D01*
X1562925D01*
X1566700Y1096211D01*
X1570256Y1097684D01*
X1573456Y1099822D01*
X1576178Y1102544D01*
X1578316Y1105744D01*
X1579789Y1109300D01*
X1580540Y1113075D01*
Y1116925D01*
X1579789Y1120700D01*
X1578316Y1124256D01*
X1576178Y1127456D01*
X1573456Y1130178D01*
X1570256Y1132316D01*
X1566700Y1133789D01*
X1562925Y1134540D01*
D02*
G37*
G36*
X31925D02*
X28075D01*
X24300Y1133789D01*
X20744Y1132316D01*
X17544Y1130178D01*
X14822Y1127456D01*
X12684Y1124256D01*
X11211Y1120700D01*
X10460Y1116925D01*
Y1113075D01*
X11211Y1109300D01*
X12684Y1105744D01*
X14822Y1102544D01*
X17544Y1099822D01*
X20744Y1097684D01*
X24300Y1096211D01*
X28075Y1095460D01*
X31925D01*
X35700Y1096211D01*
X39256Y1097684D01*
X42456Y1099822D01*
X45178Y1102544D01*
X47316Y1105744D01*
X48789Y1109300D01*
X49540Y1113075D01*
Y1116925D01*
X48789Y1120700D01*
X47316Y1124256D01*
X45178Y1127456D01*
X42456Y1130178D01*
X39256Y1132316D01*
X35700Y1133789D01*
X31925Y1134540D01*
D02*
G37*
G36*
X1078321Y1081033D02*
X1078270D01*
Y1072270D01*
X1087033D01*
Y1072321D01*
X1086349Y1074873D01*
X1085029Y1077160D01*
X1083160Y1079028D01*
X1080873Y1080349D01*
X1078321Y1081033D01*
D02*
G37*
G36*
X1075730D02*
X1075679D01*
X1073128Y1080349D01*
X1070840Y1079028D01*
X1068972Y1077160D01*
X1067651Y1074873D01*
X1066967Y1072321D01*
Y1072270D01*
X1075730D01*
Y1081033D01*
D02*
G37*
G36*
X787052Y1090635D02*
X768472D01*
Y1072055D01*
X787052D01*
Y1090635D01*
D02*
G37*
G36*
X736290Y1090490D02*
X717710D01*
Y1071910D01*
X736290D01*
Y1090490D01*
D02*
G37*
G36*
X685490D02*
X666910D01*
Y1071910D01*
X685490D01*
Y1090490D01*
D02*
G37*
G36*
X634690D02*
X616110D01*
Y1071910D01*
X634690D01*
Y1090490D01*
D02*
G37*
G36*
X940321Y1080033D02*
X940270D01*
Y1071270D01*
X949033D01*
Y1071321D01*
X948349Y1073873D01*
X947028Y1076160D01*
X945160Y1078028D01*
X942872Y1079349D01*
X940321Y1080033D01*
D02*
G37*
G36*
X1231321D02*
X1231270D01*
Y1071270D01*
X1240033D01*
Y1071321D01*
X1239349Y1073873D01*
X1238028Y1076160D01*
X1236161Y1078028D01*
X1233873Y1079349D01*
X1231321Y1080033D01*
D02*
G37*
G36*
X937730D02*
X937679D01*
X935127Y1079349D01*
X932840Y1078028D01*
X930972Y1076160D01*
X929651Y1073873D01*
X928967Y1071321D01*
Y1071270D01*
X937730D01*
Y1080033D01*
D02*
G37*
G36*
X1228730D02*
X1228679D01*
X1226127Y1079349D01*
X1223840Y1078028D01*
X1221972Y1076160D01*
X1220651Y1073873D01*
X1219967Y1071321D01*
Y1071270D01*
X1228730D01*
Y1080033D01*
D02*
G37*
G36*
X1385321Y1079033D02*
X1385270D01*
Y1070270D01*
X1394033D01*
Y1070321D01*
X1393349Y1072873D01*
X1392028Y1075161D01*
X1390160Y1077029D01*
X1387872Y1078349D01*
X1385321Y1079033D01*
D02*
G37*
G36*
X1382730D02*
X1382679D01*
X1380127Y1078349D01*
X1377839Y1077029D01*
X1375971Y1075161D01*
X1374651Y1072873D01*
X1373967Y1070321D01*
Y1070270D01*
X1382730D01*
Y1079033D01*
D02*
G37*
G36*
X1087033Y1069730D02*
X1078270D01*
Y1060967D01*
X1078321D01*
X1080873Y1061651D01*
X1083160Y1062972D01*
X1085029Y1064840D01*
X1086349Y1067128D01*
X1087033Y1069679D01*
Y1069730D01*
D02*
G37*
G36*
X1075730D02*
X1066967D01*
Y1069679D01*
X1067651Y1067128D01*
X1068972Y1064840D01*
X1070840Y1062972D01*
X1073128Y1061651D01*
X1075679Y1060967D01*
X1075730D01*
Y1069730D01*
D02*
G37*
G36*
X1053321Y1081033D02*
X1050679D01*
X1048127Y1080349D01*
X1045839Y1079028D01*
X1043971Y1077160D01*
X1042651Y1074873D01*
X1041967Y1072321D01*
Y1069679D01*
X1042651Y1067128D01*
X1043971Y1064840D01*
X1045839Y1062972D01*
X1048127Y1061651D01*
X1050679Y1060967D01*
X1053321D01*
X1055872Y1061651D01*
X1058160Y1062972D01*
X1060028Y1064840D01*
X1061349Y1067128D01*
X1062033Y1069679D01*
Y1072321D01*
X1061349Y1074873D01*
X1060028Y1077160D01*
X1058160Y1079028D01*
X1055872Y1080349D01*
X1053321Y1081033D01*
D02*
G37*
G36*
X1240033Y1068730D02*
X1231270D01*
Y1059967D01*
X1231321D01*
X1233873Y1060651D01*
X1236161Y1061972D01*
X1238028Y1063839D01*
X1239349Y1066127D01*
X1240033Y1068679D01*
Y1068730D01*
D02*
G37*
G36*
X1228730D02*
X1219967D01*
Y1068679D01*
X1220651Y1066127D01*
X1221972Y1063839D01*
X1223840Y1061972D01*
X1226127Y1060651D01*
X1228679Y1059967D01*
X1228730D01*
Y1068730D01*
D02*
G37*
G36*
X1206321Y1080033D02*
X1203679D01*
X1201127Y1079349D01*
X1198839Y1078028D01*
X1196972Y1076160D01*
X1195651Y1073873D01*
X1194967Y1071321D01*
Y1068679D01*
X1195651Y1066127D01*
X1196972Y1063839D01*
X1198839Y1061972D01*
X1201127Y1060651D01*
X1203679Y1059967D01*
X1206321D01*
X1208873Y1060651D01*
X1211160Y1061972D01*
X1213028Y1063839D01*
X1214349Y1066127D01*
X1215033Y1068679D01*
Y1071321D01*
X1214349Y1073873D01*
X1213028Y1076160D01*
X1211160Y1078028D01*
X1208873Y1079349D01*
X1206321Y1080033D01*
D02*
G37*
G36*
X949033Y1068730D02*
X940270D01*
Y1059967D01*
X940321D01*
X942872Y1060651D01*
X945160Y1061972D01*
X947028Y1063839D01*
X948349Y1066127D01*
X949033Y1068679D01*
Y1068730D01*
D02*
G37*
G36*
X937730D02*
X928967D01*
Y1068679D01*
X929651Y1066127D01*
X930972Y1063839D01*
X932840Y1061972D01*
X935127Y1060651D01*
X937679Y1059967D01*
X937730D01*
Y1068730D01*
D02*
G37*
G36*
X915321Y1080033D02*
X912679D01*
X910127Y1079349D01*
X907839Y1078028D01*
X905971Y1076160D01*
X904650Y1073873D01*
X903967Y1071321D01*
Y1068679D01*
X904650Y1066127D01*
X905971Y1063839D01*
X907839Y1061972D01*
X910127Y1060651D01*
X912679Y1059967D01*
X915321D01*
X917872Y1060651D01*
X920160Y1061972D01*
X922028Y1063839D01*
X923349Y1066127D01*
X924033Y1068679D01*
Y1071321D01*
X923349Y1073873D01*
X922028Y1076160D01*
X920160Y1078028D01*
X917872Y1079349D01*
X915321Y1080033D01*
D02*
G37*
G36*
X1394033Y1067730D02*
X1385270D01*
Y1058967D01*
X1385321D01*
X1387872Y1059651D01*
X1390160Y1060972D01*
X1392028Y1062840D01*
X1393349Y1065128D01*
X1394033Y1067679D01*
Y1067730D01*
D02*
G37*
G36*
X1382730D02*
X1373967D01*
Y1067679D01*
X1374651Y1065128D01*
X1375971Y1062840D01*
X1377839Y1060972D01*
X1380127Y1059651D01*
X1382679Y1058967D01*
X1382730D01*
Y1067730D01*
D02*
G37*
G36*
X1360320Y1079033D02*
X1357679D01*
X1355127Y1078349D01*
X1352839Y1077029D01*
X1350971Y1075161D01*
X1349650Y1072873D01*
X1348967Y1070321D01*
Y1067679D01*
X1349650Y1065128D01*
X1350971Y1062840D01*
X1352839Y1060972D01*
X1355127Y1059651D01*
X1357679Y1058967D01*
X1360320D01*
X1362872Y1059651D01*
X1365160Y1060972D01*
X1367028Y1062840D01*
X1368349Y1065128D01*
X1369033Y1067679D01*
Y1070321D01*
X1368349Y1072873D01*
X1367028Y1075161D01*
X1365160Y1077029D01*
X1362872Y1078349D01*
X1360320Y1079033D01*
D02*
G37*
G36*
X326540Y1042290D02*
X309460D01*
Y1025210D01*
X326540D01*
Y1042290D01*
D02*
G37*
G36*
X233190Y1038040D02*
X230810D01*
X228511Y1037424D01*
X226449Y1036234D01*
X224766Y1034551D01*
X223576Y1032489D01*
X222960Y1030190D01*
Y1027810D01*
X223576Y1025511D01*
X224766Y1023449D01*
X226449Y1021766D01*
X228511Y1020576D01*
X230810Y1019960D01*
X233190D01*
X235489Y1020576D01*
X237551Y1021766D01*
X239234Y1023449D01*
X240424Y1025511D01*
X241040Y1027810D01*
Y1030190D01*
X240424Y1032489D01*
X239234Y1034551D01*
X237551Y1036234D01*
X235489Y1037424D01*
X233190Y1038040D01*
D02*
G37*
G36*
X372388Y1033340D02*
X369612D01*
X366932Y1032622D01*
X364528Y1031234D01*
X362566Y1029272D01*
X361178Y1026868D01*
X360460Y1024188D01*
Y1021413D01*
X361178Y1018732D01*
X362566Y1016328D01*
X364528Y1014366D01*
X366932Y1012978D01*
X369612Y1012260D01*
X372388D01*
X375068Y1012978D01*
X377472Y1014366D01*
X379434Y1016328D01*
X380822Y1018732D01*
X381540Y1021413D01*
Y1024188D01*
X380822Y1026868D01*
X379434Y1029272D01*
X377472Y1031234D01*
X375068Y1032622D01*
X372388Y1033340D01*
D02*
G37*
G36*
X35316Y1022890D02*
X31685D01*
X28177Y1021950D01*
X25033Y1020135D01*
X22465Y1017567D01*
X20650Y1014423D01*
X19710Y1010915D01*
Y1007284D01*
X20650Y1003777D01*
X22465Y1000633D01*
X25033Y998065D01*
X28177Y996250D01*
X31685Y995310D01*
X35316D01*
X38823Y996250D01*
X41967Y998065D01*
X44535Y1000633D01*
X46350Y1003777D01*
X47290Y1007284D01*
Y1010915D01*
X46350Y1014423D01*
X44535Y1017567D01*
X41967Y1020135D01*
X38823Y1021950D01*
X35316Y1022890D01*
D02*
G37*
G36*
X1091321Y1002033D02*
X1091270D01*
Y993270D01*
X1100033D01*
Y993321D01*
X1099350Y995873D01*
X1098029Y998160D01*
X1096161Y1000028D01*
X1093873Y1001349D01*
X1091321Y1002033D01*
D02*
G37*
G36*
X1088730D02*
X1088680D01*
X1086128Y1001349D01*
X1083840Y1000028D01*
X1081972Y998160D01*
X1080651Y995873D01*
X1079967Y993321D01*
Y993270D01*
X1088730D01*
Y1002033D01*
D02*
G37*
G36*
X1398321Y1000633D02*
X1398270D01*
Y991870D01*
X1407033D01*
Y991921D01*
X1406349Y994473D01*
X1405028Y996760D01*
X1403160Y998628D01*
X1400873Y999949D01*
X1398321Y1000633D01*
D02*
G37*
G36*
X1245521D02*
X1245470D01*
Y991870D01*
X1254233D01*
Y991921D01*
X1253549Y994473D01*
X1252229Y996760D01*
X1250361Y998628D01*
X1248073Y999949D01*
X1245521Y1000633D01*
D02*
G37*
G36*
X1395730D02*
X1395679D01*
X1393127Y999949D01*
X1390840Y998628D01*
X1388972Y996760D01*
X1387651Y994473D01*
X1386967Y991921D01*
Y991870D01*
X1395730D01*
Y1000633D01*
D02*
G37*
G36*
X1242930D02*
X1242879D01*
X1240328Y999949D01*
X1238040Y998628D01*
X1236172Y996760D01*
X1234851Y994473D01*
X1234167Y991921D01*
Y991870D01*
X1242930D01*
Y1000633D01*
D02*
G37*
G36*
X952321Y1000033D02*
X952270D01*
Y991270D01*
X961033D01*
Y991321D01*
X960349Y993873D01*
X959028Y996160D01*
X957160Y998028D01*
X954873Y999349D01*
X952321Y1000033D01*
D02*
G37*
G36*
X949730D02*
X949679D01*
X947127Y999349D01*
X944839Y998028D01*
X942971Y996160D01*
X941651Y993873D01*
X940967Y991321D01*
Y991270D01*
X949730D01*
Y1000033D01*
D02*
G37*
G36*
X420190Y1008040D02*
X417810D01*
X415511Y1007424D01*
X413449Y1006234D01*
X411766Y1004550D01*
X410576Y1002489D01*
X409960Y1000190D01*
Y997810D01*
X410576Y995510D01*
X411766Y993449D01*
X413449Y991766D01*
X415511Y990576D01*
X417810Y989960D01*
X420190D01*
X422489Y990576D01*
X424551Y991766D01*
X426234Y993449D01*
X427424Y995510D01*
X428040Y997810D01*
Y1000190D01*
X427424Y1002489D01*
X426234Y1004550D01*
X424551Y1006234D01*
X422489Y1007424D01*
X420190Y1008040D01*
D02*
G37*
G36*
X1373321Y1000633D02*
X1370679D01*
X1368127Y999949D01*
X1365839Y998628D01*
X1363971Y996760D01*
X1362650Y994473D01*
X1361967Y991921D01*
Y989279D01*
X1362647Y986741D01*
X1358692Y982786D01*
X1355491Y985242D01*
X1356349Y986727D01*
X1357033Y989279D01*
Y991921D01*
X1356349Y994473D01*
X1355028Y996760D01*
X1353160Y998628D01*
X1350872Y999949D01*
X1348320Y1000633D01*
X1345679D01*
X1343127Y999949D01*
X1340839Y998628D01*
X1338971Y996760D01*
X1337650Y994473D01*
X1336967Y991921D01*
Y989279D01*
X1337650Y986727D01*
X1338971Y984440D01*
X1340839Y982572D01*
X1343127Y981251D01*
X1345679Y980567D01*
X1348320D01*
X1350872Y981251D01*
X1352358Y982108D01*
X1354814Y978908D01*
X1307639Y931733D01*
X1306797Y930473D01*
X1306501Y928986D01*
Y778595D01*
X1248577Y720670D01*
X1248533Y720696D01*
X1245942Y721390D01*
X1243258D01*
X1240667Y720696D01*
X1238343Y719354D01*
X1236446Y717457D01*
X1235104Y715133D01*
X1234410Y712542D01*
Y709858D01*
X1235104Y707267D01*
X1236446Y704943D01*
X1238343Y703046D01*
X1240667Y701704D01*
X1240715Y701691D01*
Y695309D01*
X1240667Y695296D01*
X1238343Y693954D01*
X1236446Y692057D01*
X1235104Y689733D01*
X1234410Y687142D01*
Y684458D01*
X1235104Y681867D01*
X1236446Y679543D01*
X1238343Y677646D01*
X1240667Y676304D01*
X1243258Y675610D01*
X1245942D01*
X1248533Y676304D01*
X1250857Y677646D01*
X1252754Y679543D01*
X1254096Y681867D01*
X1254790Y684458D01*
Y687142D01*
X1254096Y689733D01*
X1252754Y692057D01*
X1250857Y693954D01*
X1248533Y695296D01*
X1248485Y695309D01*
Y701691D01*
X1248533Y701704D01*
X1250857Y703046D01*
X1252754Y704943D01*
X1254096Y707267D01*
X1254790Y709858D01*
Y712542D01*
X1254096Y715133D01*
X1254070Y715177D01*
X1258903Y720010D01*
X1261846Y717457D01*
X1261270Y716459D01*
X1260504Y715133D01*
X1259810Y712542D01*
Y709858D01*
X1260504Y707267D01*
X1261846Y704943D01*
X1263743Y703046D01*
X1266067Y701704D01*
X1266115Y701691D01*
Y695309D01*
X1266067Y695296D01*
X1263743Y693954D01*
X1261846Y692057D01*
X1260504Y689733D01*
X1259810Y687142D01*
Y684458D01*
X1260504Y681867D01*
X1261846Y679543D01*
X1263743Y677646D01*
X1266067Y676304D01*
X1268658Y675610D01*
X1271342D01*
X1273933Y676304D01*
X1276257Y677646D01*
X1278154Y679543D01*
X1279496Y681867D01*
X1280190Y684458D01*
Y687142D01*
X1279496Y689733D01*
X1278154Y692057D01*
X1276257Y693954D01*
X1273933Y695296D01*
X1273885Y695309D01*
Y701691D01*
X1273933Y701704D01*
X1276257Y703046D01*
X1278154Y704943D01*
X1279496Y707267D01*
X1280190Y709858D01*
Y712542D01*
X1279496Y715133D01*
X1278154Y717457D01*
X1276257Y719354D01*
X1273933Y720696D01*
X1271342Y721390D01*
X1268658D01*
X1266067Y720696D01*
X1263743Y719354D01*
X1261190Y722297D01*
X1313133Y774239D01*
X1313975Y775499D01*
X1314271Y776986D01*
Y927377D01*
X1368141Y981247D01*
X1370679Y980567D01*
X1373321D01*
X1375872Y981251D01*
X1378160Y982572D01*
X1380028Y984440D01*
X1381349Y986727D01*
X1382033Y989279D01*
Y991921D01*
X1381349Y994473D01*
X1380028Y996760D01*
X1378160Y998628D01*
X1375872Y999949D01*
X1373321Y1000633D01*
D02*
G37*
G36*
X778985Y1000635D02*
X776539D01*
X774176Y1000002D01*
X772057Y998779D01*
X770328Y997049D01*
X769105Y994930D01*
X768472Y992568D01*
Y990122D01*
X769105Y987759D01*
X770328Y985640D01*
X772057Y983911D01*
X774176Y982688D01*
X776539Y982055D01*
X778985D01*
X781348Y982688D01*
X783466Y983911D01*
X785196Y985640D01*
X786419Y987759D01*
X787052Y990122D01*
Y992568D01*
X786419Y994930D01*
X785196Y997049D01*
X783466Y998779D01*
X781348Y1000002D01*
X778985Y1000635D01*
D02*
G37*
G36*
X1100033Y990730D02*
X1091270D01*
Y981967D01*
X1091321D01*
X1093873Y982651D01*
X1096161Y983972D01*
X1098029Y985840D01*
X1099350Y988128D01*
X1100033Y990679D01*
Y990730D01*
D02*
G37*
G36*
X1088730D02*
X1079967D01*
Y990679D01*
X1080651Y988128D01*
X1081972Y985840D01*
X1083840Y983972D01*
X1086128Y982651D01*
X1088680Y981967D01*
X1088730D01*
Y990730D01*
D02*
G37*
G36*
X1041321Y1002033D02*
X1038679D01*
X1036127Y1001349D01*
X1033840Y1000028D01*
X1031972Y998160D01*
X1030651Y995873D01*
X1029967Y993321D01*
Y990679D01*
X1030651Y988128D01*
X1031972Y985840D01*
X1033840Y983972D01*
X1036127Y982651D01*
X1038679Y981967D01*
X1041321D01*
X1043873Y982651D01*
X1046160Y983972D01*
X1048028Y985840D01*
X1049349Y988128D01*
X1050033Y990679D01*
Y993321D01*
X1049349Y995873D01*
X1048028Y998160D01*
X1046160Y1000028D01*
X1043873Y1001349D01*
X1041321Y1002033D01*
D02*
G37*
G36*
X728223Y1000490D02*
X725777D01*
X723414Y999857D01*
X721296Y998634D01*
X719566Y996904D01*
X718343Y994786D01*
X717710Y992423D01*
Y989977D01*
X718343Y987614D01*
X719566Y985496D01*
X721296Y983766D01*
X723414Y982543D01*
X725777Y981910D01*
X728223D01*
X730586Y982543D01*
X732704Y983766D01*
X734434Y985496D01*
X735657Y987614D01*
X736290Y989977D01*
Y992423D01*
X735657Y994786D01*
X734434Y996904D01*
X732704Y998634D01*
X730586Y999857D01*
X728223Y1000490D01*
D02*
G37*
G36*
X677423D02*
X674977D01*
X672614Y999857D01*
X670496Y998634D01*
X668766Y996904D01*
X667543Y994786D01*
X666910Y992423D01*
Y989977D01*
X667543Y987614D01*
X668766Y985496D01*
X670496Y983766D01*
X672614Y982543D01*
X674977Y981910D01*
X677423D01*
X679786Y982543D01*
X681904Y983766D01*
X683634Y985496D01*
X684857Y987614D01*
X685490Y989977D01*
Y992423D01*
X684857Y994786D01*
X683634Y996904D01*
X681904Y998634D01*
X679786Y999857D01*
X677423Y1000490D01*
D02*
G37*
G36*
X626623D02*
X624177D01*
X621814Y999857D01*
X619696Y998634D01*
X617966Y996904D01*
X616743Y994786D01*
X616110Y992423D01*
Y989977D01*
X616743Y987614D01*
X617966Y985496D01*
X619696Y983766D01*
X621814Y982543D01*
X624177Y981910D01*
X626623D01*
X628986Y982543D01*
X631104Y983766D01*
X632834Y985496D01*
X634057Y987614D01*
X634690Y989977D01*
Y992423D01*
X634057Y994786D01*
X632834Y996904D01*
X631104Y998634D01*
X628986Y999857D01*
X626623Y1000490D01*
D02*
G37*
G36*
X1407033Y989330D02*
X1398270D01*
Y980567D01*
X1398321D01*
X1400873Y981251D01*
X1403160Y982572D01*
X1405028Y984440D01*
X1406349Y986727D01*
X1407033Y989279D01*
Y989330D01*
D02*
G37*
G36*
X1395730D02*
X1386967D01*
Y989279D01*
X1387651Y986727D01*
X1388972Y984440D01*
X1390840Y982572D01*
X1393127Y981251D01*
X1395679Y980567D01*
X1395730D01*
Y989330D01*
D02*
G37*
G36*
X1254233D02*
X1245470D01*
Y980567D01*
X1245521D01*
X1248073Y981251D01*
X1250361Y982572D01*
X1252229Y984440D01*
X1253549Y986727D01*
X1254233Y989279D01*
Y989330D01*
D02*
G37*
G36*
X1242930D02*
X1234167D01*
Y989279D01*
X1234851Y986727D01*
X1236172Y984440D01*
X1238040Y982572D01*
X1240328Y981251D01*
X1242879Y980567D01*
X1242930D01*
Y989330D01*
D02*
G37*
G36*
X1066321Y1002033D02*
X1063679D01*
X1061128Y1001349D01*
X1058840Y1000028D01*
X1056972Y998160D01*
X1055651Y995873D01*
X1054967Y993321D01*
Y990679D01*
X1055651Y988128D01*
X1056972Y985840D01*
X1058840Y983972D01*
X1061128Y982651D01*
X1063679Y981967D01*
X1066321D01*
X1067741Y980877D01*
Y926118D01*
X1063741Y923809D01*
X1063678Y923845D01*
X1060991Y924565D01*
X1058209D01*
X1055522Y923845D01*
X1053113Y922454D01*
X1051146Y920487D01*
X1049755Y918078D01*
X1049035Y915391D01*
Y912609D01*
X1049755Y909922D01*
X1051146Y907513D01*
X1053113Y905546D01*
X1055522Y904155D01*
X1055715Y904103D01*
Y898497D01*
X1055522Y898445D01*
X1053113Y897054D01*
X1051146Y895087D01*
X1049755Y892678D01*
X1049035Y889991D01*
Y887209D01*
X1049755Y884522D01*
X1051146Y882113D01*
X1053113Y880146D01*
X1055522Y878755D01*
X1058209Y878035D01*
X1060991D01*
X1063678Y878755D01*
X1063741Y878792D01*
X1067741Y876482D01*
Y859737D01*
X1064173Y858612D01*
X1063741Y858597D01*
X1062104Y860234D01*
X1059986Y861457D01*
X1057623Y862090D01*
X1055177D01*
X1053148Y861547D01*
X1039590Y875104D01*
X1039519Y875303D01*
X1040068Y879788D01*
X1040687Y880146D01*
X1042654Y882113D01*
X1044045Y884522D01*
X1044765Y887209D01*
Y889991D01*
X1044045Y892678D01*
X1042654Y895087D01*
X1040687Y897054D01*
X1038278Y898445D01*
X1038085Y898497D01*
Y903435D01*
X1044765D01*
Y924565D01*
X1023635D01*
Y903435D01*
X1030315D01*
Y898497D01*
X1030122Y898445D01*
X1027713Y897054D01*
X1025746Y895087D01*
X1024355Y892678D01*
X1023635Y889991D01*
Y887209D01*
X1024355Y884522D01*
X1025746Y882113D01*
X1027713Y880146D01*
X1030122Y878755D01*
X1030315Y878703D01*
Y875001D01*
X1030611Y873514D01*
X1031453Y872254D01*
X1047654Y856053D01*
X1047110Y854024D01*
Y851577D01*
X1047743Y849215D01*
X1048966Y847096D01*
X1050696Y845367D01*
X1052814Y844144D01*
X1055177Y843510D01*
X1057623D01*
X1059986Y844144D01*
X1062104Y845367D01*
X1063741Y847003D01*
X1064173Y846989D01*
X1067741Y845864D01*
Y775240D01*
X1065690Y772090D01*
X1047110D01*
Y753510D01*
X1047590D01*
X1049121Y749815D01*
X1019977Y720670D01*
X1019933Y720696D01*
X1017342Y721390D01*
X1014658D01*
X1012067Y720696D01*
X1008201Y723082D01*
Y741172D01*
X1007905Y742659D01*
X1007063Y743919D01*
X986444Y764538D01*
X985183Y765380D01*
X983697Y765676D01*
X959746D01*
Y771081D01*
X941166D01*
Y752501D01*
X959746D01*
Y757907D01*
X982088D01*
X1000431Y739563D01*
Y721436D01*
X998128Y720094D01*
X996431Y719600D01*
X994533Y720696D01*
X991942Y721390D01*
X989258D01*
X986667Y720696D01*
X984343Y719354D01*
X982446Y717457D01*
X981104Y715133D01*
X980410Y712542D01*
Y709858D01*
X981104Y707267D01*
X982446Y704943D01*
X984343Y703046D01*
X986667Y701704D01*
X986715Y701691D01*
Y695309D01*
X986667Y695296D01*
X984343Y693954D01*
X982446Y692057D01*
X981104Y689733D01*
X980410Y687142D01*
Y684458D01*
X981104Y681867D01*
X982446Y679543D01*
X984343Y677646D01*
X986667Y676304D01*
X989258Y675610D01*
X991942D01*
X994533Y676304D01*
X996431Y677400D01*
X998228Y676876D01*
X1000431Y675640D01*
X1000727Y674153D01*
X1001569Y672893D01*
X1003093Y671369D01*
X1004353Y670527D01*
X1005840Y670231D01*
X1153075D01*
X1304210Y519097D01*
X1301657Y516154D01*
X1300659Y516730D01*
X1299333Y517496D01*
X1296742Y518190D01*
X1296670D01*
Y509270D01*
X1305590D01*
Y509342D01*
X1304896Y511933D01*
X1303554Y514257D01*
X1306497Y516810D01*
X1311330Y511977D01*
X1311304Y511933D01*
X1310610Y509342D01*
Y506658D01*
X1311304Y504067D01*
X1312646Y501743D01*
X1314543Y499846D01*
X1316867Y498504D01*
X1316915Y498491D01*
Y492109D01*
X1316867Y492096D01*
X1314543Y490754D01*
X1312646Y488857D01*
X1311304Y486533D01*
X1310610Y483942D01*
Y481258D01*
X1311304Y478667D01*
X1312646Y476343D01*
X1314543Y474446D01*
X1316867Y473104D01*
X1319458Y472410D01*
X1322142D01*
X1324733Y473104D01*
X1327057Y474446D01*
X1328954Y476343D01*
X1330296Y478667D01*
X1330990Y481258D01*
Y483942D01*
X1330296Y486533D01*
X1328954Y488857D01*
X1327057Y490754D01*
X1324733Y492096D01*
X1324685Y492109D01*
Y498491D01*
X1324733Y498504D01*
X1327057Y499846D01*
X1328954Y501743D01*
X1330296Y504067D01*
X1330990Y506658D01*
Y509342D01*
X1330296Y511933D01*
X1328954Y514257D01*
X1327057Y516154D01*
X1324733Y517496D01*
X1322142Y518190D01*
X1319458D01*
X1316867Y517496D01*
X1316823Y517470D01*
X1159590Y674703D01*
X1162143Y677646D01*
X1163182Y677047D01*
X1164467Y676304D01*
X1167058Y675610D01*
X1167130D01*
Y684530D01*
X1158210D01*
Y684458D01*
X1158904Y681867D01*
X1158942Y681802D01*
X1156347Y678297D01*
X1154706Y678677D01*
X1152600Y682258D01*
X1153190Y684458D01*
Y687142D01*
X1152496Y689733D01*
X1151154Y692057D01*
X1149257Y693954D01*
X1146933Y695296D01*
X1146885Y695309D01*
Y701691D01*
X1146933Y701704D01*
X1149257Y703046D01*
X1151154Y704943D01*
X1152496Y707267D01*
X1153190Y709858D01*
Y712542D01*
X1152496Y715133D01*
X1151154Y717457D01*
X1149257Y719354D01*
X1146933Y720696D01*
X1144342Y721390D01*
X1141658D01*
X1139067Y720696D01*
X1136743Y719354D01*
X1134846Y717457D01*
X1133504Y715133D01*
X1132810Y712542D01*
Y709858D01*
X1133504Y707267D01*
X1134846Y704943D01*
X1136743Y703046D01*
X1139067Y701704D01*
X1139115Y701691D01*
Y695309D01*
X1139067Y695296D01*
X1136743Y693954D01*
X1134846Y692057D01*
X1133504Y689733D01*
X1132810Y687142D01*
Y684458D01*
X1132822Y684412D01*
X1130300Y681012D01*
X1127778Y684412D01*
X1127790Y684458D01*
Y687142D01*
X1127096Y689733D01*
X1125754Y692057D01*
X1123857Y693954D01*
X1121533Y695296D01*
X1121485Y695309D01*
Y701691D01*
X1121533Y701704D01*
X1123857Y703046D01*
X1125754Y704943D01*
X1127096Y707267D01*
X1127790Y709858D01*
Y712542D01*
X1127096Y715133D01*
X1125754Y717457D01*
X1123857Y719354D01*
X1121533Y720696D01*
X1118942Y721390D01*
X1116258D01*
X1113667Y720696D01*
X1112110Y719797D01*
X1109326Y722795D01*
X1109339Y722845D01*
X1141683Y755189D01*
X1142525Y756449D01*
X1142821Y757936D01*
Y908727D01*
X1215341Y981247D01*
X1217879Y980567D01*
X1220521D01*
X1223073Y981251D01*
X1225360Y982572D01*
X1227228Y984440D01*
X1228549Y986727D01*
X1229233Y989279D01*
Y991921D01*
X1228549Y994473D01*
X1227228Y996760D01*
X1225360Y998628D01*
X1223073Y999949D01*
X1220521Y1000633D01*
X1217879D01*
X1215327Y999949D01*
X1213040Y998628D01*
X1211172Y996760D01*
X1209851Y994473D01*
X1209167Y991921D01*
Y989279D01*
X1209847Y986741D01*
X1205892Y982786D01*
X1202691Y985242D01*
X1203549Y986727D01*
X1204233Y989279D01*
Y991921D01*
X1203549Y994473D01*
X1202228Y996760D01*
X1200360Y998628D01*
X1198072Y999949D01*
X1195521Y1000633D01*
X1192879D01*
X1190327Y999949D01*
X1188039Y998628D01*
X1186171Y996760D01*
X1184850Y994473D01*
X1184167Y991921D01*
Y989279D01*
X1184850Y986727D01*
X1186171Y984440D01*
X1188039Y982572D01*
X1190327Y981251D01*
X1192879Y980567D01*
X1195521D01*
X1198072Y981251D01*
X1199558Y982108D01*
X1202014Y978908D01*
X1136189Y913083D01*
X1135347Y911823D01*
X1135051Y910336D01*
Y759545D01*
X1096177Y720670D01*
X1096133Y720696D01*
X1093542Y721390D01*
X1090858D01*
X1088267Y720696D01*
X1085943Y719354D01*
X1084046Y717457D01*
X1082704Y715133D01*
X1082010Y712542D01*
Y709858D01*
X1082704Y707267D01*
X1084046Y704943D01*
X1085943Y703046D01*
X1088267Y701704D01*
X1088315Y701691D01*
Y695309D01*
X1088267Y695296D01*
X1085943Y693954D01*
X1084046Y692057D01*
X1082704Y689733D01*
X1082010Y687142D01*
Y684458D01*
X1082022Y684412D01*
X1079500Y681012D01*
X1076978Y684412D01*
X1076990Y684458D01*
Y687142D01*
X1076296Y689733D01*
X1074954Y692057D01*
X1073057Y693954D01*
X1070733Y695296D01*
X1070685Y695309D01*
Y701691D01*
X1070733Y701704D01*
X1073057Y703046D01*
X1074954Y704943D01*
X1076296Y707267D01*
X1076990Y709858D01*
Y712542D01*
X1076296Y715133D01*
X1074954Y717457D01*
X1073057Y719354D01*
X1070733Y720696D01*
X1068142Y721390D01*
X1065458D01*
X1062867Y720696D01*
X1060543Y719354D01*
X1058646Y717457D01*
X1057304Y715133D01*
X1056610Y712542D01*
Y709858D01*
X1057304Y707267D01*
X1058646Y704943D01*
X1060543Y703046D01*
X1062867Y701704D01*
X1062915Y701691D01*
Y695309D01*
X1062867Y695296D01*
X1060543Y693954D01*
X1058646Y692057D01*
X1057304Y689733D01*
X1056610Y687142D01*
Y684458D01*
X1056622Y684412D01*
X1054100Y681012D01*
X1051578Y684412D01*
X1051590Y684458D01*
Y684530D01*
X1041400D01*
X1031210D01*
Y684458D01*
X1031222Y684412D01*
X1028700Y681012D01*
X1026178Y684412D01*
X1026190Y684458D01*
Y687142D01*
X1025496Y689733D01*
X1024154Y692057D01*
X1022257Y693954D01*
X1019933Y695296D01*
X1019885Y695309D01*
Y701691D01*
X1019933Y701704D01*
X1022257Y703046D01*
X1024154Y704943D01*
X1025496Y707267D01*
X1026190Y709858D01*
Y712542D01*
X1025496Y715133D01*
X1025470Y715177D01*
X1030303Y720010D01*
X1033246Y717457D01*
X1032670Y716459D01*
X1031904Y715133D01*
X1031210Y712542D01*
Y712470D01*
X1040130D01*
Y721390D01*
X1040058D01*
X1037467Y720696D01*
X1035143Y719354D01*
X1032590Y722297D01*
X1058503Y748209D01*
X1068070D01*
X1069557Y748505D01*
X1070817Y749347D01*
X1072627Y751158D01*
X1075004Y753005D01*
X1078121Y753510D01*
X1094233D01*
Y772090D01*
X1079511D01*
X1075653Y772090D01*
X1075511Y776031D01*
Y843438D01*
X1078336Y844900D01*
X1079511Y845210D01*
X1081357Y844144D01*
X1083673Y843523D01*
Y852800D01*
Y862078D01*
X1081357Y861457D01*
X1079511Y860391D01*
X1078336Y860701D01*
X1075511Y862163D01*
Y877492D01*
X1076527Y878390D01*
X1079511Y879570D01*
X1080922Y878755D01*
X1083609Y878035D01*
X1086391D01*
X1089078Y878755D01*
X1091487Y880146D01*
X1093454Y882113D01*
X1094845Y884522D01*
X1095565Y887209D01*
Y889991D01*
X1094845Y892678D01*
X1093454Y895087D01*
X1091487Y897054D01*
X1089078Y898445D01*
X1086391Y899165D01*
X1083609D01*
X1080922Y898445D01*
X1079511Y897630D01*
X1076527Y898810D01*
X1076101Y899187D01*
Y903414D01*
X1076527Y903790D01*
X1079511Y904970D01*
X1080922Y904155D01*
X1083609Y903435D01*
X1086391D01*
X1089078Y904155D01*
X1091487Y905546D01*
X1093454Y907513D01*
X1094845Y909922D01*
X1095565Y912609D01*
Y915391D01*
X1094845Y918078D01*
X1093454Y920487D01*
X1091487Y922454D01*
X1089078Y923845D01*
X1086391Y924565D01*
X1083609D01*
X1080922Y923845D01*
X1079511Y923030D01*
X1076527Y924210D01*
X1075511Y925109D01*
Y985374D01*
X1075215Y986861D01*
X1074373Y988121D01*
X1074353Y988141D01*
X1075033Y990679D01*
Y993321D01*
X1074349Y995873D01*
X1073028Y998160D01*
X1071161Y1000028D01*
X1068873Y1001349D01*
X1066321Y1002033D01*
D02*
G37*
G36*
X241040Y988040D02*
X233270D01*
Y980270D01*
X241040D01*
Y988040D01*
D02*
G37*
G36*
X230730D02*
X222960D01*
Y980270D01*
X230730D01*
Y988040D01*
D02*
G37*
G36*
X961033Y988730D02*
X952270D01*
Y979967D01*
X952321D01*
X954873Y980651D01*
X957160Y981972D01*
X959028Y983840D01*
X960349Y986127D01*
X961033Y988679D01*
Y988730D01*
D02*
G37*
G36*
X927321Y1000033D02*
X924679D01*
X922128Y999349D01*
X919840Y998028D01*
X917972Y996160D01*
X916651Y993873D01*
X915967Y991321D01*
Y988679D01*
X916651Y986127D01*
X917972Y983840D01*
X919840Y981972D01*
X922128Y980651D01*
X924679Y979967D01*
X927321D01*
X929859Y980647D01*
X956004Y954502D01*
X956427Y924802D01*
X956142Y924472D01*
X952457Y922680D01*
X951478Y923245D01*
X948791Y923965D01*
X946009D01*
X943322Y923245D01*
X940913Y921854D01*
X938946Y919887D01*
X937555Y917478D01*
X936835Y914791D01*
Y912009D01*
X937555Y909322D01*
X938946Y906913D01*
X939795Y906064D01*
Y895336D01*
X938946Y894487D01*
X937555Y892078D01*
X936835Y889391D01*
Y886609D01*
X937555Y883922D01*
X938946Y881513D01*
X940913Y879546D01*
X943322Y878155D01*
X946009Y877435D01*
X948791D01*
X951478Y878155D01*
X953077Y879079D01*
X955749Y878136D01*
X957106Y877108D01*
X957251Y866873D01*
Y863214D01*
X955693Y861871D01*
X953251Y860660D01*
X951726Y861069D01*
Y851792D01*
Y842514D01*
X953251Y842923D01*
X955693Y841712D01*
X957251Y840369D01*
Y827109D01*
X908605Y778463D01*
X907763Y777203D01*
X907467Y775716D01*
Y658368D01*
X907763Y656881D01*
X908605Y655621D01*
X978709Y585517D01*
X979969Y584675D01*
X981456Y584379D01*
X1162727D01*
X1228010Y519097D01*
X1225457Y516154D01*
X1224459Y516730D01*
X1223133Y517496D01*
X1220542Y518190D01*
X1217858D01*
X1215267Y517496D01*
X1212943Y516154D01*
X1211046Y514257D01*
X1209704Y511933D01*
X1209010Y509342D01*
Y506658D01*
X1209704Y504067D01*
X1211046Y501743D01*
X1212943Y499846D01*
X1215267Y498504D01*
X1215315Y498491D01*
Y492109D01*
X1215267Y492096D01*
X1212943Y490754D01*
X1211046Y488857D01*
X1209704Y486533D01*
X1209010Y483942D01*
Y481258D01*
X1209704Y478667D01*
X1211046Y476343D01*
X1212943Y474446D01*
X1215267Y473104D01*
X1217858Y472410D01*
X1220542D01*
X1223133Y473104D01*
X1225457Y474446D01*
X1227354Y476343D01*
X1228696Y478667D01*
X1229390Y481258D01*
Y483942D01*
X1228696Y486533D01*
X1227354Y488857D01*
X1225457Y490754D01*
X1223133Y492096D01*
X1223085Y492109D01*
Y498491D01*
X1223133Y498504D01*
X1225457Y499846D01*
X1227354Y501743D01*
X1228696Y504067D01*
X1229390Y506658D01*
Y509342D01*
X1228696Y511933D01*
X1227354Y514257D01*
X1230297Y516810D01*
X1235130Y511977D01*
X1235104Y511933D01*
X1234410Y509342D01*
Y506658D01*
X1235104Y504067D01*
X1236446Y501743D01*
X1238343Y499846D01*
X1240667Y498504D01*
X1240715Y498491D01*
Y492109D01*
X1240667Y492096D01*
X1238343Y490754D01*
X1236446Y488857D01*
X1235104Y486533D01*
X1234410Y483942D01*
Y481258D01*
X1235104Y478667D01*
X1236446Y476343D01*
X1238343Y474446D01*
X1240667Y473104D01*
X1243258Y472410D01*
X1245942D01*
X1248533Y473104D01*
X1250857Y474446D01*
X1253410Y471503D01*
X1181015Y399109D01*
X1143000D01*
X1141513Y398813D01*
X1140253Y397971D01*
X1135173Y392891D01*
X1134331Y391631D01*
X1134035Y390144D01*
Y318855D01*
X1131231Y316051D01*
X1123424D01*
X1122272Y319226D01*
X1122219Y320051D01*
X1123930Y321762D01*
X1125268Y324078D01*
X1125960Y326662D01*
Y329337D01*
X1125268Y331922D01*
X1123930Y334238D01*
X1122038Y336130D01*
X1119722Y337467D01*
X1117138Y338160D01*
X1114463D01*
X1111879Y337467D01*
X1111845Y337448D01*
X1096085Y353209D01*
Y473091D01*
X1096133Y473104D01*
X1098457Y474446D01*
X1100354Y476343D01*
X1101696Y478667D01*
X1102390Y481258D01*
Y483942D01*
X1101696Y486533D01*
X1100354Y488857D01*
X1098457Y490754D01*
X1096133Y492096D01*
X1096085Y492109D01*
Y498491D01*
X1096133Y498504D01*
X1098457Y499846D01*
X1100354Y501743D01*
X1101696Y504067D01*
X1102390Y506658D01*
Y509342D01*
X1101696Y511933D01*
X1100354Y514257D01*
X1098457Y516154D01*
X1096133Y517496D01*
X1093542Y518190D01*
X1090858D01*
X1088267Y517496D01*
X1085943Y516154D01*
X1084046Y514257D01*
X1082704Y511933D01*
X1082010Y509342D01*
Y506658D01*
X1082704Y504067D01*
X1084046Y501743D01*
X1085943Y499846D01*
X1088267Y498504D01*
X1088315Y498491D01*
Y492109D01*
X1088267Y492096D01*
X1085943Y490754D01*
X1084046Y488857D01*
X1082704Y486533D01*
X1082010Y483942D01*
Y481258D01*
X1082704Y478667D01*
X1084046Y476343D01*
X1085943Y474446D01*
X1088267Y473104D01*
X1088315Y473091D01*
Y351600D01*
X1088611Y350113D01*
X1089453Y348853D01*
X1098611Y339696D01*
X1098631Y339599D01*
X1095651Y336700D01*
X1094322Y337467D01*
X1091738Y338160D01*
X1089063D01*
X1086479Y337467D01*
X1086445Y337448D01*
X1070685Y353209D01*
Y473091D01*
X1070733Y473104D01*
X1073057Y474446D01*
X1074954Y476343D01*
X1076296Y478667D01*
X1076990Y481258D01*
Y483942D01*
X1076296Y486533D01*
X1074954Y488857D01*
X1073057Y490754D01*
X1070733Y492096D01*
X1070685Y492109D01*
Y498491D01*
X1070733Y498504D01*
X1073057Y499846D01*
X1074954Y501743D01*
X1076296Y504067D01*
X1076990Y506658D01*
Y509342D01*
X1076296Y511933D01*
X1074954Y514257D01*
X1073057Y516154D01*
X1070733Y517496D01*
X1068142Y518190D01*
X1065458D01*
X1062867Y517496D01*
X1060543Y516154D01*
X1058646Y514257D01*
X1057304Y511933D01*
X1056610Y509342D01*
Y506658D01*
X1057304Y504067D01*
X1058646Y501743D01*
X1060543Y499846D01*
X1062867Y498504D01*
X1062915Y498491D01*
Y492109D01*
X1062867Y492096D01*
X1060543Y490754D01*
X1058646Y488857D01*
X1057304Y486533D01*
X1056610Y483942D01*
Y481258D01*
X1057304Y478667D01*
X1058646Y476343D01*
X1060543Y474446D01*
X1062867Y473104D01*
X1062915Y473091D01*
Y351600D01*
X1063211Y350113D01*
X1064053Y348853D01*
X1073211Y339696D01*
X1073231Y339599D01*
X1070251Y336700D01*
X1068922Y337467D01*
X1066338Y338160D01*
X1063663D01*
X1061078Y337467D01*
X1058762Y336130D01*
X1056870Y334238D01*
X1055533Y331922D01*
X1054840Y329337D01*
Y326662D01*
X1055533Y324078D01*
X1056870Y321762D01*
X1058581Y320051D01*
X1058528Y319226D01*
X1057377Y316051D01*
X1047224D01*
X1046072Y319226D01*
X1046019Y320051D01*
X1047730Y321762D01*
X1049068Y324078D01*
X1049760Y326662D01*
Y326730D01*
X1039600D01*
X1029440D01*
Y326662D01*
X1030133Y324078D01*
X1031470Y321762D01*
X1033181Y320051D01*
X1033128Y319226D01*
X1031977Y316051D01*
X1021824D01*
X1020672Y319226D01*
X1020619Y320051D01*
X1022330Y321762D01*
X1023668Y324078D01*
X1024360Y326662D01*
Y329337D01*
X1023668Y331922D01*
X1022330Y334238D01*
X1020439Y336130D01*
X1018299Y337365D01*
X1019884Y407096D01*
X1019876Y407140D01*
X1019885Y407184D01*
Y473091D01*
X1019933Y473104D01*
X1022257Y474446D01*
X1024154Y476343D01*
X1025496Y478667D01*
X1026190Y481258D01*
Y483942D01*
X1025496Y486533D01*
X1024154Y488857D01*
X1022257Y490754D01*
X1019933Y492096D01*
X1019885Y492109D01*
Y498491D01*
X1019933Y498504D01*
X1022257Y499846D01*
X1024154Y501743D01*
X1025496Y504067D01*
X1026190Y506658D01*
Y509342D01*
X1025496Y511933D01*
X1024154Y514257D01*
X1022257Y516154D01*
X1019933Y517496D01*
X1017342Y518190D01*
X1014658D01*
X1012067Y517496D01*
X1009743Y516154D01*
X1007846Y514257D01*
X1006504Y511933D01*
X1005810Y509342D01*
Y506658D01*
X1006504Y504067D01*
X1007846Y501743D01*
X1009743Y499846D01*
X1012067Y498504D01*
X1012115Y498491D01*
Y492109D01*
X1012067Y492096D01*
X1009743Y490754D01*
X1007846Y488857D01*
X1006504Y486533D01*
X1005810Y483942D01*
Y481258D01*
X1006504Y478667D01*
X1007846Y476343D01*
X1009743Y474446D01*
X1012067Y473104D01*
X1012115Y473091D01*
Y407229D01*
X1010531Y337535D01*
X1010278Y337467D01*
X1007962Y336130D01*
X1006070Y334238D01*
X1004733Y331922D01*
X1004040Y329337D01*
Y326662D01*
X1004733Y324078D01*
X1006070Y321762D01*
X1007781Y320051D01*
X1007728Y319226D01*
X1006577Y316051D01*
X996424D01*
X995272Y319226D01*
X995219Y320051D01*
X996930Y321762D01*
X998268Y324078D01*
X998960Y326662D01*
Y329337D01*
X998268Y331922D01*
X996930Y334238D01*
X995039Y336130D01*
X992899Y337365D01*
X994484Y407096D01*
X994476Y407140D01*
X994485Y407184D01*
Y473091D01*
X994533Y473104D01*
X996857Y474446D01*
X998754Y476343D01*
X1000096Y478667D01*
X1000790Y481258D01*
Y483942D01*
X1000096Y486533D01*
X998754Y488857D01*
X996857Y490754D01*
X994533Y492096D01*
X994485Y492109D01*
Y498491D01*
X994533Y498504D01*
X996857Y499846D01*
X998754Y501743D01*
X1000096Y504067D01*
X1000790Y506658D01*
Y509342D01*
X1000096Y511933D01*
X998754Y514257D01*
X996857Y516154D01*
X994533Y517496D01*
X991942Y518190D01*
X989258D01*
X986667Y517496D01*
X984343Y516154D01*
X982446Y514257D01*
X981104Y511933D01*
X980410Y509342D01*
Y506658D01*
X981104Y504067D01*
X982446Y501743D01*
X984343Y499846D01*
X986667Y498504D01*
X986715Y498491D01*
Y492109D01*
X986667Y492096D01*
X984343Y490754D01*
X982446Y488857D01*
X981104Y486533D01*
X980410Y483942D01*
Y481258D01*
X981104Y478667D01*
X982446Y476343D01*
X984343Y474446D01*
X986667Y473104D01*
X986715Y473091D01*
Y407229D01*
X985131Y337535D01*
X984878Y337467D01*
X982562Y336130D01*
X980670Y334238D01*
X979333Y331922D01*
X978640Y329337D01*
Y326662D01*
X979333Y324078D01*
X980670Y321762D01*
X982381Y320051D01*
X982328Y319226D01*
X981177Y316051D01*
X938876D01*
X937219Y320051D01*
X937930Y320762D01*
X939268Y323078D01*
X939960Y325662D01*
Y328338D01*
X939268Y330922D01*
X937930Y333238D01*
X936038Y335130D01*
X933722Y336468D01*
X931138Y337160D01*
X928462D01*
X925878Y336468D01*
X923562Y335130D01*
X921670Y333238D01*
X920332Y330922D01*
X919640Y328338D01*
Y325662D01*
X920332Y323078D01*
X921670Y320762D01*
X918757Y318136D01*
X913848Y323045D01*
X913868Y323078D01*
X914560Y325662D01*
Y328338D01*
X913868Y330922D01*
X912530Y333238D01*
X910638Y335130D01*
X908322Y336468D01*
X905738Y337160D01*
X903062D01*
X900478Y336468D01*
X898162Y335130D01*
X896270Y333238D01*
X894932Y330922D01*
X894240Y328338D01*
Y325662D01*
X894932Y323078D01*
X896270Y320762D01*
X898162Y318870D01*
X900478Y317533D01*
X903062Y316840D01*
X905738D01*
X908322Y317533D01*
X908355Y317552D01*
X916487Y309419D01*
X917747Y308577D01*
X919234Y308281D01*
X1132840D01*
X1134327Y308577D01*
X1135587Y309419D01*
X1140667Y314499D01*
X1141509Y315759D01*
X1141805Y317246D01*
Y388535D01*
X1144609Y391339D01*
X1182624D01*
X1184111Y391635D01*
X1185371Y392477D01*
X1266023Y473130D01*
X1266067Y473104D01*
X1268658Y472410D01*
X1271342D01*
X1273933Y473104D01*
X1276257Y474446D01*
X1278154Y476343D01*
X1279496Y478667D01*
X1280190Y481258D01*
Y483942D01*
X1279496Y486533D01*
X1278154Y488857D01*
X1276257Y490754D01*
X1273933Y492096D01*
X1273885Y492109D01*
Y498491D01*
X1273933Y498504D01*
X1276257Y499846D01*
X1278154Y501743D01*
X1279496Y504067D01*
X1280190Y506658D01*
Y509342D01*
X1279496Y511933D01*
X1278154Y514257D01*
X1276257Y516154D01*
X1273933Y517496D01*
X1271342Y518190D01*
X1268658D01*
X1266067Y517496D01*
X1263743Y516154D01*
X1261846Y514257D01*
X1260504Y511933D01*
X1259810Y509342D01*
Y506658D01*
X1260504Y504067D01*
X1261846Y501743D01*
X1263743Y499846D01*
X1266067Y498504D01*
X1266115Y498491D01*
Y492109D01*
X1266067Y492096D01*
X1263743Y490754D01*
X1261846Y488857D01*
X1260504Y486533D01*
X1259810Y483942D01*
Y481258D01*
X1260504Y478667D01*
X1260530Y478623D01*
X1255697Y473790D01*
X1252754Y476343D01*
X1253330Y477341D01*
X1254096Y478667D01*
X1254790Y481258D01*
Y483942D01*
X1254096Y486533D01*
X1252754Y488857D01*
X1250857Y490754D01*
X1248533Y492096D01*
X1248485Y492109D01*
Y498491D01*
X1248533Y498504D01*
X1250857Y499846D01*
X1252754Y501743D01*
X1254096Y504067D01*
X1254790Y506658D01*
Y509342D01*
X1254096Y511933D01*
X1252754Y514257D01*
X1250857Y516154D01*
X1248533Y517496D01*
X1245942Y518190D01*
X1243258D01*
X1240667Y517496D01*
X1240623Y517470D01*
X1167083Y591011D01*
X1165823Y591853D01*
X1164336Y592149D01*
X983065D01*
X915237Y659977D01*
Y752510D01*
X931204D01*
Y771090D01*
X917610D01*
X916220Y775090D01*
X963883Y822753D01*
X964725Y824013D01*
X965021Y825500D01*
Y866902D01*
X965015Y866930D01*
X965020Y866957D01*
X964895Y875746D01*
X968722Y878155D01*
X971409Y877435D01*
X971530D01*
Y888000D01*
X972800D01*
D01*
X971530D01*
Y898565D01*
X971409D01*
X968498Y900696D01*
X971398Y902838D01*
X971409Y902835D01*
X971530D01*
Y913400D01*
Y923965D01*
X971409D01*
X968722Y923245D01*
X968224Y922957D01*
X964192Y925161D01*
X963750Y956189D01*
X963597Y956905D01*
X963455Y957621D01*
X963439Y957644D01*
X963433Y957672D01*
X963019Y958274D01*
X962613Y958881D01*
X943187Y978307D01*
X945643Y981508D01*
X947127Y980651D01*
X949679Y979967D01*
X949730D01*
Y988730D01*
X940967D01*
Y988679D01*
X941651Y986127D01*
X942507Y984643D01*
X939307Y982187D01*
X935353Y986141D01*
X936033Y988679D01*
Y991321D01*
X935349Y993873D01*
X934029Y996160D01*
X932161Y998028D01*
X929873Y999349D01*
X927321Y1000033D01*
D02*
G37*
G36*
X902321D02*
X899679D01*
X897127Y999349D01*
X894840Y998028D01*
X892972Y996160D01*
X891651Y993873D01*
X890967Y991321D01*
Y988679D01*
X891651Y986127D01*
X892972Y983840D01*
X894840Y981972D01*
X897127Y980651D01*
X899679Y979967D01*
X902321D01*
X904873Y980651D01*
X907160Y981972D01*
X909028Y983840D01*
X910349Y986127D01*
X911033Y988679D01*
Y991321D01*
X910349Y993873D01*
X909028Y996160D01*
X907160Y998028D01*
X904873Y999349D01*
X902321Y1000033D01*
D02*
G37*
G36*
X241040Y977730D02*
X233270D01*
Y969960D01*
X241040D01*
Y977730D01*
D02*
G37*
G36*
X230730D02*
X222960D01*
Y969960D01*
X230730D01*
Y977730D01*
D02*
G37*
G36*
X319270Y960751D02*
Y953520D01*
X326501D01*
X325958Y955546D01*
X324834Y957494D01*
X323243Y959084D01*
X321296Y960208D01*
X319270Y960751D01*
D02*
G37*
G36*
X316730D02*
X314704Y960208D01*
X312756Y959084D01*
X311166Y957494D01*
X310042Y955546D01*
X309499Y953520D01*
X316730D01*
Y960751D01*
D02*
G37*
G36*
X326501Y950980D02*
X319270D01*
Y943749D01*
X321296Y944292D01*
X323243Y945416D01*
X324834Y947006D01*
X325958Y948954D01*
X326501Y950980D01*
D02*
G37*
G36*
X316730D02*
X309499D01*
X310042Y948954D01*
X311166Y947006D01*
X312756Y945416D01*
X314704Y944292D01*
X316730Y943749D01*
Y950980D01*
D02*
G37*
G36*
X39125Y946760D02*
X34770D01*
Y934170D01*
X47361D01*
Y938525D01*
X47080Y940656D01*
X46257Y942643D01*
X44948Y944348D01*
X43243Y945657D01*
X41257Y946480D01*
X39125Y946760D01*
D02*
G37*
G36*
X32230D02*
X27875D01*
X25744Y946480D01*
X23757Y945657D01*
X22052Y944348D01*
X20743Y942643D01*
X19920Y940656D01*
X19640Y938525D01*
Y934170D01*
X32230D01*
Y946760D01*
D02*
G37*
G36*
X428040Y933040D02*
X420270D01*
Y925270D01*
X428040D01*
Y933040D01*
D02*
G37*
G36*
X417730D02*
X409960D01*
Y925270D01*
X417730D01*
Y933040D01*
D02*
G37*
G36*
X47361Y931630D02*
X34770D01*
Y919039D01*
X39125D01*
X41257Y919320D01*
X43243Y920143D01*
X44948Y921451D01*
X46257Y923157D01*
X47080Y925143D01*
X47361Y927275D01*
Y931630D01*
D02*
G37*
G36*
X32230D02*
X19640D01*
Y927275D01*
X19920Y925143D01*
X20743Y923157D01*
X22052Y921451D01*
X23757Y920143D01*
X25744Y919320D01*
X27875Y919039D01*
X32230D01*
Y931630D01*
D02*
G37*
G36*
X1410791Y925565D02*
X1410670D01*
Y916270D01*
X1419965D01*
Y916391D01*
X1419245Y919078D01*
X1417854Y921487D01*
X1415887Y923454D01*
X1413478Y924845D01*
X1410791Y925565D01*
D02*
G37*
G36*
X1408130D02*
X1408009D01*
X1405322Y924845D01*
X1402913Y923454D01*
X1400946Y921487D01*
X1399555Y919078D01*
X1398835Y916391D01*
Y916270D01*
X1408130D01*
Y925565D01*
D02*
G37*
G36*
X1260191Y924565D02*
X1260070D01*
Y915270D01*
X1269365D01*
Y915391D01*
X1268645Y918078D01*
X1267254Y920487D01*
X1265287Y922454D01*
X1262878Y923845D01*
X1260191Y924565D01*
D02*
G37*
G36*
X1111791D02*
X1111670D01*
Y915270D01*
X1120965D01*
Y915391D01*
X1120245Y918078D01*
X1118854Y920487D01*
X1116887Y922454D01*
X1114478Y923845D01*
X1111791Y924565D01*
D02*
G37*
G36*
X1257530D02*
X1257409D01*
X1254722Y923845D01*
X1252313Y922454D01*
X1250346Y920487D01*
X1248955Y918078D01*
X1248235Y915391D01*
Y915270D01*
X1257530D01*
Y924565D01*
D02*
G37*
G36*
X1109130D02*
X1109009D01*
X1106322Y923845D01*
X1103913Y922454D01*
X1101946Y920487D01*
X1100555Y918078D01*
X1099835Y915391D01*
Y915270D01*
X1109130D01*
Y924565D01*
D02*
G37*
G36*
X428040Y922730D02*
X420270D01*
Y914960D01*
X428040D01*
Y922730D01*
D02*
G37*
G36*
X417730D02*
X409960D01*
Y914960D01*
X417730D01*
Y922730D01*
D02*
G37*
G36*
X974191Y923965D02*
X974070D01*
Y914670D01*
X983365D01*
Y914791D01*
X982645Y917478D01*
X981254Y919887D01*
X979287Y921854D01*
X976878Y923245D01*
X974191Y923965D01*
D02*
G37*
G36*
X1419965Y913730D02*
X1410670D01*
Y904435D01*
X1410791D01*
X1413478Y905155D01*
X1415887Y906546D01*
X1417854Y908513D01*
X1419245Y910922D01*
X1419965Y913609D01*
Y913730D01*
D02*
G37*
G36*
X1408130D02*
X1398835D01*
Y913609D01*
X1399555Y910922D01*
X1400946Y908513D01*
X1402913Y906546D01*
X1405322Y905155D01*
X1408009Y904435D01*
X1408130D01*
Y913730D01*
D02*
G37*
G36*
X1385391Y925565D02*
X1382609D01*
X1379922Y924845D01*
X1377513Y923454D01*
X1375546Y921487D01*
X1374155Y919078D01*
X1373435Y916391D01*
Y913609D01*
X1374155Y910922D01*
X1375546Y908513D01*
X1377513Y906546D01*
X1379922Y905155D01*
X1382609Y904435D01*
X1385391D01*
X1388078Y905155D01*
X1390487Y906546D01*
X1392454Y908513D01*
X1393845Y910922D01*
X1394565Y913609D01*
Y916391D01*
X1393845Y919078D01*
X1392454Y921487D01*
X1390487Y923454D01*
X1388078Y924845D01*
X1385391Y925565D01*
D02*
G37*
G36*
X1269365Y912730D02*
X1260070D01*
Y903435D01*
X1260191D01*
X1262878Y904155D01*
X1265287Y905546D01*
X1267254Y907513D01*
X1268645Y909922D01*
X1269365Y912609D01*
Y912730D01*
D02*
G37*
G36*
X1257530D02*
X1248235D01*
Y912609D01*
X1248955Y909922D01*
X1250346Y907513D01*
X1252313Y905546D01*
X1254722Y904155D01*
X1257409Y903435D01*
X1257530D01*
Y912730D01*
D02*
G37*
G36*
X1234791Y924565D02*
X1232009D01*
X1229322Y923845D01*
X1226913Y922454D01*
X1224946Y920487D01*
X1223555Y918078D01*
X1222835Y915391D01*
Y912609D01*
X1223555Y909922D01*
X1224946Y907513D01*
X1226913Y905546D01*
X1229322Y904155D01*
X1232009Y903435D01*
X1234791D01*
X1237478Y904155D01*
X1239887Y905546D01*
X1241854Y907513D01*
X1243245Y909922D01*
X1243965Y912609D01*
Y915391D01*
X1243245Y918078D01*
X1241854Y920487D01*
X1239887Y922454D01*
X1237478Y923845D01*
X1234791Y924565D01*
D02*
G37*
G36*
X1120965Y912730D02*
X1111670D01*
Y903435D01*
X1111791D01*
X1114478Y904155D01*
X1116887Y905546D01*
X1118854Y907513D01*
X1120245Y909922D01*
X1120965Y912609D01*
Y912730D01*
D02*
G37*
G36*
X1109130D02*
X1099835D01*
Y912609D01*
X1100555Y909922D01*
X1101946Y907513D01*
X1103913Y905546D01*
X1106322Y904155D01*
X1109009Y903435D01*
X1109130D01*
Y912730D01*
D02*
G37*
G36*
X983365Y912130D02*
X974070D01*
Y902835D01*
X974191D01*
X976878Y903555D01*
X979287Y904946D01*
X981254Y906913D01*
X982645Y909322D01*
X983365Y912009D01*
Y912130D01*
D02*
G37*
G36*
X1408130Y900165D02*
X1408009D01*
X1405322Y899445D01*
X1402913Y898054D01*
X1400946Y896087D01*
X1399983Y894419D01*
X1398260Y893386D01*
X1395148Y892684D01*
X1393908Y893441D01*
X1393845Y893678D01*
X1392454Y896087D01*
X1390487Y898054D01*
X1388078Y899445D01*
X1385391Y900165D01*
X1382609D01*
X1379922Y899445D01*
X1377513Y898054D01*
X1375546Y896087D01*
X1374155Y893678D01*
X1373435Y890991D01*
Y888209D01*
X1374155Y885522D01*
X1375546Y883113D01*
X1377513Y881146D01*
X1379922Y879755D01*
X1382609Y879035D01*
X1383810D01*
X1392493Y870351D01*
X1392653Y869675D01*
X1391713Y865475D01*
X1391296Y865234D01*
X1389566Y863504D01*
X1388343Y861386D01*
X1387723Y859070D01*
X1397000D01*
X1406333D01*
X1409467Y862491D01*
X1411024Y862697D01*
X1440195Y833526D01*
Y718006D01*
X1439646Y717457D01*
X1438304Y715133D01*
X1437610Y712542D01*
Y709858D01*
X1438304Y707267D01*
X1439646Y704943D01*
X1440195Y704394D01*
Y692606D01*
X1439646Y692057D01*
X1438304Y689733D01*
X1437610Y687142D01*
Y684458D01*
X1438304Y681867D01*
X1439646Y679543D01*
X1441543Y677646D01*
X1443867Y676304D01*
X1446458Y675610D01*
X1447235D01*
X1480835Y642010D01*
Y519977D01*
X1477271Y517588D01*
X1476835Y517575D01*
X1474542Y518190D01*
X1471858D01*
X1469267Y517496D01*
X1466943Y516154D01*
X1465046Y514257D01*
X1463704Y511933D01*
X1463010Y509342D01*
Y506658D01*
X1463704Y504067D01*
X1465046Y501743D01*
X1466943Y499846D01*
X1469267Y498504D01*
X1469315Y498491D01*
Y492109D01*
X1469267Y492096D01*
X1466943Y490754D01*
X1465046Y488857D01*
X1463704Y486533D01*
X1463010Y483942D01*
Y481258D01*
X1463704Y478667D01*
X1463730Y478623D01*
X1459445Y474339D01*
X1459395Y474326D01*
X1456397Y477110D01*
X1457296Y478667D01*
X1457990Y481258D01*
Y483942D01*
X1457296Y486533D01*
X1455954Y488857D01*
X1454057Y490754D01*
X1451733Y492096D01*
X1451685Y492109D01*
Y498491D01*
X1451733Y498504D01*
X1454057Y499846D01*
X1455954Y501743D01*
X1457296Y504067D01*
X1457990Y506658D01*
Y509342D01*
X1457296Y511933D01*
X1455954Y514257D01*
X1454057Y516154D01*
X1451733Y517496D01*
X1449142Y518190D01*
X1446458D01*
X1443867Y517496D01*
X1441543Y516154D01*
X1439646Y514257D01*
X1438304Y511933D01*
X1437610Y509342D01*
Y506658D01*
X1438304Y504067D01*
X1439646Y501743D01*
X1441543Y499846D01*
X1443867Y498504D01*
X1443915Y498491D01*
Y492109D01*
X1443867Y492096D01*
X1441543Y490754D01*
X1439646Y488857D01*
X1438304Y486533D01*
X1437610Y483942D01*
Y481258D01*
X1438304Y478667D01*
X1438330Y478623D01*
X1433497Y473790D01*
X1430554Y476343D01*
X1431130Y477341D01*
X1431896Y478667D01*
X1432590Y481258D01*
Y481330D01*
X1423670D01*
Y472410D01*
X1423742D01*
X1426333Y473104D01*
X1428657Y474446D01*
X1431210Y471503D01*
X1315889Y356183D01*
X1301098D01*
X1299612Y355887D01*
X1298351Y355045D01*
X1280755Y337448D01*
X1280722Y337467D01*
X1278138Y338160D01*
X1275462D01*
X1272878Y337467D01*
X1270562Y336130D01*
X1268670Y334238D01*
X1267333Y331922D01*
X1266640Y329337D01*
Y326662D01*
X1267333Y324078D01*
X1268670Y321762D01*
X1270562Y319870D01*
X1272878Y318532D01*
X1275462Y317840D01*
X1278138D01*
X1280722Y318532D01*
X1283038Y319870D01*
X1284930Y321762D01*
X1286268Y324078D01*
X1286960Y326662D01*
Y329337D01*
X1286268Y331922D01*
X1286249Y331955D01*
X1290504Y336210D01*
X1290602Y336231D01*
X1293500Y333251D01*
X1292733Y331922D01*
X1292040Y329337D01*
Y326662D01*
X1292733Y324078D01*
X1294070Y321762D01*
X1295962Y319870D01*
X1298279Y318532D01*
X1300862Y317840D01*
X1303538D01*
X1306122Y318532D01*
X1308439Y319870D01*
X1310330Y321762D01*
X1311668Y324078D01*
X1311678Y324115D01*
X1318600D01*
X1320086Y324411D01*
X1321347Y325253D01*
X1469223Y473130D01*
X1469267Y473104D01*
X1471858Y472410D01*
X1474542D01*
X1476835Y473024D01*
X1477271Y473012D01*
X1480835Y470623D01*
Y381990D01*
X1437005Y338160D01*
X1436262D01*
X1433678Y337467D01*
X1431362Y336130D01*
X1429470Y334238D01*
X1428132Y331922D01*
X1427931Y331170D01*
X1426183Y330066D01*
X1421732Y331681D01*
X1421667Y331922D01*
X1420330Y334238D01*
X1418438Y336130D01*
X1416122Y337467D01*
X1413537Y338160D01*
X1413470D01*
Y328000D01*
X1412200D01*
Y326730D01*
X1402040D01*
Y326662D01*
X1402732Y324078D01*
X1404070Y321762D01*
X1405961Y319870D01*
X1408278Y318532D01*
X1410862Y317840D01*
X1411028D01*
X1412685Y313840D01*
X1397450Y298605D01*
X1280150D01*
X1259300Y319455D01*
Y321531D01*
X1259530Y321762D01*
X1260868Y324078D01*
X1261560Y326662D01*
Y329337D01*
X1260868Y331922D01*
X1259530Y334238D01*
X1257638Y336130D01*
X1255322Y337467D01*
X1252738Y338160D01*
X1250062D01*
X1247478Y337467D01*
X1245162Y336130D01*
X1243270Y334238D01*
X1241933Y331922D01*
X1241240Y329337D01*
Y326662D01*
X1241933Y324078D01*
X1243270Y321762D01*
X1244090Y320942D01*
Y316305D01*
X1244349Y314337D01*
X1245109Y312503D01*
X1246317Y310928D01*
X1271622Y285622D01*
X1273197Y284414D01*
X1275032Y283654D01*
X1277000Y283395D01*
X1400600D01*
X1402568Y283654D01*
X1404403Y284414D01*
X1405978Y285622D01*
X1438195Y317840D01*
X1438938D01*
X1441521Y318532D01*
X1443838Y319870D01*
X1445730Y321762D01*
X1447068Y324078D01*
X1447269Y324829D01*
X1449017Y325933D01*
X1453468Y324319D01*
X1453532Y324078D01*
X1454870Y321762D01*
X1456761Y319870D01*
X1459078Y318532D01*
X1461662Y317840D01*
X1464337D01*
X1466922Y318532D01*
X1469238Y319870D01*
X1471130Y321762D01*
X1472467Y324078D01*
X1473160Y326662D01*
Y329337D01*
X1472467Y331922D01*
X1471130Y334238D01*
X1469238Y336130D01*
X1466922Y337467D01*
X1464337Y338160D01*
X1464172D01*
X1462515Y342160D01*
X1493818Y373462D01*
X1495026Y375037D01*
X1495786Y376872D01*
X1496045Y378840D01*
Y645160D01*
X1495786Y647128D01*
X1495026Y648962D01*
X1493818Y650538D01*
X1472745Y671610D01*
X1474402Y675610D01*
X1474542D01*
X1477133Y676304D01*
X1479457Y677646D01*
X1481354Y679543D01*
X1482696Y681867D01*
X1483390Y684458D01*
Y687142D01*
X1482696Y689733D01*
X1481354Y692057D01*
X1479457Y693954D01*
X1477133Y695296D01*
X1477085Y695309D01*
Y701691D01*
X1477133Y701704D01*
X1479457Y703046D01*
X1481354Y704943D01*
X1482696Y707267D01*
X1483390Y709858D01*
Y712542D01*
X1482696Y715133D01*
X1481354Y717457D01*
X1479457Y719354D01*
X1477133Y720696D01*
X1474542Y721390D01*
X1471858D01*
X1469267Y720696D01*
X1466943Y719354D01*
X1465046Y717457D01*
X1463704Y715133D01*
X1463010Y712542D01*
Y709858D01*
X1463704Y707267D01*
X1465046Y704943D01*
X1466943Y703046D01*
X1469267Y701704D01*
X1469315Y701691D01*
Y695309D01*
X1469267Y695296D01*
X1466943Y693954D01*
X1465046Y692057D01*
X1463704Y689733D01*
X1463671Y689609D01*
X1459173Y687974D01*
X1457481Y689041D01*
X1457296Y689733D01*
X1455954Y692057D01*
X1455405Y692606D01*
Y704394D01*
X1455954Y704943D01*
X1457296Y707267D01*
X1457990Y709858D01*
Y712542D01*
X1457296Y715133D01*
X1455954Y717457D01*
X1455405Y718006D01*
Y836676D01*
X1455146Y838644D01*
X1454386Y840479D01*
X1453178Y842054D01*
X1417673Y877558D01*
X1417416Y878074D01*
X1417195Y880558D01*
X1417544Y882803D01*
X1417854Y883113D01*
X1419245Y885522D01*
X1419965Y888209D01*
Y888330D01*
X1409400D01*
Y889600D01*
X1408130D01*
Y900165D01*
D02*
G37*
G36*
X1410791D02*
X1410670D01*
Y890870D01*
X1419965D01*
Y890991D01*
X1419245Y893678D01*
X1417854Y896087D01*
X1415887Y898054D01*
X1413478Y899445D01*
X1410791Y900165D01*
D02*
G37*
G36*
X1260191Y899165D02*
X1260070D01*
Y889870D01*
X1269365D01*
Y889991D01*
X1268645Y892678D01*
X1267254Y895087D01*
X1265287Y897054D01*
X1262878Y898445D01*
X1260191Y899165D01*
D02*
G37*
G36*
X1111791D02*
X1111670D01*
Y889870D01*
X1120965D01*
Y889991D01*
X1120245Y892678D01*
X1118854Y895087D01*
X1116887Y897054D01*
X1114478Y898445D01*
X1111791Y899165D01*
D02*
G37*
G36*
X1257530D02*
X1257409D01*
X1254722Y898445D01*
X1252313Y897054D01*
X1250346Y895087D01*
X1248955Y892678D01*
X1248235Y889991D01*
Y889870D01*
X1257530D01*
Y899165D01*
D02*
G37*
G36*
X1109130D02*
X1109009D01*
X1106322Y898445D01*
X1103913Y897054D01*
X1101946Y895087D01*
X1100555Y892678D01*
X1099835Y889991D01*
Y889870D01*
X1109130D01*
Y899165D01*
D02*
G37*
G36*
X974191Y898565D02*
X974070D01*
Y889270D01*
X983365D01*
Y889391D01*
X982645Y892078D01*
X981254Y894487D01*
X979287Y896454D01*
X976878Y897845D01*
X974191Y898565D01*
D02*
G37*
G36*
X1359991Y925565D02*
X1357209D01*
X1354522Y924845D01*
X1352113Y923454D01*
X1350146Y921487D01*
X1348755Y919078D01*
X1348035Y916391D01*
Y913609D01*
X1348755Y910922D01*
X1350146Y908513D01*
X1352113Y906546D01*
X1354522Y905155D01*
X1354715Y905103D01*
Y899497D01*
X1354522Y899445D01*
X1352113Y898054D01*
X1350146Y896087D01*
X1348755Y893678D01*
X1348035Y890991D01*
Y888209D01*
X1348755Y885522D01*
X1350146Y883113D01*
X1352113Y881146D01*
X1354522Y879755D01*
X1357209Y879035D01*
X1359991D01*
X1362678Y879755D01*
X1365087Y881146D01*
X1367054Y883113D01*
X1368445Y885522D01*
X1369165Y888209D01*
Y890991D01*
X1368445Y893678D01*
X1367054Y896087D01*
X1365087Y898054D01*
X1362678Y899445D01*
X1362484Y899497D01*
Y905103D01*
X1362678Y905155D01*
X1365087Y906546D01*
X1367054Y908513D01*
X1368445Y910922D01*
X1369165Y913609D01*
Y916391D01*
X1368445Y919078D01*
X1367054Y921487D01*
X1365087Y923454D01*
X1362678Y924845D01*
X1359991Y925565D01*
D02*
G37*
G36*
X1343765D02*
X1322635D01*
Y904435D01*
X1329315D01*
Y899497D01*
X1329122Y899445D01*
X1326713Y898054D01*
X1324746Y896087D01*
X1323355Y893678D01*
X1322635Y890991D01*
Y888209D01*
X1323355Y885522D01*
X1324746Y883113D01*
X1326713Y881146D01*
X1329122Y879755D01*
X1331809Y879035D01*
X1334591D01*
X1337278Y879755D01*
X1339687Y881146D01*
X1341654Y883113D01*
X1343045Y885522D01*
X1343765Y888209D01*
Y890991D01*
X1343045Y893678D01*
X1341654Y896087D01*
X1339687Y898054D01*
X1337278Y899445D01*
X1337084Y899497D01*
Y904435D01*
X1343765D01*
Y925565D01*
D02*
G37*
G36*
X1269365Y887330D02*
X1260070D01*
Y878035D01*
X1260191D01*
X1262878Y878755D01*
X1265287Y880146D01*
X1267254Y882113D01*
X1268645Y884522D01*
X1269365Y887209D01*
Y887330D01*
D02*
G37*
G36*
X1257530D02*
X1248235D01*
Y887209D01*
X1248955Y884522D01*
X1250346Y882113D01*
X1252313Y880146D01*
X1254722Y878755D01*
X1257409Y878035D01*
X1257530D01*
Y887330D01*
D02*
G37*
G36*
X1234791Y899165D02*
X1232009D01*
X1229322Y898445D01*
X1226913Y897054D01*
X1224946Y895087D01*
X1223555Y892678D01*
X1222835Y889991D01*
Y887209D01*
X1223555Y884522D01*
X1224946Y882113D01*
X1226913Y880146D01*
X1229322Y878755D01*
X1232009Y878035D01*
X1234791D01*
X1237478Y878755D01*
X1239887Y880146D01*
X1241854Y882113D01*
X1243245Y884522D01*
X1243965Y887209D01*
Y889991D01*
X1243245Y892678D01*
X1241854Y895087D01*
X1239887Y897054D01*
X1237478Y898445D01*
X1234791Y899165D01*
D02*
G37*
G36*
X1209391Y924565D02*
X1206609D01*
X1203922Y923845D01*
X1201513Y922454D01*
X1199546Y920487D01*
X1198155Y918078D01*
X1197435Y915391D01*
Y912609D01*
X1198155Y909922D01*
X1199546Y907513D01*
X1201513Y905546D01*
X1203922Y904155D01*
X1204116Y904103D01*
Y898497D01*
X1203922Y898445D01*
X1201513Y897054D01*
X1199546Y895087D01*
X1198155Y892678D01*
X1197435Y889991D01*
Y887209D01*
X1198155Y884522D01*
X1199546Y882113D01*
X1201513Y880146D01*
X1203922Y878755D01*
X1206609Y878035D01*
X1209391D01*
X1212078Y878755D01*
X1214487Y880146D01*
X1216454Y882113D01*
X1217845Y884522D01*
X1218565Y887209D01*
Y889991D01*
X1217845Y892678D01*
X1216454Y895087D01*
X1214487Y897054D01*
X1212078Y898445D01*
X1211885Y898497D01*
Y904103D01*
X1212078Y904155D01*
X1214487Y905546D01*
X1216454Y907513D01*
X1217845Y909922D01*
X1218565Y912609D01*
Y915391D01*
X1217845Y918078D01*
X1216454Y920487D01*
X1214487Y922454D01*
X1212078Y923845D01*
X1209391Y924565D01*
D02*
G37*
G36*
X1120965Y887330D02*
X1111670D01*
Y878035D01*
X1111791D01*
X1114478Y878755D01*
X1116887Y880146D01*
X1118854Y882113D01*
X1120245Y884522D01*
X1120965Y887209D01*
Y887330D01*
D02*
G37*
G36*
X1109130D02*
X1099835D01*
Y887209D01*
X1100555Y884522D01*
X1101946Y882113D01*
X1103913Y880146D01*
X1106322Y878755D01*
X1109009Y878035D01*
X1109130D01*
Y887330D01*
D02*
G37*
G36*
X983365Y886730D02*
X974070D01*
Y877435D01*
X974191D01*
X976878Y878155D01*
X979287Y879546D01*
X981254Y881513D01*
X982645Y883922D01*
X983365Y886609D01*
Y886730D01*
D02*
G37*
G36*
X923391Y923965D02*
X920609D01*
X917922Y923245D01*
X915513Y921854D01*
X913546Y919887D01*
X912155Y917478D01*
X911435Y914791D01*
Y912009D01*
X912155Y909322D01*
X913546Y906913D01*
X915513Y904946D01*
X917922Y903555D01*
X918115Y903503D01*
Y897897D01*
X917922Y897845D01*
X915513Y896454D01*
X913546Y894487D01*
X912155Y892078D01*
X911435Y889391D01*
Y886609D01*
X912155Y883922D01*
X913546Y881513D01*
X915513Y879546D01*
X917922Y878155D01*
X920609Y877435D01*
X923391D01*
X926078Y878155D01*
X928487Y879546D01*
X930454Y881513D01*
X931845Y883922D01*
X932565Y886609D01*
Y889391D01*
X931845Y892078D01*
X930454Y894487D01*
X928487Y896454D01*
X926078Y897845D01*
X925885Y897897D01*
Y903503D01*
X926078Y903555D01*
X928487Y904946D01*
X930454Y906913D01*
X931845Y909322D01*
X932565Y912009D01*
Y914791D01*
X931845Y917478D01*
X930454Y919887D01*
X928487Y921854D01*
X926078Y923245D01*
X923391Y923965D01*
D02*
G37*
G36*
X372388Y1007940D02*
X369612D01*
X366932Y1007222D01*
X364528Y1005834D01*
X362566Y1003872D01*
X361178Y1001468D01*
X360460Y998788D01*
Y996012D01*
X360858Y994526D01*
X354252Y987920D01*
X353138Y986253D01*
X352747Y984286D01*
Y912814D01*
X353138Y910847D01*
X354252Y909180D01*
X357160Y906273D01*
Y892460D01*
X370973D01*
X375607Y887825D01*
Y872224D01*
X371777Y869827D01*
X371607Y869865D01*
X369088Y870540D01*
X368970D01*
Y860000D01*
Y849460D01*
X369088D01*
X371607Y850135D01*
X371777Y850173D01*
X375607Y847776D01*
Y786227D01*
X364666Y775286D01*
X363552Y773618D01*
X363161Y771652D01*
Y723220D01*
X359835Y720906D01*
X359161Y720795D01*
X356942Y721390D01*
X354258D01*
X351667Y720696D01*
X349343Y719354D01*
X347446Y717457D01*
X346104Y715133D01*
X345410Y712542D01*
Y709858D01*
X346104Y707267D01*
X347446Y704943D01*
X349343Y703046D01*
X351667Y701704D01*
X351715Y701691D01*
Y695309D01*
X351667Y695296D01*
X349343Y693954D01*
X347446Y692057D01*
X346104Y689733D01*
X345410Y687142D01*
Y684458D01*
X346104Y681867D01*
X347446Y679543D01*
X349343Y677646D01*
X351667Y676304D01*
X354258Y675610D01*
X356942D01*
X359161Y676205D01*
X359835Y676095D01*
X363161Y673780D01*
Y520020D01*
X359835Y517705D01*
X359161Y517595D01*
X356942Y518190D01*
X354258D01*
X351667Y517496D01*
X349343Y516154D01*
X347446Y514257D01*
X346104Y511933D01*
X345410Y509342D01*
Y506658D01*
X346104Y504067D01*
X347446Y501743D01*
X349343Y499846D01*
X351667Y498504D01*
X351715Y498491D01*
Y492109D01*
X351667Y492096D01*
X349343Y490754D01*
X347446Y488857D01*
X346104Y486533D01*
X345410Y483942D01*
Y481258D01*
X346104Y478667D01*
X347003Y477110D01*
X344005Y474326D01*
X343955Y474339D01*
X339670Y478623D01*
X339696Y478667D01*
X340390Y481258D01*
Y483942D01*
X339696Y486533D01*
X338354Y488857D01*
X336457Y490754D01*
X334133Y492096D01*
X334085Y492109D01*
Y498491D01*
X334133Y498504D01*
X336457Y499846D01*
X338354Y501743D01*
X339696Y504067D01*
X340390Y506658D01*
Y509342D01*
X339696Y511933D01*
X338354Y514257D01*
X336457Y516154D01*
X334133Y517496D01*
X331542Y518190D01*
X328858D01*
X326267Y517496D01*
X323943Y516154D01*
X322046Y514257D01*
X320704Y511933D01*
X320010Y509342D01*
Y506658D01*
X320704Y504067D01*
X322046Y501743D01*
X323943Y499846D01*
X326267Y498504D01*
X326315Y498491D01*
Y492109D01*
X326267Y492096D01*
X323943Y490754D01*
X322046Y488857D01*
X320704Y486533D01*
X320010Y483942D01*
Y481258D01*
X320704Y478667D01*
X322046Y476343D01*
X319103Y473790D01*
X314270Y478623D01*
X314296Y478667D01*
X314990Y481258D01*
Y483942D01*
X314296Y486533D01*
X312954Y488857D01*
X311057Y490754D01*
X308733Y492096D01*
X308685Y492109D01*
Y498491D01*
X308733Y498504D01*
X311057Y499846D01*
X312954Y501743D01*
X314296Y504067D01*
X314990Y506658D01*
Y509342D01*
X314296Y511933D01*
X312954Y514257D01*
X311057Y516154D01*
X308733Y517496D01*
X306142Y518190D01*
X303458D01*
X300867Y517496D01*
X298543Y516154D01*
X296646Y514257D01*
X295304Y511933D01*
X294610Y509342D01*
Y506658D01*
X295304Y504067D01*
X296646Y501743D01*
X298543Y499846D01*
X300867Y498504D01*
X300915Y498491D01*
Y492109D01*
X300867Y492096D01*
X298543Y490754D01*
X296646Y488857D01*
X295304Y486533D01*
X294610Y483942D01*
Y481258D01*
X295304Y478667D01*
X296646Y476343D01*
X298543Y474446D01*
X300867Y473104D01*
X303458Y472410D01*
X306142D01*
X308733Y473104D01*
X308777Y473130D01*
X327115Y454791D01*
Y392568D01*
X324840Y391254D01*
X322972Y389386D01*
X321651Y387098D01*
X320967Y384546D01*
Y381905D01*
X321651Y379353D01*
X322972Y377065D01*
X324840Y375197D01*
X327127Y373876D01*
X329679Y373192D01*
X332321D01*
X334873Y373876D01*
X337160Y375197D01*
X339029Y377065D01*
X340349Y379353D01*
X341033Y381905D01*
Y384546D01*
X340349Y387098D01*
X339029Y389386D01*
X337160Y391254D01*
X334885Y392568D01*
Y456400D01*
X334589Y457887D01*
X333747Y459147D01*
X321390Y471503D01*
X323943Y474446D01*
X324941Y473870D01*
X326267Y473104D01*
X328858Y472410D01*
X331542D01*
X334133Y473104D01*
X334177Y473130D01*
X352115Y455191D01*
Y392568D01*
X349839Y391254D01*
X347971Y389386D01*
X346651Y387098D01*
X345967Y384546D01*
Y381905D01*
X346651Y379353D01*
X347971Y377065D01*
X349839Y375197D01*
X352127Y373876D01*
X354679Y373192D01*
X357321D01*
X359415Y373754D01*
X360533Y373396D01*
X363415Y371303D01*
Y314083D01*
X357454Y308121D01*
X356823Y308290D01*
X354377D01*
X352014Y307657D01*
X349896Y306434D01*
X348166Y304704D01*
X346943Y302586D01*
X346310Y300223D01*
Y297777D01*
X346943Y295414D01*
X348166Y293296D01*
X349896Y291566D01*
X352014Y290343D01*
X354377Y289710D01*
X354734D01*
X356391Y285710D01*
X291868Y221187D01*
X288667Y223643D01*
X289524Y225127D01*
X290208Y227679D01*
Y227730D01*
X281445D01*
Y218967D01*
X281496D01*
X284047Y219650D01*
X285532Y220508D01*
X287987Y217307D01*
X284034Y213353D01*
X281496Y214033D01*
X278854D01*
X276302Y213349D01*
X274014Y212029D01*
X272146Y210161D01*
X270825Y207873D01*
X270142Y205321D01*
Y202679D01*
X270825Y200128D01*
X272146Y197840D01*
X274014Y195972D01*
X276302Y194651D01*
X278854Y193967D01*
X281496D01*
X283707Y194560D01*
X284266Y194501D01*
X287707Y192145D01*
Y140801D01*
X206644Y59738D01*
X204454Y60325D01*
X201946D01*
X199524Y59676D01*
X197351Y58422D01*
X195578Y56649D01*
X194324Y54476D01*
X193675Y52054D01*
Y49546D01*
X193842Y48923D01*
X191097Y45675D01*
X190121Y45694D01*
X187248Y49259D01*
X187325Y49546D01*
Y52054D01*
X186676Y54476D01*
X185422Y56649D01*
X183648Y58422D01*
X181476Y59676D01*
X179054Y60325D01*
X176546D01*
X174123Y59676D01*
X171952Y58422D01*
X170178Y56649D01*
X168924Y54476D01*
X168275Y52054D01*
Y49546D01*
X168924Y47123D01*
X170178Y44952D01*
X171952Y43178D01*
X174123Y41924D01*
X176546Y41275D01*
X179054D01*
X181244Y41862D01*
X185975Y37131D01*
X187235Y36289D01*
X188722Y35993D01*
X283744D01*
X285231Y36289D01*
X286491Y37131D01*
X294645Y45285D01*
X297178Y44952D01*
X298951Y43178D01*
X299975Y42587D01*
Y38967D01*
X300444Y36610D01*
X301779Y34612D01*
X310746Y25645D01*
X312744Y24310D01*
X315100Y23842D01*
X355000D01*
X357357Y24310D01*
X359355Y25645D01*
X422730Y89021D01*
Y97730D01*
X414021D01*
X352449Y36158D01*
X317651D01*
X312292Y41518D01*
Y44822D01*
X312422Y44952D01*
X313676Y47123D01*
X314321Y49530D01*
X304800D01*
Y52070D01*
X314321D01*
X313676Y54476D01*
X312422Y56649D01*
X310648Y58422D01*
X309163Y59279D01*
X308305Y61806D01*
X308136Y63908D01*
X320247Y76020D01*
X321089Y77280D01*
X321385Y78766D01*
Y94732D01*
X325343Y95414D01*
X326566Y93296D01*
X328296Y91566D01*
X330414Y90343D01*
X332777Y89710D01*
X335223D01*
X337586Y90343D01*
X339704Y91566D01*
X341434Y93296D01*
X342657Y95414D01*
X343290Y97777D01*
Y100223D01*
X342657Y102586D01*
X341766Y104129D01*
X342442Y106252D01*
X343666Y108129D01*
X405638D01*
X407125Y108425D01*
X408385Y109267D01*
X510747Y211629D01*
X511589Y212889D01*
X511799Y213947D01*
X515799Y213553D01*
Y63779D01*
X512489Y60525D01*
X509847D01*
X507295Y59841D01*
X505008Y58520D01*
X503139Y56652D01*
X501819Y54365D01*
X501135Y51813D01*
Y49171D01*
X501819Y46620D01*
X503139Y44332D01*
X505008Y42464D01*
X507295Y41143D01*
X509847Y40459D01*
X512489D01*
X515041Y41143D01*
X517328Y42464D01*
X519196Y44332D01*
X520517Y46620D01*
X521201Y49171D01*
Y51813D01*
X520521Y54351D01*
X522431Y56261D01*
X523273Y57522D01*
X523569Y59008D01*
Y194360D01*
X527569Y196017D01*
X528014Y195571D01*
X530302Y194251D01*
X532854Y193567D01*
X535496D01*
X538047Y194251D01*
X540335Y195571D01*
X542203Y197439D01*
X542683Y198270D01*
X546683Y197199D01*
Y71763D01*
X535445Y60525D01*
X534847D01*
X532295Y59841D01*
X530007Y58520D01*
X528139Y56652D01*
X526818Y54365D01*
X526135Y51813D01*
Y49171D01*
X526818Y46620D01*
X528139Y44332D01*
X530007Y42464D01*
X532295Y41143D01*
X534847Y40459D01*
X537489D01*
X540040Y41143D01*
X542328Y42464D01*
X544196Y44332D01*
X545517Y46620D01*
X546201Y49171D01*
Y49770D01*
X559665Y63235D01*
X560874Y64810D01*
X561634Y66644D01*
X561893Y68612D01*
Y233487D01*
X561634Y235455D01*
X561189Y236530D01*
X560874Y237290D01*
X559665Y238864D01*
X544208Y254322D01*
Y254921D01*
X543524Y257473D01*
X542203Y259761D01*
X540335Y261629D01*
X538047Y262950D01*
X535496Y263633D01*
X532854D01*
X530302Y262950D01*
X530146Y262859D01*
X525722Y264711D01*
X525397Y266412D01*
X574247Y315261D01*
X575089Y316521D01*
X575385Y318008D01*
Y468010D01*
X579385Y470215D01*
X580315Y469627D01*
Y177800D01*
X580611Y176313D01*
X581453Y175053D01*
X650952Y105555D01*
X650932Y105522D01*
X650240Y102938D01*
Y100262D01*
X650932Y97678D01*
X652270Y95362D01*
X654162Y93470D01*
X656478Y92132D01*
X659062Y91440D01*
X661738D01*
X664322Y92132D01*
X666638Y93470D01*
X668530Y95362D01*
X669868Y97678D01*
X670560Y100262D01*
Y102938D01*
X669868Y105522D01*
X668530Y107838D01*
X666638Y109730D01*
X664322Y111068D01*
X661738Y111760D01*
X659062D01*
X656478Y111068D01*
X656445Y111048D01*
X651536Y115957D01*
X654162Y118870D01*
X655182Y118281D01*
X656478Y117532D01*
X659062Y116840D01*
X661738D01*
X664322Y117532D01*
X666638Y118870D01*
X668530Y120762D01*
X669868Y123078D01*
X670560Y125662D01*
Y128338D01*
X669868Y130922D01*
X668530Y133238D01*
X666638Y135130D01*
X664322Y136468D01*
X661738Y137160D01*
X659062D01*
X656478Y136468D01*
X654162Y135130D01*
X652270Y133238D01*
X650932Y130922D01*
X650240Y128338D01*
Y125662D01*
X650932Y123078D01*
X652270Y120762D01*
X649357Y118136D01*
X588085Y179409D01*
Y473091D01*
X588133Y473104D01*
X590457Y474446D01*
X592354Y476343D01*
X593696Y478667D01*
X594390Y481258D01*
Y483942D01*
X593696Y486533D01*
X592354Y488857D01*
X590457Y490754D01*
X588133Y492096D01*
X588085Y492109D01*
Y498491D01*
X588133Y498504D01*
X590457Y499846D01*
X592354Y501743D01*
X593696Y504067D01*
X594390Y506658D01*
Y509342D01*
X593696Y511933D01*
X592354Y514257D01*
X590457Y516154D01*
X588133Y517496D01*
X585542Y518190D01*
X582858D01*
X580267Y517496D01*
X579385Y516986D01*
X575688Y518746D01*
X575385Y519094D01*
Y596900D01*
X575089Y598387D01*
X574247Y599647D01*
X562685Y611209D01*
Y676291D01*
X562733Y676304D01*
X565057Y677646D01*
X566954Y679543D01*
X568296Y681867D01*
X568990Y684458D01*
Y687142D01*
X568296Y689733D01*
X566954Y692057D01*
X565057Y693954D01*
X562733Y695296D01*
X562685Y695309D01*
Y701691D01*
X562733Y701704D01*
X565057Y703046D01*
X566954Y704943D01*
X568296Y707267D01*
X568990Y709858D01*
Y712542D01*
X568296Y715133D01*
X566954Y717457D01*
X565057Y719354D01*
X562733Y720696D01*
X560142Y721390D01*
X557458D01*
X554867Y720696D01*
X552543Y719354D01*
X550646Y717457D01*
X549304Y715133D01*
X548610Y712542D01*
Y709858D01*
X549304Y707267D01*
X550646Y704943D01*
X552543Y703046D01*
X554867Y701704D01*
X554915Y701691D01*
Y695309D01*
X554867Y695296D01*
X552543Y693954D01*
X550646Y692057D01*
X549304Y689733D01*
X548610Y687142D01*
Y684458D01*
X549304Y681867D01*
X550646Y679543D01*
X552543Y677646D01*
X554867Y676304D01*
X554915Y676291D01*
Y609600D01*
X555211Y608113D01*
X556053Y606853D01*
X567615Y595291D01*
Y519094D01*
X567312Y518746D01*
X563615Y516986D01*
X562733Y517496D01*
X560142Y518190D01*
X557458D01*
X554867Y517496D01*
X554823Y517470D01*
X522177Y550117D01*
X520917Y550959D01*
X519430Y551255D01*
X420878D01*
X419391Y550959D01*
X418131Y550117D01*
X389937Y521923D01*
X389095Y520663D01*
X388925Y519809D01*
X387036Y518410D01*
X384933Y517496D01*
X382342Y518190D01*
X379658D01*
X377439Y517595D01*
X376765Y517705D01*
X373439Y520020D01*
Y673780D01*
X376765Y676095D01*
X377439Y676205D01*
X379658Y675610D01*
X382342D01*
X384933Y676304D01*
X387257Y677646D01*
X389154Y679543D01*
X390496Y681867D01*
X391190Y684458D01*
Y687142D01*
X390496Y689733D01*
X389154Y692057D01*
X387257Y693954D01*
X384933Y695296D01*
X384885Y695309D01*
Y701691D01*
X384933Y701704D01*
X387257Y703046D01*
X389154Y704943D01*
X390496Y707267D01*
X391190Y709858D01*
Y712542D01*
X390496Y715133D01*
X389154Y717457D01*
X387257Y719354D01*
X384933Y720696D01*
X382342Y721390D01*
X379658D01*
X377439Y720795D01*
X376765Y720906D01*
X373439Y723220D01*
Y769523D01*
X384380Y780464D01*
X385494Y782132D01*
X385885Y784098D01*
Y889954D01*
X385494Y891920D01*
X384380Y893588D01*
X378240Y899727D01*
Y913540D01*
X364427D01*
X363025Y914942D01*
Y961460D01*
X381540D01*
Y982540D01*
X372764D01*
X370904Y986540D01*
X371174Y986860D01*
X372388D01*
X375068Y987578D01*
X377472Y988966D01*
X379434Y990928D01*
X380822Y993332D01*
X381540Y996012D01*
Y998788D01*
X380822Y1001468D01*
X379434Y1003872D01*
X377472Y1005834D01*
X375068Y1007222D01*
X372388Y1007940D01*
D02*
G37*
G36*
X366430Y870540D02*
X366312D01*
X363632Y869821D01*
X361228Y868434D01*
X359266Y866471D01*
X357878Y864068D01*
X357160Y861387D01*
Y861270D01*
X366430D01*
Y870540D01*
D02*
G37*
G36*
X1234613Y864078D02*
Y856070D01*
X1242620D01*
X1242000Y858386D01*
X1240777Y860505D01*
X1239047Y862234D01*
X1236928Y863457D01*
X1234613Y864078D01*
D02*
G37*
G36*
X1232073D02*
X1229757Y863457D01*
X1227638Y862234D01*
X1225909Y860505D01*
X1224686Y858386D01*
X1224065Y856070D01*
X1232073D01*
Y864078D01*
D02*
G37*
G36*
X1086213Y862078D02*
Y854070D01*
X1094220D01*
X1093600Y856386D01*
X1092377Y858505D01*
X1090647Y860234D01*
X1088529Y861457D01*
X1086213Y862078D01*
D02*
G37*
G36*
X949186Y861069D02*
X946870Y860448D01*
X944752Y859225D01*
X943023Y857496D01*
X941799Y855377D01*
X941179Y853062D01*
X949186D01*
Y861069D01*
D02*
G37*
G36*
X366430Y858730D02*
X357160D01*
Y858612D01*
X357878Y855931D01*
X359266Y853528D01*
X361228Y851566D01*
X363632Y850178D01*
X366312Y849460D01*
X366430D01*
Y858730D01*
D02*
G37*
G36*
X209687Y913540D02*
X206912D01*
X204231Y912822D01*
X201828Y911434D01*
X199866Y909472D01*
X198478Y907068D01*
X197760Y904388D01*
Y901612D01*
X198478Y898932D01*
X199866Y896528D01*
X201828Y894566D01*
X204231Y893178D01*
X204415Y893129D01*
Y870540D01*
X197760D01*
Y849460D01*
X218840D01*
Y870540D01*
X212185D01*
Y893129D01*
X212368Y893178D01*
X214771Y894566D01*
X216734Y896528D01*
X218121Y898932D01*
X218840Y901612D01*
Y904388D01*
X218121Y907068D01*
X216734Y909472D01*
X214771Y911434D01*
X212368Y912822D01*
X209687Y913540D01*
D02*
G37*
G36*
X1406277Y856530D02*
X1398270D01*
Y848523D01*
X1400586Y849143D01*
X1402704Y850366D01*
X1404434Y852096D01*
X1405657Y854214D01*
X1406277Y856530D01*
D02*
G37*
G36*
X1395730D02*
X1387723D01*
X1388343Y854214D01*
X1389566Y852096D01*
X1391296Y850366D01*
X1393414Y849143D01*
X1395730Y848523D01*
Y856530D01*
D02*
G37*
G36*
X1369681Y867090D02*
X1367234D01*
X1364872Y866457D01*
X1362753Y865234D01*
X1361024Y863504D01*
X1359801Y861386D01*
X1359167Y859023D01*
Y856577D01*
X1359801Y854214D01*
X1361024Y852096D01*
X1362753Y850366D01*
X1364872Y849143D01*
X1367234Y848510D01*
X1369681D01*
X1372043Y849143D01*
X1374162Y850366D01*
X1375891Y852096D01*
X1377114Y854214D01*
X1377747Y856577D01*
Y859023D01*
X1377114Y861386D01*
X1375891Y863504D01*
X1374162Y865234D01*
X1372043Y866457D01*
X1369681Y867090D01*
D02*
G37*
G36*
X1242620Y853530D02*
X1234613D01*
Y845523D01*
X1236928Y846143D01*
X1239047Y847367D01*
X1240777Y849096D01*
X1242000Y851215D01*
X1242620Y853530D01*
D02*
G37*
G36*
X1232073D02*
X1224065D01*
X1224686Y851215D01*
X1225909Y849096D01*
X1227638Y847367D01*
X1229757Y846143D01*
X1232073Y845523D01*
Y853530D01*
D02*
G37*
G36*
X1193165Y924565D02*
X1172035D01*
Y903435D01*
X1178716D01*
Y898497D01*
X1178522Y898445D01*
X1176113Y897054D01*
X1174146Y895087D01*
X1172755Y892678D01*
X1172035Y889991D01*
Y887209D01*
X1172755Y884522D01*
X1174146Y882113D01*
X1176113Y880146D01*
X1178522Y878755D01*
X1178716Y878703D01*
Y877001D01*
X1179011Y875514D01*
X1179853Y874254D01*
X1196054Y858053D01*
X1195510Y856023D01*
Y853577D01*
X1196143Y851215D01*
X1197366Y849096D01*
X1199096Y847367D01*
X1201214Y846143D01*
X1203577Y845510D01*
X1206023D01*
X1208386Y846143D01*
X1210504Y847367D01*
X1212234Y849096D01*
X1213457Y851215D01*
X1214090Y853577D01*
Y856023D01*
X1213457Y858386D01*
X1212234Y860505D01*
X1210504Y862234D01*
X1208386Y863457D01*
X1206023Y864090D01*
X1203577D01*
X1201548Y863547D01*
X1189391Y875703D01*
X1189087Y880146D01*
X1191054Y882113D01*
X1192445Y884522D01*
X1193165Y887209D01*
Y889991D01*
X1192445Y892678D01*
X1191054Y895087D01*
X1189087Y897054D01*
X1186678Y898445D01*
X1186485Y898497D01*
Y903435D01*
X1193165D01*
Y924565D01*
D02*
G37*
G36*
X1094220Y851530D02*
X1086213D01*
Y843523D01*
X1088529Y844144D01*
X1090647Y845367D01*
X1092377Y847096D01*
X1093600Y849215D01*
X1094220Y851530D01*
D02*
G37*
G36*
X949186Y850521D02*
X941179D01*
X941799Y848206D01*
X943023Y846087D01*
X944752Y844358D01*
X946870Y843135D01*
X949186Y842514D01*
Y850521D01*
D02*
G37*
G36*
X907165Y923965D02*
X886035D01*
Y902835D01*
X892716D01*
Y897897D01*
X892522Y897845D01*
X890113Y896454D01*
X888146Y894487D01*
X886755Y892078D01*
X886035Y889391D01*
Y886609D01*
X886755Y883922D01*
X888146Y881513D01*
X890113Y879546D01*
X892522Y878155D01*
X892716Y878103D01*
Y877114D01*
X893011Y875627D01*
X893853Y874367D01*
X913168Y855053D01*
X912624Y853023D01*
Y850577D01*
X913257Y848214D01*
X914480Y846096D01*
X916210Y844366D01*
X918328Y843143D01*
X920691Y842510D01*
X923137D01*
X925500Y843143D01*
X927618Y844366D01*
X929348Y846096D01*
X930571Y848214D01*
X931204Y850577D01*
Y853023D01*
X930571Y855386D01*
X929348Y857504D01*
X927618Y859234D01*
X925500Y860457D01*
X923137Y861090D01*
X920691D01*
X918661Y860546D01*
X902689Y876519D01*
X903087Y879546D01*
X905054Y881513D01*
X906445Y883922D01*
X907165Y886609D01*
Y889391D01*
X906445Y892078D01*
X905054Y894487D01*
X903087Y896454D01*
X900678Y897845D01*
X900485Y897897D01*
Y902835D01*
X907165D01*
Y923965D01*
D02*
G37*
G36*
X1406290Y777090D02*
X1387710D01*
Y758510D01*
X1406290D01*
Y777090D01*
D02*
G37*
G36*
X1377747D02*
X1359167D01*
Y758510D01*
X1377747D01*
Y777090D01*
D02*
G37*
G36*
X1242633Y774090D02*
X1224053D01*
Y755510D01*
X1242633D01*
Y774090D01*
D02*
G37*
G36*
X1214090D02*
X1195510D01*
Y755510D01*
X1214090D01*
Y774090D01*
D02*
G37*
G36*
X661742Y721390D02*
X661670D01*
Y712470D01*
X670590D01*
Y712542D01*
X669896Y715133D01*
X668554Y717457D01*
X666657Y719354D01*
X664333Y720696D01*
X661742Y721390D01*
D02*
G37*
G36*
X534742D02*
X534670D01*
Y712470D01*
X543590D01*
Y712542D01*
X542896Y715133D01*
X541554Y717457D01*
X539657Y719354D01*
X537333Y720696D01*
X534742Y721390D01*
D02*
G37*
G36*
X1423742D02*
X1423670D01*
Y712470D01*
X1432590D01*
Y712542D01*
X1431896Y715133D01*
X1430554Y717457D01*
X1428657Y719354D01*
X1426333Y720696D01*
X1423742Y721390D01*
D02*
G37*
G36*
X1296742D02*
X1296670D01*
Y712470D01*
X1305590D01*
Y712542D01*
X1304896Y715133D01*
X1303554Y717457D01*
X1301657Y719354D01*
X1299333Y720696D01*
X1296742Y721390D01*
D02*
G37*
G36*
X407742D02*
X407670D01*
Y712470D01*
X416590D01*
Y712542D01*
X415896Y715133D01*
X414554Y717457D01*
X412657Y719354D01*
X410333Y720696D01*
X407742Y721390D01*
D02*
G37*
G36*
X280742D02*
X280670D01*
Y712470D01*
X289590D01*
Y712542D01*
X288896Y715133D01*
X287554Y717457D01*
X285657Y719354D01*
X283333Y720696D01*
X280742Y721390D01*
D02*
G37*
G36*
X1169742D02*
X1169670D01*
Y712470D01*
X1178590D01*
Y712542D01*
X1177896Y715133D01*
X1176554Y717457D01*
X1174657Y719354D01*
X1172333Y720696D01*
X1169742Y721390D01*
D02*
G37*
G36*
X1042742D02*
X1042670D01*
Y712470D01*
X1051590D01*
Y712542D01*
X1050896Y715133D01*
X1049554Y717457D01*
X1047657Y719354D01*
X1045333Y720696D01*
X1042742Y721390D01*
D02*
G37*
G36*
X532130D02*
X532058D01*
X529467Y720696D01*
X527143Y719354D01*
X525246Y717457D01*
X523904Y715133D01*
X523210Y712542D01*
Y712470D01*
X532130D01*
Y721390D01*
D02*
G37*
G36*
X1294130D02*
X1294058D01*
X1291467Y720696D01*
X1289143Y719354D01*
X1287246Y717457D01*
X1285904Y715133D01*
X1285210Y712542D01*
Y712470D01*
X1294130D01*
Y721390D01*
D02*
G37*
G36*
X659130D02*
X659058D01*
X656467Y720696D01*
X654143Y719354D01*
X652246Y717457D01*
X650904Y715133D01*
X650210Y712542D01*
Y712470D01*
X659130D01*
Y721390D01*
D02*
G37*
G36*
X278130D02*
X278058D01*
X275467Y720696D01*
X273143Y719354D01*
X271246Y717457D01*
X269904Y715133D01*
X269210Y712542D01*
Y712470D01*
X278130D01*
Y721390D01*
D02*
G37*
G36*
X1421130D02*
X1421058D01*
X1418467Y720696D01*
X1416143Y719354D01*
X1414246Y717457D01*
X1412904Y715133D01*
X1412210Y712542D01*
Y712470D01*
X1421130D01*
Y721390D01*
D02*
G37*
G36*
X405130D02*
X405058D01*
X402467Y720696D01*
X400143Y719354D01*
X398246Y717457D01*
X396904Y715133D01*
X396210Y712542D01*
Y712470D01*
X405130D01*
Y721390D01*
D02*
G37*
G36*
X1167130D02*
X1167058D01*
X1164467Y720696D01*
X1162143Y719354D01*
X1160246Y717457D01*
X1158904Y715133D01*
X1158210Y712542D01*
Y712470D01*
X1167130D01*
Y721390D01*
D02*
G37*
G36*
X1432590Y709930D02*
X1423670D01*
Y701010D01*
X1423742D01*
X1426333Y701704D01*
X1428657Y703046D01*
X1430554Y704943D01*
X1431896Y707267D01*
X1432590Y709858D01*
Y709930D01*
D02*
G37*
G36*
X1421130D02*
X1412210D01*
Y709858D01*
X1412904Y707267D01*
X1414246Y704943D01*
X1416143Y703046D01*
X1418467Y701704D01*
X1421058Y701010D01*
X1421130D01*
Y709930D01*
D02*
G37*
G36*
X1305590D02*
X1296670D01*
Y701010D01*
X1296742D01*
X1299333Y701704D01*
X1301657Y703046D01*
X1303554Y704943D01*
X1304896Y707267D01*
X1305590Y709858D01*
Y709930D01*
D02*
G37*
G36*
X1294130D02*
X1285210D01*
Y709858D01*
X1285904Y707267D01*
X1287246Y704943D01*
X1289143Y703046D01*
X1291467Y701704D01*
X1294058Y701010D01*
X1294130D01*
Y709930D01*
D02*
G37*
G36*
X1178590D02*
X1169670D01*
Y701010D01*
X1169742D01*
X1172333Y701704D01*
X1174657Y703046D01*
X1176554Y704943D01*
X1177896Y707267D01*
X1178590Y709858D01*
Y709930D01*
D02*
G37*
G36*
X1167130D02*
X1158210D01*
Y709858D01*
X1158904Y707267D01*
X1160246Y704943D01*
X1162143Y703046D01*
X1164467Y701704D01*
X1167058Y701010D01*
X1167130D01*
Y709930D01*
D02*
G37*
G36*
X1051590D02*
X1042670D01*
Y701010D01*
X1042742D01*
X1045333Y701704D01*
X1047657Y703046D01*
X1049554Y704943D01*
X1050896Y707267D01*
X1051590Y709858D01*
Y709930D01*
D02*
G37*
G36*
X1040130D02*
X1031210D01*
Y709858D01*
X1031904Y707267D01*
X1033246Y704943D01*
X1035143Y703046D01*
X1037467Y701704D01*
X1040058Y701010D01*
X1040130D01*
Y709930D01*
D02*
G37*
G36*
X670590D02*
X661670D01*
Y701010D01*
X661742D01*
X664333Y701704D01*
X666657Y703046D01*
X668554Y704943D01*
X669896Y707267D01*
X670590Y709858D01*
Y709930D01*
D02*
G37*
G36*
X659130D02*
X650210D01*
Y709858D01*
X650904Y707267D01*
X652246Y704943D01*
X654143Y703046D01*
X656467Y701704D01*
X659058Y701010D01*
X659130D01*
Y709930D01*
D02*
G37*
G36*
X543590D02*
X534670D01*
Y701010D01*
X534742D01*
X537333Y701704D01*
X539657Y703046D01*
X541554Y704943D01*
X542896Y707267D01*
X543590Y709858D01*
Y709930D01*
D02*
G37*
G36*
X532130D02*
X523210D01*
Y709858D01*
X523904Y707267D01*
X525246Y704943D01*
X527143Y703046D01*
X529467Y701704D01*
X532058Y701010D01*
X532130D01*
Y709930D01*
D02*
G37*
G36*
X416590D02*
X407670D01*
Y701010D01*
X407742D01*
X410333Y701704D01*
X412657Y703046D01*
X414554Y704943D01*
X415896Y707267D01*
X416590Y709858D01*
Y709930D01*
D02*
G37*
G36*
X405130D02*
X396210D01*
Y709858D01*
X396904Y707267D01*
X398246Y704943D01*
X400143Y703046D01*
X402467Y701704D01*
X405058Y701010D01*
X405130D01*
Y709930D01*
D02*
G37*
G36*
X289590D02*
X280670D01*
Y701010D01*
X280742D01*
X283333Y701704D01*
X285657Y703046D01*
X287554Y704943D01*
X288896Y707267D01*
X289590Y709858D01*
Y709930D01*
D02*
G37*
G36*
X278130D02*
X269210D01*
Y709858D01*
X269904Y707267D01*
X271246Y704943D01*
X273143Y703046D01*
X275467Y701704D01*
X278058Y701010D01*
X278130D01*
Y709930D01*
D02*
G37*
G36*
X661742Y695990D02*
X661670D01*
Y687070D01*
X670590D01*
Y687142D01*
X669896Y689733D01*
X668554Y692057D01*
X666657Y693954D01*
X664333Y695296D01*
X661742Y695990D01*
D02*
G37*
G36*
X534742D02*
X534670D01*
Y687070D01*
X543590D01*
Y687142D01*
X542896Y689733D01*
X541554Y692057D01*
X539657Y693954D01*
X537333Y695296D01*
X534742Y695990D01*
D02*
G37*
G36*
X1423742D02*
X1423670D01*
Y687070D01*
X1432590D01*
Y687142D01*
X1431896Y689733D01*
X1430554Y692057D01*
X1428657Y693954D01*
X1426333Y695296D01*
X1423742Y695990D01*
D02*
G37*
G36*
X1296742D02*
X1296670D01*
Y687070D01*
X1305590D01*
Y687142D01*
X1304896Y689733D01*
X1303554Y692057D01*
X1301657Y693954D01*
X1299333Y695296D01*
X1296742Y695990D01*
D02*
G37*
G36*
X407742D02*
X407670D01*
Y687070D01*
X416590D01*
Y687142D01*
X415896Y689733D01*
X414554Y692057D01*
X412657Y693954D01*
X410333Y695296D01*
X407742Y695990D01*
D02*
G37*
G36*
X280742D02*
X280670D01*
Y687070D01*
X289590D01*
Y687142D01*
X288896Y689733D01*
X287554Y692057D01*
X285657Y693954D01*
X283333Y695296D01*
X280742Y695990D01*
D02*
G37*
G36*
X1169742D02*
X1169670D01*
Y687070D01*
X1178590D01*
Y687142D01*
X1177896Y689733D01*
X1176554Y692057D01*
X1174657Y693954D01*
X1172333Y695296D01*
X1169742Y695990D01*
D02*
G37*
G36*
X1042742D02*
X1042670D01*
Y687070D01*
X1051590D01*
Y687142D01*
X1050896Y689733D01*
X1049554Y692057D01*
X1047657Y693954D01*
X1045333Y695296D01*
X1042742Y695990D01*
D02*
G37*
G36*
X532130D02*
X532058D01*
X529467Y695296D01*
X527143Y693954D01*
X525246Y692057D01*
X523904Y689733D01*
X523210Y687142D01*
Y687070D01*
X532130D01*
Y695990D01*
D02*
G37*
G36*
X1294130D02*
X1294058D01*
X1291467Y695296D01*
X1289143Y693954D01*
X1287246Y692057D01*
X1285904Y689733D01*
X1285210Y687142D01*
Y687070D01*
X1294130D01*
Y695990D01*
D02*
G37*
G36*
X659130D02*
X659058D01*
X656467Y695296D01*
X654143Y693954D01*
X652246Y692057D01*
X650904Y689733D01*
X650210Y687142D01*
Y687070D01*
X659130D01*
Y695990D01*
D02*
G37*
G36*
X278130D02*
X278058D01*
X275467Y695296D01*
X273143Y693954D01*
X271246Y692057D01*
X269904Y689733D01*
X269210Y687142D01*
Y687070D01*
X278130D01*
Y695990D01*
D02*
G37*
G36*
X1421130D02*
X1421058D01*
X1418467Y695296D01*
X1416143Y693954D01*
X1414246Y692057D01*
X1412904Y689733D01*
X1412210Y687142D01*
Y687070D01*
X1421130D01*
Y695990D01*
D02*
G37*
G36*
X1040130D02*
X1040058D01*
X1037467Y695296D01*
X1035143Y693954D01*
X1033246Y692057D01*
X1031904Y689733D01*
X1031210Y687142D01*
Y687070D01*
X1040130D01*
Y695990D01*
D02*
G37*
G36*
X405130D02*
X405058D01*
X402467Y695296D01*
X400143Y693954D01*
X398246Y692057D01*
X396904Y689733D01*
X396210Y687142D01*
Y687070D01*
X405130D01*
Y695990D01*
D02*
G37*
G36*
X1167130D02*
X1167058D01*
X1164467Y695296D01*
X1162143Y693954D01*
X1160246Y692057D01*
X1158904Y689733D01*
X1158210Y687142D01*
Y687070D01*
X1167130D01*
Y695990D01*
D02*
G37*
G36*
X1432590Y684530D02*
X1423670D01*
Y675610D01*
X1423742D01*
X1426333Y676304D01*
X1428657Y677646D01*
X1430554Y679543D01*
X1431896Y681867D01*
X1432590Y684458D01*
Y684530D01*
D02*
G37*
G36*
X1421130D02*
X1412210D01*
Y684458D01*
X1412904Y681867D01*
X1414246Y679543D01*
X1416143Y677646D01*
X1418467Y676304D01*
X1421058Y675610D01*
X1421130D01*
Y684530D01*
D02*
G37*
G36*
X1398342Y721390D02*
X1395658D01*
X1393067Y720696D01*
X1390743Y719354D01*
X1388846Y717457D01*
X1387504Y715133D01*
X1386810Y712542D01*
Y709858D01*
X1387504Y707267D01*
X1388846Y704943D01*
X1390743Y703046D01*
X1393067Y701704D01*
X1393115Y701691D01*
Y695309D01*
X1393067Y695296D01*
X1390743Y693954D01*
X1388846Y692057D01*
X1387504Y689733D01*
X1386810Y687142D01*
Y684458D01*
X1387504Y681867D01*
X1388846Y679543D01*
X1390743Y677646D01*
X1393067Y676304D01*
X1395658Y675610D01*
X1398342D01*
X1400933Y676304D01*
X1403257Y677646D01*
X1405154Y679543D01*
X1406496Y681867D01*
X1407190Y684458D01*
Y687142D01*
X1406496Y689733D01*
X1405154Y692057D01*
X1403257Y693954D01*
X1400933Y695296D01*
X1400885Y695309D01*
Y701691D01*
X1400933Y701704D01*
X1403257Y703046D01*
X1405154Y704943D01*
X1406496Y707267D01*
X1407190Y709858D01*
Y712542D01*
X1406496Y715133D01*
X1405154Y717457D01*
X1403257Y719354D01*
X1400933Y720696D01*
X1398342Y721390D01*
D02*
G37*
G36*
X1372942D02*
X1370258D01*
X1367667Y720696D01*
X1365343Y719354D01*
X1363446Y717457D01*
X1362104Y715133D01*
X1361410Y712542D01*
Y709858D01*
X1362104Y707267D01*
X1363446Y704943D01*
X1365343Y703046D01*
X1367667Y701704D01*
X1367715Y701691D01*
Y695309D01*
X1367667Y695296D01*
X1365343Y693954D01*
X1363446Y692057D01*
X1362104Y689733D01*
X1361410Y687142D01*
Y684458D01*
X1362104Y681867D01*
X1363446Y679543D01*
X1365343Y677646D01*
X1367667Y676304D01*
X1370258Y675610D01*
X1372942D01*
X1375533Y676304D01*
X1377857Y677646D01*
X1379754Y679543D01*
X1381096Y681867D01*
X1381790Y684458D01*
Y687142D01*
X1381096Y689733D01*
X1379754Y692057D01*
X1377857Y693954D01*
X1375533Y695296D01*
X1375485Y695309D01*
Y701691D01*
X1375533Y701704D01*
X1377857Y703046D01*
X1379754Y704943D01*
X1381096Y707267D01*
X1381790Y709858D01*
Y712542D01*
X1381096Y715133D01*
X1379754Y717457D01*
X1377857Y719354D01*
X1375533Y720696D01*
X1372942Y721390D01*
D02*
G37*
G36*
X1347542D02*
X1344858D01*
X1342267Y720696D01*
X1339943Y719354D01*
X1338046Y717457D01*
X1336704Y715133D01*
X1336010Y712542D01*
Y709858D01*
X1336704Y707267D01*
X1338046Y704943D01*
X1339943Y703046D01*
X1342267Y701704D01*
X1342315Y701691D01*
Y695309D01*
X1342267Y695296D01*
X1339943Y693954D01*
X1338046Y692057D01*
X1336704Y689733D01*
X1336010Y687142D01*
Y684458D01*
X1336704Y681867D01*
X1338046Y679543D01*
X1339943Y677646D01*
X1342267Y676304D01*
X1344858Y675610D01*
X1347542D01*
X1350133Y676304D01*
X1352457Y677646D01*
X1354354Y679543D01*
X1355696Y681867D01*
X1356390Y684458D01*
Y687142D01*
X1355696Y689733D01*
X1354354Y692057D01*
X1352457Y693954D01*
X1350133Y695296D01*
X1350085Y695309D01*
Y701691D01*
X1350133Y701704D01*
X1352457Y703046D01*
X1354354Y704943D01*
X1355696Y707267D01*
X1356390Y709858D01*
Y712542D01*
X1355696Y715133D01*
X1354354Y717457D01*
X1352457Y719354D01*
X1350133Y720696D01*
X1347542Y721390D01*
D02*
G37*
G36*
X1322142D02*
X1319458D01*
X1316867Y720696D01*
X1314543Y719354D01*
X1312646Y717457D01*
X1311304Y715133D01*
X1310610Y712542D01*
Y709858D01*
X1311304Y707267D01*
X1312646Y704943D01*
X1314543Y703046D01*
X1316867Y701704D01*
X1316915Y701691D01*
Y695309D01*
X1316867Y695296D01*
X1314543Y693954D01*
X1312646Y692057D01*
X1311304Y689733D01*
X1310610Y687142D01*
Y684458D01*
X1311304Y681867D01*
X1312646Y679543D01*
X1314543Y677646D01*
X1316867Y676304D01*
X1319458Y675610D01*
X1322142D01*
X1324733Y676304D01*
X1327057Y677646D01*
X1328954Y679543D01*
X1330296Y681867D01*
X1330990Y684458D01*
Y687142D01*
X1330296Y689733D01*
X1328954Y692057D01*
X1327057Y693954D01*
X1324733Y695296D01*
X1324685Y695309D01*
Y701691D01*
X1324733Y701704D01*
X1327057Y703046D01*
X1328954Y704943D01*
X1330296Y707267D01*
X1330990Y709858D01*
Y712542D01*
X1330296Y715133D01*
X1328954Y717457D01*
X1327057Y719354D01*
X1324733Y720696D01*
X1322142Y721390D01*
D02*
G37*
G36*
X1305590Y684530D02*
X1296670D01*
Y675610D01*
X1296742D01*
X1299333Y676304D01*
X1301657Y677646D01*
X1303554Y679543D01*
X1304896Y681867D01*
X1305590Y684458D01*
Y684530D01*
D02*
G37*
G36*
X1294130D02*
X1285210D01*
Y684458D01*
X1285904Y681867D01*
X1287246Y679543D01*
X1289143Y677646D01*
X1291467Y676304D01*
X1294058Y675610D01*
X1294130D01*
Y684530D01*
D02*
G37*
G36*
X1220542Y721390D02*
X1217858D01*
X1215267Y720696D01*
X1212943Y719354D01*
X1211046Y717457D01*
X1209704Y715133D01*
X1209010Y712542D01*
Y709858D01*
X1209704Y707267D01*
X1211046Y704943D01*
X1212943Y703046D01*
X1215267Y701704D01*
X1215315Y701691D01*
Y695309D01*
X1215267Y695296D01*
X1212943Y693954D01*
X1211046Y692057D01*
X1209704Y689733D01*
X1209010Y687142D01*
Y684458D01*
X1209704Y681867D01*
X1211046Y679543D01*
X1212943Y677646D01*
X1215267Y676304D01*
X1217858Y675610D01*
X1220542D01*
X1223133Y676304D01*
X1225457Y677646D01*
X1227354Y679543D01*
X1228696Y681867D01*
X1229390Y684458D01*
Y687142D01*
X1228696Y689733D01*
X1227354Y692057D01*
X1225457Y693954D01*
X1223133Y695296D01*
X1223085Y695309D01*
Y701691D01*
X1223133Y701704D01*
X1225457Y703046D01*
X1227354Y704943D01*
X1228696Y707267D01*
X1229390Y709858D01*
Y712542D01*
X1228696Y715133D01*
X1227354Y717457D01*
X1225457Y719354D01*
X1223133Y720696D01*
X1220542Y721390D01*
D02*
G37*
G36*
X1195142D02*
X1192458D01*
X1189867Y720696D01*
X1187543Y719354D01*
X1185646Y717457D01*
X1184304Y715133D01*
X1183610Y712542D01*
Y709858D01*
X1184304Y707267D01*
X1185646Y704943D01*
X1187543Y703046D01*
X1189867Y701704D01*
X1189915Y701691D01*
Y695309D01*
X1189867Y695296D01*
X1187543Y693954D01*
X1185646Y692057D01*
X1184304Y689733D01*
X1183610Y687142D01*
Y684458D01*
X1184304Y681867D01*
X1185646Y679543D01*
X1187543Y677646D01*
X1189867Y676304D01*
X1192458Y675610D01*
X1195142D01*
X1197733Y676304D01*
X1200057Y677646D01*
X1201954Y679543D01*
X1203296Y681867D01*
X1203990Y684458D01*
Y687142D01*
X1203296Y689733D01*
X1201954Y692057D01*
X1200057Y693954D01*
X1197733Y695296D01*
X1197685Y695309D01*
Y701691D01*
X1197733Y701704D01*
X1200057Y703046D01*
X1201954Y704943D01*
X1203296Y707267D01*
X1203990Y709858D01*
Y712542D01*
X1203296Y715133D01*
X1201954Y717457D01*
X1200057Y719354D01*
X1197733Y720696D01*
X1195142Y721390D01*
D02*
G37*
G36*
X1178590Y684530D02*
X1169670D01*
Y675610D01*
X1169742D01*
X1172333Y676304D01*
X1174657Y677646D01*
X1176554Y679543D01*
X1177896Y681867D01*
X1178590Y684458D01*
Y684530D01*
D02*
G37*
G36*
X712542Y721390D02*
X709858D01*
X707267Y720696D01*
X704943Y719354D01*
X703046Y717457D01*
X701704Y715133D01*
X701010Y712542D01*
Y709858D01*
X701704Y707267D01*
X703046Y704943D01*
X704943Y703046D01*
X707267Y701704D01*
X707315Y701691D01*
Y695309D01*
X707267Y695296D01*
X704943Y693954D01*
X703046Y692057D01*
X701704Y689733D01*
X701010Y687142D01*
Y684458D01*
X701704Y681867D01*
X703046Y679543D01*
X704943Y677646D01*
X707267Y676304D01*
X709858Y675610D01*
X712542D01*
X715133Y676304D01*
X717457Y677646D01*
X719354Y679543D01*
X720696Y681867D01*
X721390Y684458D01*
Y687142D01*
X720696Y689733D01*
X719354Y692057D01*
X717457Y693954D01*
X715133Y695296D01*
X715085Y695309D01*
Y701691D01*
X715133Y701704D01*
X717457Y703046D01*
X719354Y704943D01*
X720696Y707267D01*
X721390Y709858D01*
Y712542D01*
X720696Y715133D01*
X719354Y717457D01*
X717457Y719354D01*
X715133Y720696D01*
X712542Y721390D01*
D02*
G37*
G36*
X687142D02*
X684458D01*
X681867Y720696D01*
X679543Y719354D01*
X677646Y717457D01*
X676304Y715133D01*
X675610Y712542D01*
Y709858D01*
X676304Y707267D01*
X677646Y704943D01*
X678195Y704394D01*
Y692606D01*
X677646Y692057D01*
X676304Y689733D01*
X675610Y687142D01*
Y684458D01*
X676304Y681867D01*
X677646Y679543D01*
X679543Y677646D01*
X681867Y676304D01*
X684458Y675610D01*
X687142D01*
X689733Y676304D01*
X692057Y677646D01*
X693954Y679543D01*
X695296Y681867D01*
X695990Y684458D01*
Y687142D01*
X695296Y689733D01*
X693954Y692057D01*
X693405Y692606D01*
Y704394D01*
X693954Y704943D01*
X695296Y707267D01*
X695990Y709858D01*
Y712542D01*
X695296Y715133D01*
X693954Y717457D01*
X692057Y719354D01*
X689733Y720696D01*
X687142Y721390D01*
D02*
G37*
G36*
X670590Y684530D02*
X661670D01*
Y675610D01*
X661742D01*
X664333Y676304D01*
X666657Y677646D01*
X668554Y679543D01*
X669896Y681867D01*
X670590Y684458D01*
Y684530D01*
D02*
G37*
G36*
X659130D02*
X650210D01*
Y684458D01*
X650904Y681867D01*
X652246Y679543D01*
X654143Y677646D01*
X656467Y676304D01*
X659058Y675610D01*
X659130D01*
Y684530D01*
D02*
G37*
G36*
X636342Y721390D02*
X633658D01*
X631067Y720696D01*
X628743Y719354D01*
X626846Y717457D01*
X625504Y715133D01*
X624810Y712542D01*
Y709858D01*
X625504Y707267D01*
X626846Y704943D01*
X628743Y703046D01*
X631067Y701704D01*
X631115Y701691D01*
Y695309D01*
X631067Y695296D01*
X628743Y693954D01*
X626846Y692057D01*
X625504Y689733D01*
X624810Y687142D01*
Y684458D01*
X625504Y681867D01*
X626846Y679543D01*
X628743Y677646D01*
X631067Y676304D01*
X633658Y675610D01*
X636342D01*
X638933Y676304D01*
X641257Y677646D01*
X643154Y679543D01*
X644496Y681867D01*
X645190Y684458D01*
Y687142D01*
X644496Y689733D01*
X643154Y692057D01*
X641257Y693954D01*
X638933Y695296D01*
X638885Y695309D01*
Y701691D01*
X638933Y701704D01*
X641257Y703046D01*
X643154Y704943D01*
X644496Y707267D01*
X645190Y709858D01*
Y712542D01*
X644496Y715133D01*
X643154Y717457D01*
X641257Y719354D01*
X638933Y720696D01*
X636342Y721390D01*
D02*
G37*
G36*
X610942D02*
X608258D01*
X605667Y720696D01*
X603343Y719354D01*
X601446Y717457D01*
X600104Y715133D01*
X599410Y712542D01*
Y709858D01*
X600104Y707267D01*
X601446Y704943D01*
X603343Y703046D01*
X605667Y701704D01*
X605715Y701691D01*
Y695309D01*
X605667Y695296D01*
X603343Y693954D01*
X601446Y692057D01*
X600104Y689733D01*
X599410Y687142D01*
Y684458D01*
X600104Y681867D01*
X601446Y679543D01*
X603343Y677646D01*
X605667Y676304D01*
X608258Y675610D01*
X610942D01*
X613533Y676304D01*
X615857Y677646D01*
X617754Y679543D01*
X619096Y681867D01*
X619790Y684458D01*
Y687142D01*
X619096Y689733D01*
X617754Y692057D01*
X615857Y693954D01*
X613533Y695296D01*
X613485Y695309D01*
Y701691D01*
X613533Y701704D01*
X615857Y703046D01*
X617754Y704943D01*
X619096Y707267D01*
X619790Y709858D01*
Y712542D01*
X619096Y715133D01*
X617754Y717457D01*
X615857Y719354D01*
X613533Y720696D01*
X610942Y721390D01*
D02*
G37*
G36*
X585542D02*
X582858D01*
X580267Y720696D01*
X577943Y719354D01*
X576046Y717457D01*
X574704Y715133D01*
X574010Y712542D01*
Y709858D01*
X574704Y707267D01*
X576046Y704943D01*
X577943Y703046D01*
X580267Y701704D01*
X580315Y701691D01*
Y695309D01*
X580267Y695296D01*
X577943Y693954D01*
X576046Y692057D01*
X574704Y689733D01*
X574010Y687142D01*
Y684458D01*
X574704Y681867D01*
X576046Y679543D01*
X577943Y677646D01*
X580267Y676304D01*
X582858Y675610D01*
X585542D01*
X588133Y676304D01*
X590457Y677646D01*
X592354Y679543D01*
X593696Y681867D01*
X594390Y684458D01*
Y687142D01*
X593696Y689733D01*
X592354Y692057D01*
X590457Y693954D01*
X588133Y695296D01*
X588085Y695309D01*
Y701691D01*
X588133Y701704D01*
X590457Y703046D01*
X592354Y704943D01*
X593696Y707267D01*
X594390Y709858D01*
Y712542D01*
X593696Y715133D01*
X592354Y717457D01*
X590457Y719354D01*
X588133Y720696D01*
X585542Y721390D01*
D02*
G37*
G36*
X543590Y684530D02*
X534670D01*
Y675610D01*
X534742D01*
X537333Y676304D01*
X539657Y677646D01*
X541554Y679543D01*
X542896Y681867D01*
X543590Y684458D01*
Y684530D01*
D02*
G37*
G36*
X532130D02*
X523210D01*
Y684458D01*
X523904Y681867D01*
X525246Y679543D01*
X527143Y677646D01*
X529467Y676304D01*
X532058Y675610D01*
X532130D01*
Y684530D01*
D02*
G37*
G36*
X509342Y721390D02*
X506658D01*
X504067Y720696D01*
X501743Y719354D01*
X499846Y717457D01*
X498504Y715133D01*
X497810Y712542D01*
Y709858D01*
X498504Y707267D01*
X499846Y704943D01*
X501743Y703046D01*
X504067Y701704D01*
X504115Y701691D01*
Y695309D01*
X504067Y695296D01*
X501743Y693954D01*
X499846Y692057D01*
X498504Y689733D01*
X497810Y687142D01*
Y684458D01*
X498504Y681867D01*
X499846Y679543D01*
X501743Y677646D01*
X504067Y676304D01*
X506658Y675610D01*
X509342D01*
X511933Y676304D01*
X514257Y677646D01*
X516154Y679543D01*
X517496Y681867D01*
X518190Y684458D01*
Y687142D01*
X517496Y689733D01*
X516154Y692057D01*
X514257Y693954D01*
X511933Y695296D01*
X511885Y695309D01*
Y701691D01*
X511933Y701704D01*
X514257Y703046D01*
X516154Y704943D01*
X517496Y707267D01*
X518190Y709858D01*
Y712542D01*
X517496Y715133D01*
X516154Y717457D01*
X514257Y719354D01*
X511933Y720696D01*
X509342Y721390D01*
D02*
G37*
G36*
X483942D02*
X481258D01*
X478667Y720696D01*
X476343Y719354D01*
X474446Y717457D01*
X473104Y715133D01*
X472410Y712542D01*
Y709858D01*
X473104Y707267D01*
X474446Y704943D01*
X476343Y703046D01*
X478667Y701704D01*
X478715Y701691D01*
Y695309D01*
X478667Y695296D01*
X476343Y693954D01*
X474446Y692057D01*
X473104Y689733D01*
X472410Y687142D01*
Y684458D01*
X473104Y681867D01*
X474446Y679543D01*
X476343Y677646D01*
X478667Y676304D01*
X481258Y675610D01*
X483942D01*
X486533Y676304D01*
X488857Y677646D01*
X490754Y679543D01*
X492096Y681867D01*
X492790Y684458D01*
Y687142D01*
X492096Y689733D01*
X490754Y692057D01*
X488857Y693954D01*
X486533Y695296D01*
X486485Y695309D01*
Y701691D01*
X486533Y701704D01*
X488857Y703046D01*
X490754Y704943D01*
X492096Y707267D01*
X492790Y709858D01*
Y712542D01*
X492096Y715133D01*
X490754Y717457D01*
X488857Y719354D01*
X486533Y720696D01*
X483942Y721390D01*
D02*
G37*
G36*
X458542D02*
X455858D01*
X453267Y720696D01*
X450943Y719354D01*
X449046Y717457D01*
X447704Y715133D01*
X447010Y712542D01*
Y709858D01*
X447704Y707267D01*
X449046Y704943D01*
X450943Y703046D01*
X453267Y701704D01*
X453315Y701691D01*
Y695309D01*
X453267Y695296D01*
X450943Y693954D01*
X449046Y692057D01*
X447704Y689733D01*
X447010Y687142D01*
Y684458D01*
X447704Y681867D01*
X449046Y679543D01*
X450943Y677646D01*
X453267Y676304D01*
X455858Y675610D01*
X458542D01*
X461133Y676304D01*
X463457Y677646D01*
X465354Y679543D01*
X466696Y681867D01*
X467390Y684458D01*
Y687142D01*
X466696Y689733D01*
X465354Y692057D01*
X463457Y693954D01*
X461133Y695296D01*
X461085Y695309D01*
Y701691D01*
X461133Y701704D01*
X463457Y703046D01*
X465354Y704943D01*
X466696Y707267D01*
X467390Y709858D01*
Y712542D01*
X466696Y715133D01*
X465354Y717457D01*
X463457Y719354D01*
X461133Y720696D01*
X458542Y721390D01*
D02*
G37*
G36*
X433142D02*
X430458D01*
X427867Y720696D01*
X425543Y719354D01*
X423646Y717457D01*
X422304Y715133D01*
X421610Y712542D01*
Y709858D01*
X422304Y707267D01*
X423646Y704943D01*
X425543Y703046D01*
X427867Y701704D01*
X427915Y701691D01*
Y695309D01*
X427867Y695296D01*
X425543Y693954D01*
X423646Y692057D01*
X422304Y689733D01*
X421610Y687142D01*
Y684458D01*
X422304Y681867D01*
X423646Y679543D01*
X425543Y677646D01*
X427867Y676304D01*
X430458Y675610D01*
X433142D01*
X435733Y676304D01*
X438057Y677646D01*
X439954Y679543D01*
X441296Y681867D01*
X441990Y684458D01*
Y687142D01*
X441296Y689733D01*
X439954Y692057D01*
X438057Y693954D01*
X435733Y695296D01*
X435685Y695309D01*
Y701691D01*
X435733Y701704D01*
X438057Y703046D01*
X439954Y704943D01*
X441296Y707267D01*
X441990Y709858D01*
Y712542D01*
X441296Y715133D01*
X439954Y717457D01*
X438057Y719354D01*
X435733Y720696D01*
X433142Y721390D01*
D02*
G37*
G36*
X416590Y684530D02*
X407670D01*
Y675610D01*
X407742D01*
X410333Y676304D01*
X412657Y677646D01*
X414554Y679543D01*
X415896Y681867D01*
X416590Y684458D01*
Y684530D01*
D02*
G37*
G36*
X405130D02*
X396210D01*
Y684458D01*
X396904Y681867D01*
X398246Y679543D01*
X400143Y677646D01*
X402467Y676304D01*
X405058Y675610D01*
X405130D01*
Y684530D01*
D02*
G37*
G36*
X331542Y721390D02*
X328858D01*
X326267Y720696D01*
X323943Y719354D01*
X322046Y717457D01*
X320704Y715133D01*
X320010Y712542D01*
Y709858D01*
X320704Y707267D01*
X322046Y704943D01*
X323943Y703046D01*
X326267Y701704D01*
X326315Y701691D01*
Y695309D01*
X326267Y695296D01*
X323943Y693954D01*
X322046Y692057D01*
X320704Y689733D01*
X320010Y687142D01*
Y684458D01*
X320704Y681867D01*
X322046Y679543D01*
X323943Y677646D01*
X326267Y676304D01*
X328858Y675610D01*
X331542D01*
X334133Y676304D01*
X336457Y677646D01*
X338354Y679543D01*
X339696Y681867D01*
X340390Y684458D01*
Y687142D01*
X339696Y689733D01*
X338354Y692057D01*
X336457Y693954D01*
X334133Y695296D01*
X334085Y695309D01*
Y701691D01*
X334133Y701704D01*
X336457Y703046D01*
X338354Y704943D01*
X339696Y707267D01*
X340390Y709858D01*
Y712542D01*
X339696Y715133D01*
X338354Y717457D01*
X336457Y719354D01*
X334133Y720696D01*
X331542Y721390D01*
D02*
G37*
G36*
X306142D02*
X303458D01*
X300867Y720696D01*
X298543Y719354D01*
X296646Y717457D01*
X295304Y715133D01*
X294610Y712542D01*
Y709858D01*
X295304Y707267D01*
X296646Y704943D01*
X298543Y703046D01*
X300867Y701704D01*
X300915Y701691D01*
Y695309D01*
X300867Y695296D01*
X298543Y693954D01*
X296646Y692057D01*
X295304Y689733D01*
X294610Y687142D01*
Y684458D01*
X295304Y681867D01*
X296646Y679543D01*
X298543Y677646D01*
X300867Y676304D01*
X303458Y675610D01*
X306142D01*
X308733Y676304D01*
X311057Y677646D01*
X312954Y679543D01*
X314296Y681867D01*
X314990Y684458D01*
Y687142D01*
X314296Y689733D01*
X312954Y692057D01*
X311057Y693954D01*
X308733Y695296D01*
X308685Y695309D01*
Y701691D01*
X308733Y701704D01*
X311057Y703046D01*
X312954Y704943D01*
X314296Y707267D01*
X314990Y709858D01*
Y712542D01*
X314296Y715133D01*
X312954Y717457D01*
X311057Y719354D01*
X308733Y720696D01*
X306142Y721390D01*
D02*
G37*
G36*
X289590Y684530D02*
X280670D01*
Y675610D01*
X280742D01*
X283333Y676304D01*
X285657Y677646D01*
X287554Y679543D01*
X288896Y681867D01*
X289590Y684458D01*
Y684530D01*
D02*
G37*
G36*
X278130D02*
X269210D01*
Y684458D01*
X269904Y681867D01*
X271246Y679543D01*
X273143Y677646D01*
X275467Y676304D01*
X278058Y675610D01*
X278130D01*
Y684530D01*
D02*
G37*
G36*
X255342Y721390D02*
X252658D01*
X250067Y720696D01*
X247743Y719354D01*
X245846Y717457D01*
X244504Y715133D01*
X243810Y712542D01*
Y709858D01*
X244504Y707267D01*
X245846Y704943D01*
X247743Y703046D01*
X250067Y701704D01*
X250115Y701691D01*
Y695309D01*
X250067Y695296D01*
X247743Y693954D01*
X245846Y692057D01*
X244504Y689733D01*
X243810Y687142D01*
Y684458D01*
X244504Y681867D01*
X245846Y679543D01*
X247743Y677646D01*
X250067Y676304D01*
X252658Y675610D01*
X255342D01*
X257933Y676304D01*
X260257Y677646D01*
X262154Y679543D01*
X263496Y681867D01*
X264190Y684458D01*
Y687142D01*
X263496Y689733D01*
X262154Y692057D01*
X260257Y693954D01*
X257933Y695296D01*
X257885Y695309D01*
Y701691D01*
X257933Y701704D01*
X260257Y703046D01*
X262154Y704943D01*
X263496Y707267D01*
X264190Y709858D01*
Y712542D01*
X263496Y715133D01*
X262154Y717457D01*
X260257Y719354D01*
X257933Y720696D01*
X255342Y721390D01*
D02*
G37*
G36*
X229942D02*
X227258D01*
X224667Y720696D01*
X222343Y719354D01*
X220446Y717457D01*
X219104Y715133D01*
X218410Y712542D01*
Y709858D01*
X219104Y707267D01*
X220446Y704943D01*
X222343Y703046D01*
X224667Y701704D01*
X224715Y701691D01*
Y695309D01*
X224667Y695296D01*
X222343Y693954D01*
X220446Y692057D01*
X219104Y689733D01*
X218410Y687142D01*
Y684458D01*
X219104Y681867D01*
X220446Y679543D01*
X222343Y677646D01*
X224667Y676304D01*
X227258Y675610D01*
X229942D01*
X232533Y676304D01*
X234857Y677646D01*
X236754Y679543D01*
X238096Y681867D01*
X238790Y684458D01*
Y687142D01*
X238096Y689733D01*
X236754Y692057D01*
X234857Y693954D01*
X232533Y695296D01*
X232485Y695309D01*
Y701691D01*
X232533Y701704D01*
X234857Y703046D01*
X236754Y704943D01*
X238096Y707267D01*
X238790Y709858D01*
Y712542D01*
X238096Y715133D01*
X236754Y717457D01*
X234857Y719354D01*
X232533Y720696D01*
X229942Y721390D01*
D02*
G37*
G36*
X259080Y526363D02*
X243078D01*
X241591Y526067D01*
X240331Y525225D01*
X232577Y517470D01*
X232533Y517496D01*
X229942Y518190D01*
X227258D01*
X224667Y517496D01*
X222343Y516154D01*
X220446Y514257D01*
X219104Y511933D01*
X218410Y509342D01*
Y506658D01*
X219104Y504067D01*
X220446Y501743D01*
X222343Y499846D01*
X224667Y498504D01*
X224715Y498491D01*
Y492109D01*
X224667Y492096D01*
X222343Y490754D01*
X220446Y488857D01*
X219104Y486533D01*
X218410Y483942D01*
Y481258D01*
X219104Y478667D01*
X220446Y476343D01*
X222343Y474446D01*
X224667Y473104D01*
X227258Y472410D01*
X229942D01*
X232533Y473104D01*
X234857Y474446D01*
X236754Y476343D01*
X238096Y478667D01*
X238790Y481258D01*
Y483942D01*
X238096Y486533D01*
X236754Y488857D01*
X234857Y490754D01*
X232533Y492096D01*
X232485Y492109D01*
Y498491D01*
X232533Y498504D01*
X234857Y499846D01*
X236754Y501743D01*
X238096Y504067D01*
X238790Y506658D01*
Y509342D01*
X238096Y511933D01*
X238070Y511977D01*
X242903Y516810D01*
X245846Y514257D01*
X244504Y511933D01*
X243810Y509342D01*
Y506658D01*
X244504Y504067D01*
X245846Y501743D01*
X247743Y499846D01*
X250067Y498504D01*
X250115Y498491D01*
Y492109D01*
X250067Y492096D01*
X247743Y490754D01*
X245846Y488857D01*
X244504Y486533D01*
X243810Y483942D01*
Y481258D01*
X244504Y478667D01*
X245846Y476343D01*
X247743Y474446D01*
X250067Y473104D01*
X250115Y473091D01*
Y435070D01*
X250130Y434995D01*
X250118Y434920D01*
X251760Y392363D01*
X249840Y391254D01*
X247972Y389386D01*
X246651Y387098D01*
X245967Y384546D01*
Y381905D01*
X246651Y379353D01*
X247972Y377065D01*
X249840Y375197D01*
X252127Y373876D01*
X254679Y373192D01*
X257321D01*
X259873Y373876D01*
X262160Y375197D01*
X264028Y377065D01*
X265349Y379353D01*
X266033Y381905D01*
Y384546D01*
X265349Y387098D01*
X264028Y389386D01*
X262160Y391254D01*
X259873Y392575D01*
X259523Y392668D01*
X257885Y435145D01*
Y471024D01*
X259887Y472498D01*
X263782Y470672D01*
X263831Y470618D01*
Y421509D01*
X264127Y420023D01*
X264969Y418763D01*
X288813Y394919D01*
X286357Y391718D01*
X284873Y392575D01*
X282321Y393259D01*
X282270D01*
Y383226D01*
Y373192D01*
X282321D01*
X282323Y373193D01*
X287720Y367797D01*
Y265848D01*
X284239Y263480D01*
X283720Y263437D01*
X281496Y264033D01*
X278854D01*
X276302Y263349D01*
X274014Y262028D01*
X272146Y260160D01*
X270825Y257873D01*
X270142Y255321D01*
Y252679D01*
X270825Y250127D01*
X272146Y247840D01*
X274014Y245972D01*
X276302Y244651D01*
X277637Y244293D01*
X279152Y242669D01*
X279772Y239967D01*
X278866Y239045D01*
X278753Y239006D01*
X276302Y238349D01*
X274014Y237028D01*
X272146Y235160D01*
X270825Y232872D01*
X270142Y230321D01*
Y230270D01*
X280175D01*
X290208D01*
Y230321D01*
X290207Y230323D01*
X298233Y238349D01*
X299568Y240346D01*
X300036Y242703D01*
Y370348D01*
X300010Y370480D01*
X300576Y371387D01*
X303469Y373517D01*
X304679Y373192D01*
X307321D01*
X309872Y373876D01*
X312160Y375197D01*
X314028Y377065D01*
X315349Y379353D01*
X316033Y381905D01*
Y384546D01*
X315349Y387098D01*
X314028Y389386D01*
X312160Y391254D01*
X309872Y392575D01*
X307321Y393259D01*
X304679D01*
X302141Y392578D01*
X271601Y423119D01*
Y470718D01*
X275467Y473104D01*
X278058Y472410D01*
X280742D01*
X283333Y473104D01*
X285657Y474446D01*
X287554Y476343D01*
X288896Y478667D01*
X289590Y481258D01*
Y483942D01*
X288896Y486533D01*
X287554Y488857D01*
X285657Y490754D01*
X283333Y492096D01*
X283285Y492109D01*
Y498491D01*
X283333Y498504D01*
X285657Y499846D01*
X287554Y501743D01*
X288896Y504067D01*
X289590Y506658D01*
Y509342D01*
X288896Y511933D01*
X287554Y514257D01*
X285657Y516154D01*
X283333Y517496D01*
X280742Y518190D01*
X278058D01*
X275467Y517496D01*
X274626Y517010D01*
X272986Y516180D01*
X270463Y516589D01*
X261827Y525225D01*
X260567Y526067D01*
X259080Y526363D01*
D02*
G37*
G36*
X661742Y518190D02*
X661670D01*
Y509270D01*
X670590D01*
Y509342D01*
X669896Y511933D01*
X668554Y514257D01*
X666657Y516154D01*
X664333Y517496D01*
X661742Y518190D01*
D02*
G37*
G36*
X1423742D02*
X1423670D01*
Y509270D01*
X1432590D01*
Y509342D01*
X1431896Y511933D01*
X1430554Y514257D01*
X1428657Y516154D01*
X1426333Y517496D01*
X1423742Y518190D01*
D02*
G37*
G36*
X1169742D02*
X1169670D01*
Y509270D01*
X1178590D01*
Y509342D01*
X1177896Y511933D01*
X1176554Y514257D01*
X1174657Y516154D01*
X1172333Y517496D01*
X1169742Y518190D01*
D02*
G37*
G36*
X1042742D02*
X1042670D01*
Y509270D01*
X1051590D01*
Y509342D01*
X1050896Y511933D01*
X1049554Y514257D01*
X1047657Y516154D01*
X1045333Y517496D01*
X1042742Y518190D01*
D02*
G37*
G36*
X1294130D02*
X1294058D01*
X1291467Y517496D01*
X1289143Y516154D01*
X1287246Y514257D01*
X1285904Y511933D01*
X1285210Y509342D01*
Y509270D01*
X1294130D01*
Y518190D01*
D02*
G37*
G36*
X659130D02*
X659058D01*
X656467Y517496D01*
X654143Y516154D01*
X652246Y514257D01*
X650904Y511933D01*
X650210Y509342D01*
Y509270D01*
X659130D01*
Y518190D01*
D02*
G37*
G36*
X1421130D02*
X1421058D01*
X1418467Y517496D01*
X1416143Y516154D01*
X1414246Y514257D01*
X1412904Y511933D01*
X1412210Y509342D01*
Y509270D01*
X1421130D01*
Y518190D01*
D02*
G37*
G36*
X1040130D02*
X1040058D01*
X1037467Y517496D01*
X1035143Y516154D01*
X1033246Y514257D01*
X1031904Y511933D01*
X1031210Y509342D01*
Y509270D01*
X1040130D01*
Y518190D01*
D02*
G37*
G36*
X1167130D02*
X1167058D01*
X1164467Y517496D01*
X1162143Y516154D01*
X1160246Y514257D01*
X1158904Y511933D01*
X1158210Y509342D01*
Y509270D01*
X1167130D01*
Y518190D01*
D02*
G37*
G36*
X1432590Y506730D02*
X1423670D01*
Y497810D01*
X1423742D01*
X1426333Y498504D01*
X1428657Y499846D01*
X1430554Y501743D01*
X1431896Y504067D01*
X1432590Y506658D01*
Y506730D01*
D02*
G37*
G36*
X1421130D02*
X1412210D01*
Y506658D01*
X1412904Y504067D01*
X1414246Y501743D01*
X1416143Y499846D01*
X1418467Y498504D01*
X1421058Y497810D01*
X1421130D01*
Y506730D01*
D02*
G37*
G36*
X1305590D02*
X1296670D01*
Y497810D01*
X1296742D01*
X1299333Y498504D01*
X1301657Y499846D01*
X1303554Y501743D01*
X1304896Y504067D01*
X1305590Y506658D01*
Y506730D01*
D02*
G37*
G36*
X1294130D02*
X1285210D01*
Y506658D01*
X1285904Y504067D01*
X1287246Y501743D01*
X1289143Y499846D01*
X1291467Y498504D01*
X1294058Y497810D01*
X1294130D01*
Y506730D01*
D02*
G37*
G36*
X1051590D02*
X1042670D01*
Y497810D01*
X1042742D01*
X1045333Y498504D01*
X1047657Y499846D01*
X1049554Y501743D01*
X1050896Y504067D01*
X1051590Y506658D01*
Y506730D01*
D02*
G37*
G36*
X1040130D02*
X1031210D01*
Y506658D01*
X1031904Y504067D01*
X1033246Y501743D01*
X1035143Y499846D01*
X1037467Y498504D01*
X1040058Y497810D01*
X1040130D01*
Y506730D01*
D02*
G37*
G36*
X670590D02*
X661670D01*
Y497810D01*
X661742D01*
X664333Y498504D01*
X666657Y499846D01*
X668554Y501743D01*
X669896Y504067D01*
X670590Y506658D01*
Y506730D01*
D02*
G37*
G36*
X659130D02*
X650210D01*
Y506658D01*
X650904Y504067D01*
X652246Y501743D01*
X654143Y499846D01*
X656467Y498504D01*
X659058Y497810D01*
X659130D01*
Y506730D01*
D02*
G37*
G36*
X661742Y492790D02*
X661670D01*
Y483870D01*
X670590D01*
Y483942D01*
X669896Y486533D01*
X668554Y488857D01*
X666657Y490754D01*
X664333Y492096D01*
X661742Y492790D01*
D02*
G37*
G36*
X1423742D02*
X1423670D01*
Y483870D01*
X1432590D01*
Y483942D01*
X1431896Y486533D01*
X1430554Y488857D01*
X1428657Y490754D01*
X1426333Y492096D01*
X1423742Y492790D01*
D02*
G37*
G36*
X1296742D02*
X1296670D01*
Y483870D01*
X1305590D01*
Y483942D01*
X1304896Y486533D01*
X1303554Y488857D01*
X1301657Y490754D01*
X1299333Y492096D01*
X1296742Y492790D01*
D02*
G37*
G36*
X1042742D02*
X1042670D01*
Y483870D01*
X1051590D01*
Y483942D01*
X1050896Y486533D01*
X1049554Y488857D01*
X1047657Y490754D01*
X1045333Y492096D01*
X1042742Y492790D01*
D02*
G37*
G36*
X1294130D02*
X1294058D01*
X1291467Y492096D01*
X1289143Y490754D01*
X1287246Y488857D01*
X1285904Y486533D01*
X1285210Y483942D01*
Y483870D01*
X1294130D01*
Y492790D01*
D02*
G37*
G36*
X659130D02*
X659058D01*
X656467Y492096D01*
X654143Y490754D01*
X652246Y488857D01*
X650904Y486533D01*
X650210Y483942D01*
Y483870D01*
X659130D01*
Y492790D01*
D02*
G37*
G36*
X1421130D02*
X1421058D01*
X1418467Y492096D01*
X1416143Y490754D01*
X1414246Y488857D01*
X1412904Y486533D01*
X1412210Y483942D01*
Y483870D01*
X1421130D01*
Y492790D01*
D02*
G37*
G36*
X1040130D02*
X1040058D01*
X1037467Y492096D01*
X1035143Y490754D01*
X1033246Y488857D01*
X1031904Y486533D01*
X1031210Y483942D01*
Y483870D01*
X1040130D01*
Y492790D01*
D02*
G37*
G36*
X1178590Y506730D02*
X1168400D01*
X1158210D01*
Y506658D01*
X1158904Y504067D01*
X1160246Y501743D01*
X1162143Y499846D01*
X1162242Y499789D01*
Y490811D01*
X1162143Y490754D01*
X1160246Y488857D01*
X1158904Y486533D01*
X1158210Y483942D01*
Y483870D01*
X1168400D01*
X1178590D01*
Y483942D01*
X1177896Y486533D01*
X1176554Y488857D01*
X1174657Y490754D01*
X1174558Y490811D01*
Y499789D01*
X1174657Y499846D01*
X1176554Y501743D01*
X1177896Y504067D01*
X1178590Y506658D01*
Y506730D01*
D02*
G37*
G36*
X1398342Y518190D02*
X1395658D01*
X1393067Y517496D01*
X1390743Y516154D01*
X1388846Y514257D01*
X1387504Y511933D01*
X1386810Y509342D01*
Y506658D01*
X1387504Y504067D01*
X1388846Y501743D01*
X1390743Y499846D01*
X1393067Y498504D01*
X1393115Y498491D01*
Y492109D01*
X1393067Y492096D01*
X1390743Y490754D01*
X1388846Y488857D01*
X1387504Y486533D01*
X1386810Y483942D01*
Y481258D01*
X1387504Y478667D01*
X1387530Y478623D01*
X1383245Y474339D01*
X1383195Y474326D01*
X1380197Y477110D01*
X1381096Y478667D01*
X1381790Y481258D01*
Y483942D01*
X1381096Y486533D01*
X1379754Y488857D01*
X1377857Y490754D01*
X1375533Y492096D01*
X1375485Y492109D01*
Y498491D01*
X1375533Y498504D01*
X1377857Y499846D01*
X1379754Y501743D01*
X1381096Y504067D01*
X1381790Y506658D01*
Y509342D01*
X1381096Y511933D01*
X1379754Y514257D01*
X1377857Y516154D01*
X1375533Y517496D01*
X1372942Y518190D01*
X1370258D01*
X1367667Y517496D01*
X1365343Y516154D01*
X1363446Y514257D01*
X1362104Y511933D01*
X1361410Y509342D01*
Y506658D01*
X1362104Y504067D01*
X1363446Y501743D01*
X1365343Y499846D01*
X1367667Y498504D01*
X1367715Y498491D01*
Y492109D01*
X1367667Y492096D01*
X1365343Y490754D01*
X1363446Y488857D01*
X1362104Y486533D01*
X1361410Y483942D01*
Y481258D01*
X1362104Y478667D01*
X1362130Y478623D01*
X1357297Y473790D01*
X1354354Y476343D01*
X1354930Y477341D01*
X1355696Y478667D01*
X1356390Y481258D01*
Y483942D01*
X1355696Y486533D01*
X1354354Y488857D01*
X1352457Y490754D01*
X1350133Y492096D01*
X1350085Y492109D01*
Y498491D01*
X1350133Y498504D01*
X1352457Y499846D01*
X1354354Y501743D01*
X1355696Y504067D01*
X1356390Y506658D01*
Y509342D01*
X1355696Y511933D01*
X1354354Y514257D01*
X1352457Y516154D01*
X1350133Y517496D01*
X1347542Y518190D01*
X1344858D01*
X1342267Y517496D01*
X1339943Y516154D01*
X1338046Y514257D01*
X1336704Y511933D01*
X1336010Y509342D01*
Y506658D01*
X1336704Y504067D01*
X1338046Y501743D01*
X1339943Y499846D01*
X1342267Y498504D01*
X1342315Y498491D01*
Y492109D01*
X1342267Y492096D01*
X1339943Y490754D01*
X1338046Y488857D01*
X1336704Y486533D01*
X1336010Y483942D01*
Y481258D01*
X1336704Y478667D01*
X1338046Y476343D01*
X1339943Y474446D01*
X1342267Y473104D01*
X1344858Y472410D01*
X1347542D01*
X1350133Y473104D01*
X1352457Y474446D01*
X1355010Y471503D01*
X1276519Y393013D01*
X1236328D01*
X1234842Y392717D01*
X1233581Y391875D01*
X1179155Y337448D01*
X1179122Y337467D01*
X1176538Y338160D01*
X1173863D01*
X1171279Y337467D01*
X1168962Y336130D01*
X1167070Y334238D01*
X1165732Y331922D01*
X1165040Y329337D01*
Y326662D01*
X1165732Y324078D01*
X1167070Y321762D01*
X1168962Y319870D01*
X1171279Y318532D01*
X1173863Y317840D01*
X1176538D01*
X1179122Y318532D01*
X1181439Y319870D01*
X1183330Y321762D01*
X1184668Y324078D01*
X1185360Y326662D01*
Y329337D01*
X1184668Y331922D01*
X1184649Y331955D01*
X1188904Y336210D01*
X1189001Y336231D01*
X1191900Y333251D01*
X1191133Y331922D01*
X1190440Y329337D01*
Y326662D01*
X1191133Y324078D01*
X1192470Y321762D01*
X1194362Y319870D01*
X1196678Y318532D01*
X1199262Y317840D01*
X1201938D01*
X1204522Y318532D01*
X1206839Y319870D01*
X1208730Y321762D01*
X1210068Y324078D01*
X1210760Y326662D01*
Y329337D01*
X1210068Y331922D01*
X1210049Y331955D01*
X1214958Y336864D01*
X1217870Y334238D01*
X1217281Y333218D01*
X1216533Y331922D01*
X1215840Y329337D01*
Y329270D01*
X1224730D01*
Y338160D01*
X1224662D01*
X1222078Y337467D01*
X1219762Y336130D01*
X1217136Y339043D01*
X1230571Y352477D01*
X1270762D01*
X1272249Y352773D01*
X1273509Y353615D01*
X1393023Y473130D01*
X1393067Y473104D01*
X1395658Y472410D01*
X1398342D01*
X1400933Y473104D01*
X1403257Y474446D01*
X1405154Y476343D01*
X1406496Y478667D01*
X1407190Y481258D01*
Y483942D01*
X1406496Y486533D01*
X1405154Y488857D01*
X1403257Y490754D01*
X1400933Y492096D01*
X1400885Y492109D01*
Y498491D01*
X1400933Y498504D01*
X1403257Y499846D01*
X1405154Y501743D01*
X1406496Y504067D01*
X1407190Y506658D01*
Y509342D01*
X1406496Y511933D01*
X1405154Y514257D01*
X1403257Y516154D01*
X1400933Y517496D01*
X1398342Y518190D01*
D02*
G37*
G36*
X1421130Y481330D02*
X1412210D01*
Y481258D01*
X1412904Y478667D01*
X1414246Y476343D01*
X1416143Y474446D01*
X1418467Y473104D01*
X1421058Y472410D01*
X1421130D01*
Y481330D01*
D02*
G37*
G36*
X1305590D02*
X1296670D01*
Y472410D01*
X1296742D01*
X1299333Y473104D01*
X1301657Y474446D01*
X1303554Y476343D01*
X1304896Y478667D01*
X1305590Y481258D01*
Y481330D01*
D02*
G37*
G36*
X1294130D02*
X1285210D01*
Y481258D01*
X1285904Y478667D01*
X1287246Y476343D01*
X1289143Y474446D01*
X1291467Y473104D01*
X1294058Y472410D01*
X1294130D01*
Y481330D01*
D02*
G37*
G36*
X1195142Y518190D02*
X1192458D01*
X1189867Y517496D01*
X1187543Y516154D01*
X1185646Y514257D01*
X1184304Y511933D01*
X1183610Y509342D01*
Y506658D01*
X1184304Y504067D01*
X1185646Y501743D01*
X1187543Y499846D01*
X1189867Y498504D01*
X1189915Y498491D01*
Y492109D01*
X1189867Y492096D01*
X1187543Y490754D01*
X1185646Y488857D01*
X1184304Y486533D01*
X1183610Y483942D01*
Y481258D01*
X1184304Y478667D01*
X1185646Y476343D01*
X1187543Y474446D01*
X1189867Y473104D01*
X1192458Y472410D01*
X1195142D01*
X1197733Y473104D01*
X1200057Y474446D01*
X1201954Y476343D01*
X1203296Y478667D01*
X1203990Y481258D01*
Y483942D01*
X1203296Y486533D01*
X1201954Y488857D01*
X1200057Y490754D01*
X1197733Y492096D01*
X1197685Y492109D01*
Y498491D01*
X1197733Y498504D01*
X1200057Y499846D01*
X1201954Y501743D01*
X1203296Y504067D01*
X1203990Y506658D01*
Y509342D01*
X1203296Y511933D01*
X1201954Y514257D01*
X1200057Y516154D01*
X1197733Y517496D01*
X1195142Y518190D01*
D02*
G37*
G36*
X1178590Y481330D02*
X1169670D01*
Y472410D01*
X1169742D01*
X1172333Y473104D01*
X1174657Y474446D01*
X1176554Y476343D01*
X1177896Y478667D01*
X1178590Y481258D01*
Y481330D01*
D02*
G37*
G36*
X1167130D02*
X1158210D01*
Y481258D01*
X1158904Y478667D01*
X1160246Y476343D01*
X1162143Y474446D01*
X1164467Y473104D01*
X1167058Y472410D01*
X1167130D01*
Y481330D01*
D02*
G37*
G36*
X1144342Y518190D02*
X1141658D01*
X1139067Y517496D01*
X1136743Y516154D01*
X1134846Y514257D01*
X1133504Y511933D01*
X1132810Y509342D01*
Y506658D01*
X1133504Y504067D01*
X1134846Y501743D01*
X1136743Y499846D01*
X1139067Y498504D01*
X1139115Y498491D01*
Y492109D01*
X1139067Y492096D01*
X1136743Y490754D01*
X1134846Y488857D01*
X1133504Y486533D01*
X1132810Y483942D01*
Y481258D01*
X1133504Y478667D01*
X1134846Y476343D01*
X1136743Y474446D01*
X1139067Y473104D01*
X1141658Y472410D01*
X1144342D01*
X1146933Y473104D01*
X1149257Y474446D01*
X1151154Y476343D01*
X1152496Y478667D01*
X1153190Y481258D01*
Y483942D01*
X1152496Y486533D01*
X1151154Y488857D01*
X1149257Y490754D01*
X1146933Y492096D01*
X1146885Y492109D01*
Y498491D01*
X1146933Y498504D01*
X1149257Y499846D01*
X1151154Y501743D01*
X1152496Y504067D01*
X1153190Y506658D01*
Y509342D01*
X1152496Y511933D01*
X1151154Y514257D01*
X1149257Y516154D01*
X1146933Y517496D01*
X1144342Y518190D01*
D02*
G37*
G36*
X1118942D02*
X1116258D01*
X1113667Y517496D01*
X1111343Y516154D01*
X1109446Y514257D01*
X1108104Y511933D01*
X1107410Y509342D01*
Y506658D01*
X1108104Y504067D01*
X1109446Y501743D01*
X1111343Y499846D01*
X1113667Y498504D01*
X1113715Y498491D01*
Y492109D01*
X1113667Y492096D01*
X1111343Y490754D01*
X1109446Y488857D01*
X1108104Y486533D01*
X1107410Y483942D01*
Y481258D01*
X1108104Y478667D01*
X1109446Y476343D01*
X1111343Y474446D01*
X1113667Y473104D01*
X1116258Y472410D01*
X1118942D01*
X1121533Y473104D01*
X1123857Y474446D01*
X1125754Y476343D01*
X1127096Y478667D01*
X1127790Y481258D01*
Y483942D01*
X1127096Y486533D01*
X1125754Y488857D01*
X1123857Y490754D01*
X1121533Y492096D01*
X1121485Y492109D01*
Y498491D01*
X1121533Y498504D01*
X1123857Y499846D01*
X1125754Y501743D01*
X1127096Y504067D01*
X1127790Y506658D01*
Y509342D01*
X1127096Y511933D01*
X1125754Y514257D01*
X1123857Y516154D01*
X1121533Y517496D01*
X1118942Y518190D01*
D02*
G37*
G36*
X1051590Y481330D02*
X1042670D01*
Y472410D01*
X1042742D01*
X1045333Y473104D01*
X1047657Y474446D01*
X1049554Y476343D01*
X1050896Y478667D01*
X1051590Y481258D01*
Y481330D01*
D02*
G37*
G36*
X1040130D02*
X1031210D01*
Y481258D01*
X1031904Y478667D01*
X1033246Y476343D01*
X1035143Y474446D01*
X1037467Y473104D01*
X1040058Y472410D01*
X1040130D01*
Y481330D01*
D02*
G37*
G36*
X712542Y518190D02*
X709858D01*
X707267Y517496D01*
X704943Y516154D01*
X703046Y514257D01*
X701704Y511933D01*
X701010Y509342D01*
Y506658D01*
X701704Y504067D01*
X703046Y501743D01*
X704943Y499846D01*
X707267Y498504D01*
X707315Y498491D01*
Y492109D01*
X707267Y492096D01*
X704943Y490754D01*
X703046Y488857D01*
X701704Y486533D01*
X701010Y483942D01*
Y481258D01*
X701704Y478667D01*
X703046Y476343D01*
X704943Y474446D01*
X707267Y473104D01*
X709858Y472410D01*
X712542D01*
X715133Y473104D01*
X717457Y474446D01*
X719354Y476343D01*
X720696Y478667D01*
X721390Y481258D01*
Y483942D01*
X720696Y486533D01*
X719354Y488857D01*
X717457Y490754D01*
X715133Y492096D01*
X715085Y492109D01*
Y498491D01*
X715133Y498504D01*
X717457Y499846D01*
X719354Y501743D01*
X720696Y504067D01*
X721390Y506658D01*
Y509342D01*
X720696Y511933D01*
X719354Y514257D01*
X717457Y516154D01*
X715133Y517496D01*
X712542Y518190D01*
D02*
G37*
G36*
X687142D02*
X684458D01*
X681867Y517496D01*
X679543Y516154D01*
X677646Y514257D01*
X676304Y511933D01*
X675610Y509342D01*
Y506658D01*
X676304Y504067D01*
X677646Y501743D01*
X679543Y499846D01*
X681867Y498504D01*
X681915Y498491D01*
Y492109D01*
X681867Y492096D01*
X679543Y490754D01*
X677646Y488857D01*
X676304Y486533D01*
X675610Y483942D01*
Y481258D01*
X676304Y478667D01*
X677646Y476343D01*
X679543Y474446D01*
X681867Y473104D01*
X684458Y472410D01*
X687142D01*
X689733Y473104D01*
X692057Y474446D01*
X693954Y476343D01*
X695296Y478667D01*
X695990Y481258D01*
Y483942D01*
X695296Y486533D01*
X693954Y488857D01*
X692057Y490754D01*
X689733Y492096D01*
X689685Y492109D01*
Y498491D01*
X689733Y498504D01*
X692057Y499846D01*
X693954Y501743D01*
X695296Y504067D01*
X695990Y506658D01*
Y509342D01*
X695296Y511933D01*
X693954Y514257D01*
X692057Y516154D01*
X689733Y517496D01*
X687142Y518190D01*
D02*
G37*
G36*
X670590Y481330D02*
X661670D01*
Y472410D01*
X661742D01*
X664333Y473104D01*
X666657Y474446D01*
X668554Y476343D01*
X669896Y478667D01*
X670590Y481258D01*
Y481330D01*
D02*
G37*
G36*
X659130D02*
X650210D01*
Y481258D01*
X650904Y478667D01*
X652246Y476343D01*
X654143Y474446D01*
X656467Y473104D01*
X659058Y472410D01*
X659130D01*
Y481330D01*
D02*
G37*
G36*
X636342Y518190D02*
X633658D01*
X631067Y517496D01*
X628743Y516154D01*
X626846Y514257D01*
X625504Y511933D01*
X624810Y509342D01*
Y506658D01*
X625504Y504067D01*
X626846Y501743D01*
X628743Y499846D01*
X631067Y498504D01*
X631115Y498491D01*
Y492109D01*
X631067Y492096D01*
X628743Y490754D01*
X626846Y488857D01*
X625504Y486533D01*
X624810Y483942D01*
Y481258D01*
X625504Y478667D01*
X626846Y476343D01*
X628743Y474446D01*
X631067Y473104D01*
X633658Y472410D01*
X636342D01*
X638933Y473104D01*
X641257Y474446D01*
X643154Y476343D01*
X644496Y478667D01*
X645190Y481258D01*
Y483942D01*
X644496Y486533D01*
X643154Y488857D01*
X641257Y490754D01*
X638933Y492096D01*
X638885Y492109D01*
Y498491D01*
X638933Y498504D01*
X641257Y499846D01*
X643154Y501743D01*
X644496Y504067D01*
X645190Y506658D01*
Y509342D01*
X644496Y511933D01*
X643154Y514257D01*
X641257Y516154D01*
X638933Y517496D01*
X636342Y518190D01*
D02*
G37*
G36*
X610942D02*
X608258D01*
X605667Y517496D01*
X603343Y516154D01*
X601446Y514257D01*
X600104Y511933D01*
X599410Y509342D01*
Y506658D01*
X600104Y504067D01*
X601446Y501743D01*
X603343Y499846D01*
X605667Y498504D01*
X605715Y498491D01*
Y492109D01*
X605667Y492096D01*
X603343Y490754D01*
X601446Y488857D01*
X600104Y486533D01*
X599410Y483942D01*
Y481258D01*
X600104Y478667D01*
X601446Y476343D01*
X603343Y474446D01*
X605667Y473104D01*
X608258Y472410D01*
X610942D01*
X613533Y473104D01*
X615857Y474446D01*
X617754Y476343D01*
X619096Y478667D01*
X619790Y481258D01*
Y483942D01*
X619096Y486533D01*
X617754Y488857D01*
X615857Y490754D01*
X613533Y492096D01*
X613485Y492109D01*
Y498491D01*
X613533Y498504D01*
X615857Y499846D01*
X617754Y501743D01*
X619096Y504067D01*
X619790Y506658D01*
Y509342D01*
X619096Y511933D01*
X617754Y514257D01*
X615857Y516154D01*
X613533Y517496D01*
X610942Y518190D01*
D02*
G37*
G36*
X279730Y393259D02*
X279679D01*
X277128Y392575D01*
X274840Y391254D01*
X272972Y389386D01*
X271651Y387098D01*
X270967Y384546D01*
Y384496D01*
X279730D01*
Y393259D01*
D02*
G37*
G36*
Y381955D02*
X270967D01*
Y381905D01*
X271651Y379353D01*
X272972Y377065D01*
X274840Y375197D01*
X277128Y373876D01*
X279679Y373192D01*
X279730D01*
Y381955D01*
D02*
G37*
G36*
X232321Y393259D02*
X229679D01*
X227127Y392575D01*
X224839Y391254D01*
X222971Y389386D01*
X221651Y387098D01*
X220967Y384546D01*
Y381905D01*
X221651Y379353D01*
X222971Y377065D01*
X224839Y375197D01*
X227127Y373876D01*
X229679Y373192D01*
X232321D01*
X234872Y373876D01*
X237160Y375197D01*
X239028Y377065D01*
X240349Y379353D01*
X241033Y381905D01*
Y384546D01*
X240349Y387098D01*
X239028Y389386D01*
X237160Y391254D01*
X234872Y392575D01*
X232321Y393259D01*
D02*
G37*
G36*
X661738Y391160D02*
X659062D01*
X656478Y390468D01*
X654162Y389130D01*
X652270Y387238D01*
X650932Y384922D01*
X650240Y382338D01*
Y379662D01*
X650932Y377078D01*
X652270Y374762D01*
X654162Y372870D01*
X656478Y371532D01*
X659062Y370840D01*
X661738D01*
X664322Y371532D01*
X666638Y372870D01*
X668530Y374762D01*
X669868Y377078D01*
X670560Y379662D01*
Y382338D01*
X669868Y384922D01*
X668530Y387238D01*
X666638Y389130D01*
X664322Y390468D01*
X661738Y391160D01*
D02*
G37*
G36*
Y365760D02*
X659062D01*
X656478Y365068D01*
X654162Y363730D01*
X652270Y361838D01*
X650932Y359522D01*
X650240Y356938D01*
Y354262D01*
X650932Y351678D01*
X652270Y349362D01*
X654162Y347470D01*
X656478Y346132D01*
X659062Y345440D01*
X661738D01*
X664322Y346132D01*
X666638Y347470D01*
X668530Y349362D01*
X669868Y351678D01*
X670560Y354262D01*
Y356938D01*
X669868Y359522D01*
X668530Y361838D01*
X666638Y363730D01*
X664322Y365068D01*
X661738Y365760D01*
D02*
G37*
G36*
X1227338Y338160D02*
X1227270D01*
Y329270D01*
X1236160D01*
Y329337D01*
X1235468Y331922D01*
X1234130Y334238D01*
X1232238Y336130D01*
X1229922Y337467D01*
X1227338Y338160D01*
D02*
G37*
G36*
X1040938D02*
X1040870D01*
Y329270D01*
X1049760D01*
Y329337D01*
X1049068Y331922D01*
X1047730Y334238D01*
X1045838Y336130D01*
X1043522Y337467D01*
X1040938Y338160D01*
D02*
G37*
G36*
X1410930D02*
X1410862D01*
X1408278Y337467D01*
X1405961Y336130D01*
X1404070Y334238D01*
X1402732Y331922D01*
X1402040Y329337D01*
Y329270D01*
X1410930D01*
Y338160D01*
D02*
G37*
G36*
X1038330D02*
X1038263D01*
X1035678Y337467D01*
X1033362Y336130D01*
X1031470Y334238D01*
X1030133Y331922D01*
X1029440Y329337D01*
Y329270D01*
X1038330D01*
Y338160D01*
D02*
G37*
G36*
X880338Y337160D02*
X877662D01*
X875078Y336468D01*
X872762Y335130D01*
X870870Y333238D01*
X869532Y330922D01*
X869331Y330171D01*
X867583Y329067D01*
X863132Y330681D01*
X863068Y330922D01*
X861730Y333238D01*
X859838Y335130D01*
X857522Y336468D01*
X854938Y337160D01*
X854870D01*
Y327000D01*
X853600D01*
Y325730D01*
X843440D01*
Y325662D01*
X844132Y323078D01*
X845470Y320762D01*
X847362Y318870D01*
X849678Y317533D01*
X852262Y316840D01*
X852428D01*
X854085Y312840D01*
X768052Y226808D01*
X766844Y225233D01*
X766084Y223398D01*
X765825Y221430D01*
Y166980D01*
X674560Y75715D01*
X670560Y77372D01*
Y77538D01*
X669868Y80122D01*
X668530Y82438D01*
X666638Y84330D01*
X664322Y85668D01*
X661738Y86360D01*
X661670D01*
Y76200D01*
X660400D01*
Y74930D01*
X650240D01*
Y74862D01*
X650932Y72278D01*
X652270Y69962D01*
X654162Y68070D01*
X656168Y66911D01*
X656532Y66558D01*
X657848Y62224D01*
X657003Y60960D01*
X650240D01*
Y40640D01*
X670560D01*
Y50205D01*
X778808Y158452D01*
X780016Y160028D01*
X780331Y160787D01*
X780776Y161862D01*
X781035Y163830D01*
Y218280D01*
X879595Y316840D01*
X880338D01*
X882922Y317533D01*
X885238Y318870D01*
X887130Y320762D01*
X888468Y323078D01*
X889160Y325662D01*
Y328338D01*
X888468Y330922D01*
X887130Y333238D01*
X885238Y335130D01*
X882922Y336468D01*
X880338Y337160D01*
D02*
G37*
G36*
X852330D02*
X852262D01*
X849678Y336468D01*
X847362Y335130D01*
X845470Y333238D01*
X844132Y330922D01*
X843440Y328338D01*
Y328270D01*
X852330D01*
Y337160D01*
D02*
G37*
G36*
X1489738Y338160D02*
X1487062D01*
X1484478Y337467D01*
X1482162Y336130D01*
X1480270Y334238D01*
X1478932Y331922D01*
X1478240Y329337D01*
Y326662D01*
X1478932Y324078D01*
X1480270Y321762D01*
X1482162Y319870D01*
X1484478Y318532D01*
X1487062Y317840D01*
X1489738D01*
X1492321Y318532D01*
X1494638Y319870D01*
X1496530Y321762D01*
X1497867Y324078D01*
X1498560Y326662D01*
Y329337D01*
X1497867Y331922D01*
X1496530Y334238D01*
X1494638Y336130D01*
X1492321Y337467D01*
X1489738Y338160D01*
D02*
G37*
G36*
X1388138D02*
X1385462D01*
X1382878Y337467D01*
X1380562Y336130D01*
X1378670Y334238D01*
X1377332Y331922D01*
X1376640Y329337D01*
Y326662D01*
X1377332Y324078D01*
X1378670Y321762D01*
X1380562Y319870D01*
X1382878Y318532D01*
X1385462Y317840D01*
X1388138D01*
X1390721Y318532D01*
X1393038Y319870D01*
X1394930Y321762D01*
X1396268Y324078D01*
X1396960Y326662D01*
Y329337D01*
X1396268Y331922D01*
X1394930Y334238D01*
X1393038Y336130D01*
X1390721Y337467D01*
X1388138Y338160D01*
D02*
G37*
G36*
X1362737D02*
X1360062D01*
X1357478Y337467D01*
X1355161Y336130D01*
X1353270Y334238D01*
X1351932Y331922D01*
X1351240Y329337D01*
Y326662D01*
X1351932Y324078D01*
X1353270Y321762D01*
X1355161Y319870D01*
X1357478Y318532D01*
X1360062Y317840D01*
X1362737D01*
X1365322Y318532D01*
X1367638Y319870D01*
X1369530Y321762D01*
X1370867Y324078D01*
X1371560Y326662D01*
Y329337D01*
X1370867Y331922D01*
X1369530Y334238D01*
X1367638Y336130D01*
X1365322Y337467D01*
X1362737Y338160D01*
D02*
G37*
G36*
X1236160Y326730D02*
X1227270D01*
Y317840D01*
X1227338D01*
X1229922Y318532D01*
X1232238Y319870D01*
X1234130Y321762D01*
X1235468Y324078D01*
X1236160Y326662D01*
Y326730D01*
D02*
G37*
G36*
X1224730D02*
X1215840D01*
Y326662D01*
X1216533Y324078D01*
X1217870Y321762D01*
X1219762Y319870D01*
X1222078Y318532D01*
X1224662Y317840D01*
X1224730D01*
Y326730D01*
D02*
G37*
G36*
X829538Y337160D02*
X826862D01*
X824278Y336468D01*
X821962Y335130D01*
X820070Y333238D01*
X818732Y330922D01*
X818040Y328338D01*
Y325662D01*
X818732Y323078D01*
X820070Y320762D01*
X821962Y318870D01*
X824278Y317533D01*
X826862Y316840D01*
X829538D01*
X832122Y317533D01*
X834438Y318870D01*
X836330Y320762D01*
X837668Y323078D01*
X838360Y325662D01*
Y328338D01*
X837668Y330922D01*
X836330Y333238D01*
X834438Y335130D01*
X832122Y336468D01*
X829538Y337160D01*
D02*
G37*
G36*
X804138D02*
X801462D01*
X798878Y336468D01*
X796562Y335130D01*
X794670Y333238D01*
X793332Y330922D01*
X792640Y328338D01*
Y325662D01*
X793332Y323078D01*
X794670Y320762D01*
X796562Y318870D01*
X798878Y317533D01*
X801462Y316840D01*
X804138D01*
X806722Y317533D01*
X809038Y318870D01*
X810930Y320762D01*
X812268Y323078D01*
X812960Y325662D01*
Y328338D01*
X812268Y330922D01*
X810930Y333238D01*
X809038Y335130D01*
X806722Y336468D01*
X804138Y337160D01*
D02*
G37*
G36*
X661738Y340360D02*
X659062D01*
X656478Y339668D01*
X654162Y338330D01*
X652270Y336438D01*
X650932Y334122D01*
X650240Y331538D01*
Y328862D01*
X650932Y326278D01*
X652270Y323962D01*
X654162Y322070D01*
X656478Y320732D01*
X659062Y320040D01*
X661738D01*
X664322Y320732D01*
X664355Y320751D01*
X669264Y315843D01*
X666638Y312930D01*
X664322Y314268D01*
X661738Y314960D01*
X659062D01*
X656478Y314268D01*
X654162Y312930D01*
X652270Y311038D01*
X650932Y308722D01*
X650240Y306138D01*
Y303462D01*
X650932Y300878D01*
X652270Y298562D01*
X654162Y296670D01*
X656478Y295332D01*
X659062Y294640D01*
X661738D01*
X664322Y295332D01*
X666638Y296670D01*
X668530Y298562D01*
X669025Y299419D01*
X673025Y298348D01*
Y285852D01*
X669025Y284781D01*
X668530Y285638D01*
X666638Y287530D01*
X664322Y288868D01*
X661738Y289560D01*
X659062D01*
X656478Y288868D01*
X654162Y287530D01*
X652270Y285638D01*
X650932Y283322D01*
X650240Y280738D01*
Y278062D01*
X650932Y275478D01*
X652270Y273162D01*
X654162Y271270D01*
X656478Y269932D01*
X659062Y269240D01*
X661292D01*
X661967Y269012D01*
X664382Y266612D01*
X661738Y264160D01*
X659062D01*
X656478Y263468D01*
X654162Y262130D01*
X652270Y260238D01*
X650932Y257922D01*
X650240Y255338D01*
Y252662D01*
X650932Y250078D01*
X652270Y247762D01*
X654162Y245870D01*
X656478Y244532D01*
X659062Y243840D01*
X661738D01*
X664994Y241300D01*
X661803Y238811D01*
X661503Y238760D01*
X659062D01*
X656478Y238068D01*
X654162Y236730D01*
X652270Y234838D01*
X650932Y232522D01*
X650240Y229938D01*
Y227262D01*
X650932Y224678D01*
X652270Y222362D01*
X654162Y220470D01*
X656478Y219132D01*
X659062Y218440D01*
X661738D01*
X664382Y215988D01*
X661967Y213588D01*
X661292Y213360D01*
X659062D01*
X656478Y212668D01*
X654162Y211330D01*
X652270Y209438D01*
X650932Y207122D01*
X650240Y204538D01*
Y201862D01*
X650932Y199278D01*
X652270Y196962D01*
X654162Y195070D01*
X656478Y193732D01*
X659062Y193040D01*
X661738D01*
X664322Y193732D01*
X666638Y195070D01*
X669264Y192157D01*
X664355Y187248D01*
X664322Y187268D01*
X661738Y187960D01*
X659062D01*
X656478Y187268D01*
X654162Y185930D01*
X652270Y184038D01*
X650932Y181722D01*
X650240Y179138D01*
Y176462D01*
X650932Y173878D01*
X652270Y171562D01*
X654162Y169670D01*
X656478Y168332D01*
X659062Y167640D01*
X661738D01*
X664322Y168332D01*
X666638Y169670D01*
X668530Y171562D01*
X669868Y173878D01*
X670560Y176462D01*
Y179138D01*
X669868Y181722D01*
X669848Y181755D01*
X679657Y191563D01*
X680499Y192823D01*
X680795Y194310D01*
Y313690D01*
X680499Y315177D01*
X679657Y316437D01*
X669848Y326245D01*
X669868Y326278D01*
X670560Y328862D01*
Y331538D01*
X669868Y334122D01*
X668530Y336438D01*
X666638Y338330D01*
X664322Y339668D01*
X661738Y340360D01*
D02*
G37*
G36*
X229823Y308290D02*
X227377D01*
X225014Y307657D01*
X222896Y306434D01*
X221166Y304704D01*
X219943Y302586D01*
X219310Y300223D01*
Y297777D01*
X219943Y295414D01*
X221166Y293296D01*
X222896Y291566D01*
X225014Y290343D01*
X227377Y289710D01*
X229823D01*
X232186Y290343D01*
X234304Y291566D01*
X236034Y293296D01*
X237257Y295414D01*
X237890Y297777D01*
Y300223D01*
X237257Y302586D01*
X236034Y304704D01*
X234304Y306434D01*
X232186Y307657D01*
X229823Y308290D01*
D02*
G37*
G36*
X278905Y227730D02*
X270142D01*
Y227679D01*
X270825Y225127D01*
X272146Y222839D01*
X274014Y220971D01*
X276302Y219650D01*
X278854Y218967D01*
X278905D01*
Y227730D01*
D02*
G37*
G36*
X237890Y218290D02*
X219310D01*
Y199710D01*
X237890D01*
Y218290D01*
D02*
G37*
G36*
X1489738Y185760D02*
X1487062D01*
X1484478Y185068D01*
X1482162Y183730D01*
X1480270Y181838D01*
X1478932Y179522D01*
X1478240Y176937D01*
Y174262D01*
X1478932Y171678D01*
X1480270Y169361D01*
X1482162Y167470D01*
X1484478Y166132D01*
X1487062Y165440D01*
X1489738D01*
X1492321Y166132D01*
X1494638Y167470D01*
X1496530Y169361D01*
X1497867Y171678D01*
X1498560Y174262D01*
Y176937D01*
X1497867Y179522D01*
X1496530Y181838D01*
X1494638Y183730D01*
X1492321Y185068D01*
X1489738Y185760D01*
D02*
G37*
G36*
X1413537D02*
X1410862D01*
X1408278Y185068D01*
X1405961Y183730D01*
X1404070Y181838D01*
X1402732Y179522D01*
X1402040Y176937D01*
Y174262D01*
X1402732Y171678D01*
X1404070Y169361D01*
X1405961Y167470D01*
X1408278Y166132D01*
X1410862Y165440D01*
X1413537D01*
X1416122Y166132D01*
X1418438Y167470D01*
X1420330Y169361D01*
X1421667Y171678D01*
X1422360Y174262D01*
Y176937D01*
X1421667Y179522D01*
X1420330Y181838D01*
X1418438Y183730D01*
X1416122Y185068D01*
X1413537Y185760D01*
D02*
G37*
G36*
X1362737D02*
X1360062D01*
X1357478Y185068D01*
X1355161Y183730D01*
X1353270Y181838D01*
X1351932Y179522D01*
X1351240Y176937D01*
Y174262D01*
X1351932Y171678D01*
X1353270Y169361D01*
X1355161Y167470D01*
X1357478Y166132D01*
X1360062Y165440D01*
X1362737D01*
X1365322Y166132D01*
X1367638Y167470D01*
X1369530Y169361D01*
X1370867Y171678D01*
X1371560Y174262D01*
Y176937D01*
X1370867Y179522D01*
X1369530Y181838D01*
X1367638Y183730D01*
X1365322Y185068D01*
X1362737Y185760D01*
D02*
G37*
G36*
X1303538D02*
X1300862D01*
X1298279Y185068D01*
X1295962Y183730D01*
X1294070Y181838D01*
X1292733Y179522D01*
X1292040Y176937D01*
Y174262D01*
X1292733Y171678D01*
X1294070Y169361D01*
X1295962Y167470D01*
X1298279Y166132D01*
X1300862Y165440D01*
X1303538D01*
X1306122Y166132D01*
X1308439Y167470D01*
X1310330Y169361D01*
X1311668Y171678D01*
X1312360Y174262D01*
Y176937D01*
X1311668Y179522D01*
X1310330Y181838D01*
X1308439Y183730D01*
X1306122Y185068D01*
X1303538Y185760D01*
D02*
G37*
G36*
X1227338D02*
X1224662D01*
X1222078Y185068D01*
X1219762Y183730D01*
X1217870Y181838D01*
X1216533Y179522D01*
X1215840Y176937D01*
Y174262D01*
X1216533Y171678D01*
X1217870Y169361D01*
X1219762Y167470D01*
X1222078Y166132D01*
X1224662Y165440D01*
X1227338D01*
X1229922Y166132D01*
X1232238Y167470D01*
X1234130Y169361D01*
X1235468Y171678D01*
X1236160Y174262D01*
Y176937D01*
X1235468Y179522D01*
X1234130Y181838D01*
X1232238Y183730D01*
X1229922Y185068D01*
X1227338Y185760D01*
D02*
G37*
G36*
X1176538D02*
X1173863D01*
X1171279Y185068D01*
X1168962Y183730D01*
X1167070Y181838D01*
X1165732Y179522D01*
X1165040Y176937D01*
Y174262D01*
X1165732Y171678D01*
X1167070Y169361D01*
X1168962Y167470D01*
X1171279Y166132D01*
X1173863Y165440D01*
X1176538D01*
X1179122Y166132D01*
X1181439Y167470D01*
X1183330Y169361D01*
X1184668Y171678D01*
X1185360Y174262D01*
Y176937D01*
X1184668Y179522D01*
X1183330Y181838D01*
X1181439Y183730D01*
X1179122Y185068D01*
X1176538Y185760D01*
D02*
G37*
G36*
X1117138D02*
X1114463D01*
X1111879Y185068D01*
X1109562Y183730D01*
X1107670Y181838D01*
X1106332Y179522D01*
X1105640Y176937D01*
Y174262D01*
X1106332Y171678D01*
X1107670Y169361D01*
X1109562Y167470D01*
X1111879Y166132D01*
X1114463Y165440D01*
X1117138D01*
X1119722Y166132D01*
X1122038Y167470D01*
X1123930Y169361D01*
X1125268Y171678D01*
X1125960Y174262D01*
Y176937D01*
X1125268Y179522D01*
X1123930Y181838D01*
X1122038Y183730D01*
X1119722Y185068D01*
X1117138Y185760D01*
D02*
G37*
G36*
X1040938D02*
X1038263D01*
X1035678Y185068D01*
X1033362Y183730D01*
X1031470Y181838D01*
X1030133Y179522D01*
X1029440Y176937D01*
Y174262D01*
X1030133Y171678D01*
X1031470Y169361D01*
X1033362Y167470D01*
X1035678Y166132D01*
X1038263Y165440D01*
X1040938D01*
X1043522Y166132D01*
X1045838Y167470D01*
X1047730Y169361D01*
X1049068Y171678D01*
X1049760Y174262D01*
Y176937D01*
X1049068Y179522D01*
X1047730Y181838D01*
X1045838Y183730D01*
X1043522Y185068D01*
X1040938Y185760D01*
D02*
G37*
G36*
X990138D02*
X987463D01*
X984878Y185068D01*
X982562Y183730D01*
X980670Y181838D01*
X979333Y179522D01*
X978640Y176937D01*
Y174262D01*
X979333Y171678D01*
X980670Y169361D01*
X982562Y167470D01*
X984878Y166132D01*
X987463Y165440D01*
X990138D01*
X992722Y166132D01*
X995039Y167470D01*
X996930Y169361D01*
X998268Y171678D01*
X998960Y174262D01*
Y176937D01*
X998268Y179522D01*
X996930Y181838D01*
X995039Y183730D01*
X992722Y185068D01*
X990138Y185760D01*
D02*
G37*
G36*
X931138Y184760D02*
X928462D01*
X925878Y184068D01*
X923562Y182730D01*
X921670Y180839D01*
X920332Y178522D01*
X919640Y175938D01*
Y173263D01*
X920332Y170679D01*
X921670Y168362D01*
X923562Y166470D01*
X925878Y165133D01*
X928462Y164440D01*
X931138D01*
X933722Y165133D01*
X936038Y166470D01*
X937930Y168362D01*
X939268Y170679D01*
X939960Y173263D01*
Y175938D01*
X939268Y178522D01*
X937930Y180839D01*
X936038Y182730D01*
X933722Y184068D01*
X931138Y184760D01*
D02*
G37*
G36*
X880338D02*
X877662D01*
X875078Y184068D01*
X872762Y182730D01*
X870870Y180839D01*
X869532Y178522D01*
X868840Y175938D01*
Y173263D01*
X869532Y170679D01*
X870870Y168362D01*
X872762Y166470D01*
X875078Y165133D01*
X877662Y164440D01*
X880338D01*
X882922Y165133D01*
X885238Y166470D01*
X887130Y168362D01*
X888468Y170679D01*
X889160Y173263D01*
Y175938D01*
X888468Y178522D01*
X887130Y180839D01*
X885238Y182730D01*
X882922Y184068D01*
X880338Y184760D01*
D02*
G37*
G36*
X804138D02*
X801462D01*
X798878Y184068D01*
X796562Y182730D01*
X794670Y180839D01*
X793332Y178522D01*
X792640Y175938D01*
Y173263D01*
X793332Y170679D01*
X794670Y168362D01*
X796562Y166470D01*
X798878Y165133D01*
X801462Y164440D01*
X804138D01*
X806722Y165133D01*
X809038Y166470D01*
X810930Y168362D01*
X812268Y170679D01*
X812960Y173263D01*
Y175938D01*
X812268Y178522D01*
X810930Y180839D01*
X809038Y182730D01*
X806722Y184068D01*
X804138Y184760D01*
D02*
G37*
G36*
X661738Y162560D02*
X659062D01*
X656478Y161868D01*
X654162Y160530D01*
X652270Y158638D01*
X650932Y156322D01*
X650240Y153738D01*
Y151062D01*
X650932Y148478D01*
X652270Y146162D01*
X654162Y144270D01*
X656478Y142932D01*
X659062Y142240D01*
X661738D01*
X664322Y142932D01*
X666638Y144270D01*
X668530Y146162D01*
X669868Y148478D01*
X670560Y151062D01*
Y153738D01*
X669868Y156322D01*
X668530Y158638D01*
X666638Y160530D01*
X664322Y161868D01*
X661738Y162560D01*
D02*
G37*
G36*
X1438938Y185760D02*
X1436262D01*
X1433678Y185068D01*
X1431362Y183730D01*
X1429470Y181838D01*
X1428132Y179522D01*
X1427440Y176937D01*
Y174262D01*
X1428132Y171678D01*
X1429470Y169361D01*
X1431362Y167470D01*
X1433678Y166132D01*
X1433715Y166122D01*
Y136609D01*
X1416259Y119153D01*
X1413721Y119833D01*
X1411079D01*
X1408527Y119149D01*
X1406240Y117829D01*
X1404372Y115961D01*
X1403051Y113673D01*
X1402367Y111121D01*
Y108479D01*
X1403051Y105928D01*
X1404372Y103640D01*
X1406240Y101772D01*
X1408527Y100451D01*
X1411079Y99767D01*
X1413721D01*
X1416273Y100451D01*
X1418560Y101772D01*
X1420428Y103640D01*
X1421749Y105928D01*
X1422433Y108479D01*
Y111121D01*
X1421753Y113659D01*
X1425708Y117614D01*
X1428909Y115158D01*
X1428051Y113673D01*
X1427367Y111121D01*
Y108479D01*
X1428051Y105928D01*
X1429372Y103640D01*
X1431240Y101772D01*
X1433528Y100451D01*
X1436079Y99767D01*
X1438721D01*
X1441273Y100451D01*
X1443561Y101772D01*
X1445429Y103640D01*
X1446750Y105928D01*
X1447433Y108479D01*
Y111121D01*
X1446750Y113673D01*
X1445429Y115961D01*
X1443561Y117829D01*
X1441273Y119149D01*
X1438721Y119833D01*
X1436079D01*
X1433528Y119149D01*
X1432042Y118292D01*
X1429586Y121493D01*
X1440347Y132253D01*
X1441189Y133513D01*
X1441485Y135000D01*
Y166122D01*
X1441521Y166132D01*
X1443838Y167470D01*
X1445730Y169361D01*
X1447068Y171678D01*
X1447760Y174262D01*
Y176937D01*
X1447068Y179522D01*
X1445730Y181838D01*
X1443838Y183730D01*
X1441521Y185068D01*
X1438938Y185760D01*
D02*
G37*
G36*
X1252738D02*
X1250062D01*
X1247478Y185068D01*
X1245162Y183730D01*
X1243270Y181838D01*
X1241933Y179522D01*
X1241240Y176937D01*
Y174262D01*
X1241933Y171678D01*
X1243270Y169361D01*
X1245162Y167470D01*
X1247478Y166132D01*
X1247515Y166122D01*
Y136409D01*
X1230259Y119153D01*
X1227721Y119833D01*
X1225079D01*
X1222527Y119149D01*
X1220239Y117829D01*
X1218372Y115961D01*
X1217051Y113673D01*
X1216367Y111121D01*
Y108479D01*
X1217051Y105928D01*
X1218372Y103640D01*
X1220239Y101772D01*
X1222527Y100451D01*
X1225079Y99767D01*
X1227721D01*
X1230273Y100451D01*
X1232560Y101772D01*
X1234428Y103640D01*
X1235749Y105928D01*
X1236433Y108479D01*
Y111121D01*
X1235753Y113659D01*
X1239708Y117614D01*
X1242908Y115158D01*
X1242051Y113673D01*
X1241367Y111121D01*
Y108479D01*
X1242051Y105928D01*
X1243372Y103640D01*
X1245240Y101772D01*
X1247527Y100451D01*
X1250079Y99767D01*
X1252721D01*
X1255273Y100451D01*
X1257561Y101772D01*
X1259428Y103640D01*
X1260749Y105928D01*
X1261433Y108479D01*
Y111121D01*
X1260749Y113673D01*
X1259428Y115961D01*
X1257561Y117829D01*
X1255273Y119149D01*
X1252721Y119833D01*
X1250079D01*
X1247527Y119149D01*
X1246042Y118292D01*
X1243586Y121493D01*
X1254147Y132053D01*
X1254989Y133314D01*
X1255285Y134800D01*
Y166122D01*
X1255322Y166132D01*
X1257638Y167470D01*
X1259530Y169361D01*
X1260868Y171678D01*
X1261560Y174262D01*
Y176937D01*
X1260868Y179522D01*
X1259530Y181838D01*
X1257638Y183730D01*
X1255322Y185068D01*
X1252738Y185760D01*
D02*
G37*
G36*
X1066338D02*
X1063663D01*
X1061078Y185068D01*
X1058762Y183730D01*
X1056870Y181838D01*
X1055533Y179522D01*
X1054840Y176937D01*
Y174262D01*
X1055533Y171678D01*
X1056870Y169361D01*
X1058762Y167470D01*
X1061078Y166132D01*
X1061115Y166122D01*
Y134009D01*
X1045259Y118153D01*
X1042721Y118833D01*
X1040079D01*
X1037527Y118149D01*
X1035240Y116828D01*
X1033372Y114960D01*
X1032051Y112673D01*
X1031367Y110121D01*
Y107479D01*
X1032051Y104927D01*
X1033372Y102640D01*
X1035240Y100772D01*
X1037527Y99451D01*
X1040079Y98767D01*
X1042721D01*
X1045273Y99451D01*
X1047560Y100772D01*
X1049428Y102640D01*
X1050749Y104927D01*
X1051433Y107479D01*
Y110121D01*
X1050753Y112659D01*
X1054708Y116614D01*
X1057909Y114158D01*
X1057051Y112673D01*
X1056367Y110121D01*
Y107479D01*
X1057051Y104927D01*
X1058372Y102640D01*
X1060240Y100772D01*
X1062528Y99451D01*
X1065079Y98767D01*
X1067721D01*
X1070273Y99451D01*
X1072561Y100772D01*
X1074429Y102640D01*
X1075750Y104927D01*
X1076433Y107479D01*
Y110121D01*
X1075750Y112673D01*
X1074429Y114960D01*
X1072561Y116828D01*
X1070273Y118149D01*
X1067721Y118833D01*
X1065079D01*
X1062528Y118149D01*
X1061042Y117291D01*
X1058586Y120492D01*
X1067747Y129653D01*
X1068589Y130913D01*
X1068885Y132400D01*
Y166122D01*
X1068922Y166132D01*
X1071238Y167470D01*
X1073130Y169361D01*
X1074468Y171678D01*
X1075160Y174262D01*
Y176937D01*
X1074468Y179522D01*
X1073130Y181838D01*
X1071238Y183730D01*
X1068922Y185068D01*
X1066338Y185760D01*
D02*
G37*
G36*
X854938Y184760D02*
X852262D01*
X849678Y184068D01*
X847362Y182730D01*
X845470Y180839D01*
X844132Y178522D01*
X843440Y175938D01*
Y173263D01*
X844132Y170679D01*
X845470Y168362D01*
X847362Y166470D01*
X849678Y165133D01*
X849715Y165123D01*
Y133600D01*
X850011Y132113D01*
X850853Y130853D01*
X861214Y120492D01*
X858758Y117291D01*
X857272Y118149D01*
X854721Y118833D01*
X852079D01*
X849527Y118149D01*
X847240Y116828D01*
X845371Y114960D01*
X844051Y112673D01*
X843367Y110121D01*
Y107479D01*
X844051Y104927D01*
X845371Y102640D01*
X847240Y100772D01*
X849527Y99451D01*
X852079Y98767D01*
X854721D01*
X857272Y99451D01*
X859560Y100772D01*
X861428Y102640D01*
X862749Y104927D01*
X863433Y107479D01*
Y110121D01*
X862749Y112673D01*
X861891Y114158D01*
X865092Y116614D01*
X869047Y112659D01*
X868367Y110121D01*
Y107479D01*
X869051Y104927D01*
X870372Y102640D01*
X872240Y100772D01*
X874528Y99451D01*
X877079Y98767D01*
X879721D01*
X882273Y99451D01*
X884560Y100772D01*
X886429Y102640D01*
X887749Y104927D01*
X888433Y107479D01*
Y110121D01*
X887749Y112673D01*
X886429Y114960D01*
X884560Y116828D01*
X882273Y118149D01*
X879721Y118833D01*
X877079D01*
X874541Y118153D01*
X857485Y135209D01*
Y165123D01*
X857522Y165133D01*
X859838Y166470D01*
X861730Y168362D01*
X863068Y170679D01*
X863760Y173263D01*
Y175938D01*
X863068Y178522D01*
X861730Y180839D01*
X859838Y182730D01*
X857522Y184068D01*
X854938Y184760D01*
D02*
G37*
G36*
X433290Y108290D02*
X425270D01*
Y100270D01*
X433290D01*
Y108290D01*
D02*
G37*
G36*
X422730D02*
X414710D01*
Y100270D01*
X422730D01*
Y108290D01*
D02*
G37*
G36*
X1464337Y185760D02*
X1461662D01*
X1459078Y185068D01*
X1456761Y183730D01*
X1454870Y181838D01*
X1453532Y179522D01*
X1452840Y176937D01*
Y174262D01*
X1453532Y171678D01*
X1454870Y169361D01*
X1456761Y167470D01*
X1459078Y166132D01*
X1459115Y166122D01*
Y144182D01*
X1458811Y143727D01*
X1458515Y142240D01*
Y119142D01*
X1456239Y117829D01*
X1454371Y115961D01*
X1453051Y113673D01*
X1452367Y111121D01*
Y108479D01*
X1453051Y105928D01*
X1454371Y103640D01*
X1456239Y101772D01*
X1458527Y100451D01*
X1461079Y99767D01*
X1463721D01*
X1466272Y100451D01*
X1468560Y101772D01*
X1470428Y103640D01*
X1471749Y105928D01*
X1472433Y108479D01*
Y111121D01*
X1471749Y113673D01*
X1470428Y115961D01*
X1468560Y117829D01*
X1466285Y119142D01*
Y140898D01*
X1466589Y141353D01*
X1466884Y142840D01*
Y166122D01*
X1466922Y166132D01*
X1469238Y167470D01*
X1471130Y169361D01*
X1472467Y171678D01*
X1473160Y174262D01*
Y176937D01*
X1472467Y179522D01*
X1471130Y181838D01*
X1469238Y183730D01*
X1466922Y185068D01*
X1464337Y185760D01*
D02*
G37*
G36*
X1388138D02*
X1385462D01*
X1382878Y185068D01*
X1380562Y183730D01*
X1378670Y181838D01*
X1377332Y179522D01*
X1376640Y176937D01*
Y174262D01*
X1377332Y171678D01*
X1378670Y169361D01*
X1380562Y167470D01*
X1382878Y166132D01*
X1382915Y166122D01*
Y142840D01*
X1383211Y141353D01*
X1383515Y140898D01*
Y119142D01*
X1381239Y117829D01*
X1379371Y115961D01*
X1378051Y113673D01*
X1377367Y111121D01*
Y108479D01*
X1378051Y105928D01*
X1379371Y103640D01*
X1381239Y101772D01*
X1383527Y100451D01*
X1386079Y99767D01*
X1388721D01*
X1391272Y100451D01*
X1393560Y101772D01*
X1395428Y103640D01*
X1396749Y105928D01*
X1397433Y108479D01*
Y111121D01*
X1396749Y113673D01*
X1395428Y115961D01*
X1393560Y117829D01*
X1391284Y119142D01*
Y142240D01*
X1390989Y143727D01*
X1390685Y144182D01*
Y166122D01*
X1390721Y166132D01*
X1393038Y167470D01*
X1394930Y169361D01*
X1396268Y171678D01*
X1396960Y174262D01*
Y176937D01*
X1396268Y179522D01*
X1394930Y181838D01*
X1393038Y183730D01*
X1390721Y185068D01*
X1388138Y185760D01*
D02*
G37*
G36*
X1363721Y119833D02*
X1361079D01*
X1358528Y119149D01*
X1356240Y117829D01*
X1354372Y115961D01*
X1353051Y113673D01*
X1352367Y111121D01*
Y108479D01*
X1353051Y105928D01*
X1354372Y103640D01*
X1356240Y101772D01*
X1358528Y100451D01*
X1361079Y99767D01*
X1363721D01*
X1366273Y100451D01*
X1368560Y101772D01*
X1370428Y103640D01*
X1371749Y105928D01*
X1372433Y108479D01*
Y111121D01*
X1371749Y113673D01*
X1370428Y115961D01*
X1368560Y117829D01*
X1366273Y119149D01*
X1363721Y119833D01*
D02*
G37*
G36*
X1278138Y185760D02*
X1275462D01*
X1272878Y185068D01*
X1270562Y183730D01*
X1268670Y181838D01*
X1267333Y179522D01*
X1266640Y176937D01*
Y174262D01*
X1267333Y171678D01*
X1268670Y169361D01*
X1270562Y167470D01*
X1272878Y166132D01*
X1272915Y166122D01*
Y144137D01*
X1272811Y143981D01*
X1272515Y142494D01*
Y119142D01*
X1270239Y117829D01*
X1268371Y115961D01*
X1267050Y113673D01*
X1266367Y111121D01*
Y108479D01*
X1267050Y105928D01*
X1268371Y103640D01*
X1270239Y101772D01*
X1272527Y100451D01*
X1275079Y99767D01*
X1277721D01*
X1280272Y100451D01*
X1282560Y101772D01*
X1284428Y103640D01*
X1285749Y105928D01*
X1286433Y108479D01*
Y111121D01*
X1285749Y113673D01*
X1284428Y115961D01*
X1282560Y117829D01*
X1280284Y119142D01*
Y141251D01*
X1280389Y141408D01*
X1280685Y142894D01*
Y166122D01*
X1280722Y166132D01*
X1283038Y167470D01*
X1284930Y169361D01*
X1286268Y171678D01*
X1286960Y174262D01*
Y176937D01*
X1286268Y179522D01*
X1284930Y181838D01*
X1283038Y183730D01*
X1280722Y185068D01*
X1278138Y185760D01*
D02*
G37*
G36*
X1201938D02*
X1199262D01*
X1196678Y185068D01*
X1194362Y183730D01*
X1192470Y181838D01*
X1191133Y179522D01*
X1190440Y176937D01*
Y174262D01*
X1191133Y171678D01*
X1192470Y169361D01*
X1194362Y167470D01*
X1196678Y166132D01*
X1196715Y166122D01*
Y143040D01*
X1197011Y141553D01*
X1197515Y140799D01*
Y119142D01*
X1195240Y117829D01*
X1193372Y115961D01*
X1192051Y113673D01*
X1191367Y111121D01*
Y108479D01*
X1192051Y105928D01*
X1193372Y103640D01*
X1195240Y101772D01*
X1197528Y100451D01*
X1200079Y99767D01*
X1202721D01*
X1205273Y100451D01*
X1207561Y101772D01*
X1209429Y103640D01*
X1210749Y105928D01*
X1211433Y108479D01*
Y111121D01*
X1210749Y113673D01*
X1209429Y115961D01*
X1207561Y117829D01*
X1205285Y119142D01*
Y142240D01*
X1204989Y143727D01*
X1204485Y144481D01*
Y166122D01*
X1204522Y166132D01*
X1206839Y167470D01*
X1208730Y169361D01*
X1210068Y171678D01*
X1210760Y174262D01*
Y176937D01*
X1210068Y179522D01*
X1208730Y181838D01*
X1206839Y183730D01*
X1204522Y185068D01*
X1201938Y185760D01*
D02*
G37*
G36*
X1177721Y119833D02*
X1175079D01*
X1172527Y119149D01*
X1170240Y117829D01*
X1168372Y115961D01*
X1167051Y113673D01*
X1166367Y111121D01*
Y108479D01*
X1167051Y105928D01*
X1168372Y103640D01*
X1170240Y101772D01*
X1172527Y100451D01*
X1175079Y99767D01*
X1177721D01*
X1180273Y100451D01*
X1182560Y101772D01*
X1184428Y103640D01*
X1185749Y105928D01*
X1186433Y108479D01*
Y111121D01*
X1185749Y113673D01*
X1184428Y115961D01*
X1182560Y117829D01*
X1180273Y119149D01*
X1177721Y119833D01*
D02*
G37*
G36*
X1091738Y185760D02*
X1089063D01*
X1086479Y185068D01*
X1084162Y183730D01*
X1082270Y181838D01*
X1080932Y179522D01*
X1080240Y176937D01*
Y174262D01*
X1080932Y171678D01*
X1082270Y169361D01*
X1084162Y167470D01*
X1086479Y166132D01*
X1086516Y166122D01*
Y142478D01*
X1086811Y140991D01*
X1087515Y139937D01*
Y118142D01*
X1085239Y116828D01*
X1083372Y114960D01*
X1082051Y112673D01*
X1081367Y110121D01*
Y107479D01*
X1082051Y104927D01*
X1083372Y102640D01*
X1085239Y100772D01*
X1087527Y99451D01*
X1090079Y98767D01*
X1092721D01*
X1095273Y99451D01*
X1097560Y100772D01*
X1099428Y102640D01*
X1100749Y104927D01*
X1101433Y107479D01*
Y110121D01*
X1100749Y112673D01*
X1099428Y114960D01*
X1097560Y116828D01*
X1095285Y118142D01*
Y141478D01*
X1094989Y142965D01*
X1094285Y144018D01*
Y166122D01*
X1094322Y166132D01*
X1096638Y167470D01*
X1098530Y169361D01*
X1099868Y171678D01*
X1100560Y174262D01*
Y176937D01*
X1099868Y179522D01*
X1098530Y181838D01*
X1096638Y183730D01*
X1094322Y185068D01*
X1091738Y185760D01*
D02*
G37*
G36*
X1015538D02*
X1012863D01*
X1010278Y185068D01*
X1007962Y183730D01*
X1006070Y181838D01*
X1004733Y179522D01*
X1004040Y176937D01*
Y174262D01*
X1004733Y171678D01*
X1006070Y169361D01*
X1007962Y167470D01*
X1010278Y166132D01*
X1010315Y166122D01*
Y143170D01*
X1010611Y141683D01*
X1011453Y140423D01*
X1012515Y139361D01*
Y118142D01*
X1010239Y116828D01*
X1008371Y114960D01*
X1007050Y112673D01*
X1006367Y110121D01*
Y107479D01*
X1007050Y104927D01*
X1008371Y102640D01*
X1010239Y100772D01*
X1012527Y99451D01*
X1015079Y98767D01*
X1017721D01*
X1020272Y99451D01*
X1022560Y100772D01*
X1024428Y102640D01*
X1025749Y104927D01*
X1026433Y107479D01*
Y110121D01*
X1025749Y112673D01*
X1024428Y114960D01*
X1022560Y116828D01*
X1020284Y118142D01*
Y140970D01*
X1019989Y142457D01*
X1019147Y143717D01*
X1018085Y144779D01*
Y166122D01*
X1018122Y166132D01*
X1020439Y167470D01*
X1022330Y169361D01*
X1023668Y171678D01*
X1024360Y174262D01*
Y176937D01*
X1023668Y179522D01*
X1022330Y181838D01*
X1020439Y183730D01*
X1018122Y185068D01*
X1015538Y185760D01*
D02*
G37*
G36*
X992721Y118833D02*
X990079D01*
X987527Y118149D01*
X985240Y116828D01*
X983372Y114960D01*
X982051Y112673D01*
X981367Y110121D01*
Y107479D01*
X982051Y104927D01*
X983372Y102640D01*
X985240Y100772D01*
X987527Y99451D01*
X990079Y98767D01*
X992721D01*
X995273Y99451D01*
X997561Y100772D01*
X999428Y102640D01*
X1000749Y104927D01*
X1001433Y107479D01*
Y110121D01*
X1000749Y112673D01*
X999428Y114960D01*
X997561Y116828D01*
X995273Y118149D01*
X992721Y118833D01*
D02*
G37*
G36*
X905738Y184760D02*
X903062D01*
X900478Y184068D01*
X898162Y182730D01*
X896270Y180839D01*
X894932Y178522D01*
X894240Y175938D01*
Y173263D01*
X894932Y170679D01*
X896270Y168362D01*
X898162Y166470D01*
X900478Y165133D01*
X900515Y165123D01*
Y143511D01*
X899811Y142457D01*
X899515Y140970D01*
Y118142D01*
X897239Y116828D01*
X895371Y114960D01*
X894051Y112673D01*
X893367Y110121D01*
Y107479D01*
X894051Y104927D01*
X895371Y102640D01*
X897239Y100772D01*
X899527Y99451D01*
X902079Y98767D01*
X904721D01*
X907272Y99451D01*
X909560Y100772D01*
X911428Y102640D01*
X912749Y104927D01*
X913433Y107479D01*
Y110121D01*
X912749Y112673D01*
X911428Y114960D01*
X909560Y116828D01*
X907284Y118142D01*
Y139429D01*
X907989Y140484D01*
X908285Y141970D01*
Y165123D01*
X908322Y165133D01*
X910638Y166470D01*
X912530Y168362D01*
X913868Y170679D01*
X914560Y173263D01*
Y175938D01*
X913868Y178522D01*
X912530Y180839D01*
X910638Y182730D01*
X908322Y184068D01*
X905738Y184760D01*
D02*
G37*
G36*
X829538D02*
X826862D01*
X824278Y184068D01*
X821962Y182730D01*
X820070Y180839D01*
X818732Y178522D01*
X818040Y175938D01*
Y173263D01*
X818732Y170679D01*
X820070Y168362D01*
X821962Y166470D01*
X824278Y165133D01*
X824315Y165123D01*
Y141678D01*
X824516Y140672D01*
Y118142D01*
X822240Y116828D01*
X820372Y114960D01*
X819051Y112673D01*
X818367Y110121D01*
Y107479D01*
X819051Y104927D01*
X820372Y102640D01*
X822240Y100772D01*
X824528Y99451D01*
X827079Y98767D01*
X829721D01*
X832273Y99451D01*
X834561Y100772D01*
X836429Y102640D01*
X837749Y104927D01*
X838433Y107479D01*
Y110121D01*
X837749Y112673D01*
X836429Y114960D01*
X834561Y116828D01*
X832285Y118142D01*
Y141478D01*
X832085Y142484D01*
Y165123D01*
X832122Y165133D01*
X834438Y166470D01*
X836330Y168362D01*
X837668Y170679D01*
X838360Y173263D01*
Y175938D01*
X837668Y178522D01*
X836330Y180839D01*
X834438Y182730D01*
X832122Y184068D01*
X829538Y184760D01*
D02*
G37*
G36*
X804721Y118833D02*
X802079D01*
X799527Y118149D01*
X797240Y116828D01*
X795372Y114960D01*
X794051Y112673D01*
X793367Y110121D01*
Y107479D01*
X794051Y104927D01*
X795372Y102640D01*
X797240Y100772D01*
X799527Y99451D01*
X802079Y98767D01*
X804721D01*
X807273Y99451D01*
X809560Y100772D01*
X811428Y102640D01*
X812749Y104927D01*
X813433Y107479D01*
Y110121D01*
X812749Y112673D01*
X811428Y114960D01*
X809560Y116828D01*
X807273Y118149D01*
X804721Y118833D01*
D02*
G37*
G36*
X433290Y97730D02*
X425270D01*
Y89710D01*
X433290D01*
Y97730D01*
D02*
G37*
G36*
X659130Y86360D02*
X659062D01*
X656478Y85668D01*
X654162Y84330D01*
X652270Y82438D01*
X650932Y80122D01*
X650240Y77538D01*
Y77470D01*
X659130D01*
Y86360D01*
D02*
G37*
G36*
X487489Y60525D02*
X487438D01*
Y51762D01*
X496201D01*
Y51813D01*
X495517Y54365D01*
X494196Y56652D01*
X492328Y58520D01*
X490040Y59841D01*
X487489Y60525D01*
D02*
G37*
G36*
X484898D02*
X484847D01*
X482295Y59841D01*
X480007Y58520D01*
X478139Y56652D01*
X476818Y54365D01*
X476135Y51813D01*
Y51762D01*
X484898D01*
Y60525D01*
D02*
G37*
G36*
X331454Y60325D02*
X328946D01*
X326524Y59676D01*
X324352Y58422D01*
X322578Y56649D01*
X321324Y54476D01*
X320675Y52054D01*
Y49546D01*
X321324Y47123D01*
X322578Y44952D01*
X324352Y43178D01*
X326524Y41924D01*
X328946Y41275D01*
X331454D01*
X333876Y41924D01*
X336049Y43178D01*
X337822Y44952D01*
X339076Y47123D01*
X339725Y49546D01*
Y52054D01*
X339076Y54476D01*
X337822Y56649D01*
X336049Y58422D01*
X333876Y59676D01*
X331454Y60325D01*
D02*
G37*
G36*
X496201Y49222D02*
X487438D01*
Y40459D01*
X487489D01*
X490040Y41143D01*
X492328Y42464D01*
X494196Y44332D01*
X495517Y46620D01*
X496201Y49171D01*
Y49222D01*
D02*
G37*
G36*
X484898D02*
X476135D01*
Y49171D01*
X476818Y46620D01*
X478139Y44332D01*
X480007Y42464D01*
X482295Y41143D01*
X484847Y40459D01*
X484898D01*
Y49222D01*
D02*
G37*
G36*
X1562925Y46540D02*
X1559076D01*
X1555301Y45789D01*
X1551745Y44316D01*
X1548544Y42178D01*
X1545822Y39456D01*
X1543684Y36256D01*
X1542211Y32700D01*
X1541460Y28925D01*
Y25076D01*
X1542211Y21301D01*
X1543684Y17744D01*
X1545822Y14544D01*
X1548544Y11823D01*
X1551745Y9684D01*
X1555301Y8211D01*
X1559076Y7460D01*
X1562925D01*
X1566700Y8211D01*
X1570256Y9684D01*
X1573456Y11823D01*
X1576178Y14544D01*
X1578316Y17744D01*
X1579789Y21301D01*
X1580540Y25076D01*
Y28925D01*
X1579789Y32700D01*
X1578316Y36256D01*
X1576178Y39456D01*
X1573456Y42178D01*
X1570256Y44316D01*
X1566700Y45789D01*
X1562925Y46540D01*
D02*
G37*
G36*
X31925D02*
X28075D01*
X24300Y45789D01*
X20744Y44316D01*
X17544Y42178D01*
X14822Y39456D01*
X12684Y36256D01*
X11211Y32700D01*
X10460Y28925D01*
Y25076D01*
X11211Y21301D01*
X12684Y17744D01*
X14822Y14544D01*
X17544Y11823D01*
X20744Y9684D01*
X24300Y8211D01*
X28075Y7460D01*
X31925D01*
X35700Y8211D01*
X39256Y9684D01*
X42456Y11823D01*
X45178Y14544D01*
X47316Y17744D01*
X48789Y21301D01*
X49540Y25076D01*
Y28925D01*
X48789Y32700D01*
X47316Y36256D01*
X45178Y39456D01*
X42456Y42178D01*
X39256Y44316D01*
X35700Y45789D01*
X31925Y46540D01*
D02*
G37*
%LPD*%
G36*
X1109003Y716690D02*
X1108104Y715133D01*
X1107410Y712542D01*
Y709858D01*
X1108104Y707267D01*
X1109446Y704943D01*
X1111343Y703046D01*
X1113667Y701704D01*
X1113715Y701691D01*
Y695309D01*
X1113667Y695296D01*
X1111343Y693954D01*
X1109446Y692057D01*
X1108104Y689733D01*
X1107410Y687142D01*
Y684458D01*
X1107422Y684412D01*
X1104900Y681012D01*
X1102378Y684412D01*
X1102390Y684458D01*
Y687142D01*
X1101696Y689733D01*
X1100354Y692057D01*
X1098457Y693954D01*
X1096133Y695296D01*
X1096085Y695309D01*
Y701691D01*
X1096133Y701704D01*
X1098457Y703046D01*
X1100354Y704943D01*
X1101696Y707267D01*
X1102390Y709858D01*
Y712542D01*
X1101696Y715133D01*
X1101670Y715177D01*
X1105955Y719461D01*
X1106005Y719474D01*
X1109003Y716690D01*
D02*
G37*
G36*
X1456074Y471005D02*
X1456061Y470955D01*
X1316991Y331884D01*
X1311678D01*
X1311668Y331922D01*
X1310330Y334238D01*
X1308439Y336130D01*
X1306122Y337467D01*
X1303538Y338160D01*
X1300862D01*
X1298279Y337467D01*
X1296949Y336700D01*
X1293969Y339599D01*
X1293990Y339696D01*
X1302707Y348413D01*
X1317498D01*
X1318985Y348709D01*
X1320245Y349551D01*
X1443823Y473130D01*
X1443867Y473104D01*
X1446458Y472410D01*
X1449142D01*
X1451733Y473104D01*
X1453290Y474003D01*
X1456074Y471005D01*
D02*
G37*
G36*
X542210Y519097D02*
X539657Y516154D01*
X538659Y516730D01*
X537333Y517496D01*
X534742Y518190D01*
X534670D01*
Y509270D01*
X543590D01*
Y509342D01*
X542896Y511933D01*
X541554Y514257D01*
X544497Y516810D01*
X549330Y511977D01*
X549304Y511933D01*
X548610Y509342D01*
Y506658D01*
X549304Y504067D01*
X550646Y501743D01*
X552543Y499846D01*
X554867Y498504D01*
X554915Y498491D01*
Y492109D01*
X554867Y492096D01*
X552543Y490754D01*
X550646Y488857D01*
X549304Y486533D01*
X548610Y483942D01*
Y481258D01*
X549304Y478667D01*
X550646Y476343D01*
X552543Y474446D01*
X554867Y473104D01*
X557458Y472410D01*
X560142D01*
X562733Y473104D01*
X563615Y473614D01*
X567312Y471854D01*
X567615Y471506D01*
Y319617D01*
X516937Y268939D01*
X516095Y267679D01*
X515885Y266621D01*
X511885Y267015D01*
Y473091D01*
X511933Y473104D01*
X514257Y474446D01*
X516154Y476343D01*
X517496Y478667D01*
X518190Y481258D01*
Y483942D01*
X517496Y486533D01*
X516154Y488857D01*
X514257Y490754D01*
X511933Y492096D01*
X511885Y492109D01*
Y498491D01*
X511933Y498504D01*
X514257Y499846D01*
X516154Y501743D01*
X517496Y504067D01*
X518190Y506658D01*
Y509342D01*
X517496Y511933D01*
X516154Y514257D01*
X514257Y516154D01*
X511933Y517496D01*
X509342Y518190D01*
X506658D01*
X504067Y517496D01*
X501743Y516154D01*
X499846Y514257D01*
X498504Y511933D01*
X497810Y509342D01*
Y506658D01*
X498504Y504067D01*
X499846Y501743D01*
X501743Y499846D01*
X504067Y498504D01*
X504115Y498491D01*
Y492109D01*
X504067Y492096D01*
X501743Y490754D01*
X499846Y488857D01*
X498504Y486533D01*
X497810Y483942D01*
Y481258D01*
X498504Y478667D01*
X499846Y476343D01*
X501743Y474446D01*
X504067Y473104D01*
X504115Y473091D01*
Y215985D01*
X495586Y207455D01*
X491890Y208986D01*
Y218290D01*
X478804D01*
X461085Y236009D01*
Y473091D01*
X461133Y473104D01*
X463457Y474446D01*
X465354Y476343D01*
X466696Y478667D01*
X467390Y481258D01*
Y483942D01*
X466696Y486533D01*
X465354Y488857D01*
X463457Y490754D01*
X461133Y492096D01*
X461085Y492109D01*
Y498491D01*
X461133Y498504D01*
X463457Y499846D01*
X465354Y501743D01*
X466696Y504067D01*
X467390Y506658D01*
Y509342D01*
X466696Y511933D01*
X467607Y515057D01*
X469214Y515892D01*
X473130Y511977D01*
X473104Y511933D01*
X472410Y509342D01*
Y506658D01*
X473104Y504067D01*
X474446Y501743D01*
X476343Y499846D01*
X478667Y498504D01*
X478715Y498491D01*
Y492109D01*
X478667Y492096D01*
X476343Y490754D01*
X474446Y488857D01*
X473104Y486533D01*
X472410Y483942D01*
Y481258D01*
X473104Y478667D01*
X474446Y476343D01*
X476343Y474446D01*
X478667Y473104D01*
X481258Y472410D01*
X483942D01*
X486533Y473104D01*
X488857Y474446D01*
X490754Y476343D01*
X492096Y478667D01*
X492790Y481258D01*
Y483942D01*
X492096Y486533D01*
X490754Y488857D01*
X488857Y490754D01*
X486533Y492096D01*
X486485Y492109D01*
Y498491D01*
X486533Y498504D01*
X488857Y499846D01*
X490754Y501743D01*
X492096Y504067D01*
X492790Y506658D01*
Y509342D01*
X492096Y511933D01*
X490754Y514257D01*
X488857Y516154D01*
X486533Y517496D01*
X483942Y518190D01*
X481258D01*
X478667Y517496D01*
X478623Y517470D01*
X471491Y524603D01*
X470231Y525445D01*
X468744Y525740D01*
X426720D01*
X425233Y525445D01*
X423973Y524603D01*
X416665Y517295D01*
X415731Y516360D01*
X412791Y516163D01*
X411568Y516782D01*
X410333Y517496D01*
X407742Y518190D01*
X407670D01*
Y508000D01*
X405130D01*
Y518190D01*
X405058D01*
X402467Y517496D01*
X401727Y517068D01*
X399271Y520269D01*
X422487Y543485D01*
X517821D01*
X542210Y519097D01*
D02*
G37*
G36*
X407670Y472410D02*
X407742D01*
X410333Y473104D01*
X410593Y473255D01*
X414593Y470945D01*
Y265921D01*
X411691Y263816D01*
X410593Y263471D01*
X408496Y264033D01*
X405854D01*
X403302Y263349D01*
X401014Y262028D01*
X399146Y260160D01*
X397825Y257873D01*
X397142Y255321D01*
Y252679D01*
X397825Y250127D01*
X399146Y247840D01*
X401014Y245972D01*
X403302Y244651D01*
X405854Y243967D01*
X408496D01*
X411339Y241500D01*
X408777Y239277D01*
X408445Y239174D01*
Y229000D01*
X407175D01*
Y227730D01*
X397142D01*
Y227679D01*
X397709Y225563D01*
X397410Y224497D01*
X395478Y221563D01*
X393991Y221267D01*
X392731Y220425D01*
X232044Y59738D01*
X229854Y60325D01*
X227346D01*
X224923Y59676D01*
X222752Y58422D01*
X220978Y56649D01*
X219724Y54476D01*
X219075Y52054D01*
Y49546D01*
X219291Y48738D01*
X216865Y45195D01*
X214935D01*
X212509Y48738D01*
X212725Y49546D01*
Y52054D01*
X212138Y54244D01*
X294339Y136445D01*
X295181Y137705D01*
X295477Y139192D01*
Y206624D01*
X395431Y306578D01*
X396273Y307838D01*
X396569Y309325D01*
Y472364D01*
X398872Y473706D01*
X400569Y474200D01*
X402467Y473104D01*
X405058Y472410D01*
X405130D01*
Y482600D01*
X407670D01*
Y472410D01*
D02*
G37*
G36*
X427915Y470385D02*
Y231746D01*
X426362Y230561D01*
X422362Y232540D01*
Y469307D01*
X426362Y471433D01*
X427915Y470385D01*
D02*
G37*
G36*
X535445Y218567D02*
X535496D01*
X538047Y219251D01*
X540335Y220572D01*
X542203Y222440D01*
X542683Y223271D01*
X546683Y222199D01*
Y210001D01*
X542683Y208929D01*
X542203Y209760D01*
X540335Y211628D01*
X538047Y212949D01*
X535496Y213633D01*
X532854D01*
X530302Y212949D01*
X528014Y211628D01*
X527569Y211182D01*
X523569Y212839D01*
Y219360D01*
X527569Y221017D01*
X528014Y220572D01*
X530302Y219251D01*
X532854Y218567D01*
X532905D01*
Y228600D01*
X535445D01*
Y218567D01*
D02*
G37*
G36*
X448555Y515196D02*
X448881Y513971D01*
X447704Y511933D01*
X447010Y509342D01*
Y506658D01*
X447704Y504067D01*
X449046Y501743D01*
X450943Y499846D01*
X453267Y498504D01*
X453315Y498491D01*
Y492109D01*
X453267Y492096D01*
X450943Y490754D01*
X449046Y488857D01*
X447704Y486533D01*
X447010Y483942D01*
Y481258D01*
X447704Y478667D01*
X449046Y476343D01*
X450943Y474446D01*
X453267Y473104D01*
X453315Y473091D01*
Y234400D01*
X453611Y232913D01*
X454453Y231653D01*
X473310Y212796D01*
Y199710D01*
X482614D01*
X484145Y196014D01*
X404029Y115899D01*
X322834D01*
X321347Y115603D01*
X320087Y114761D01*
X314753Y109427D01*
X313911Y108167D01*
X313615Y106680D01*
Y80375D01*
X291258Y58018D01*
X291039Y57691D01*
X288922Y57141D01*
X287870Y57064D01*
X286433Y57237D01*
X285249Y58422D01*
X283076Y59676D01*
X280654Y60325D01*
X278146D01*
X275723Y59676D01*
X273552Y58422D01*
X271778Y56649D01*
X270524Y54476D01*
X269875Y52054D01*
Y49546D01*
X270091Y48738D01*
X267665Y45195D01*
X265735D01*
X263309Y48738D01*
X263525Y49546D01*
Y52054D01*
X262876Y54476D01*
X261622Y56649D01*
X259848Y58422D01*
X257677Y59676D01*
X255254Y60325D01*
X252746D01*
X250324Y59676D01*
X248151Y58422D01*
X246378Y56649D01*
X245124Y54476D01*
X244475Y52054D01*
Y49546D01*
X244692Y48738D01*
X242265Y45195D01*
X240335D01*
X237908Y48738D01*
X238125Y49546D01*
Y52054D01*
X237538Y54244D01*
X394169Y210875D01*
X394987Y210956D01*
X397644Y208070D01*
X397813Y207828D01*
X397142Y205321D01*
Y202679D01*
X397825Y200128D01*
X399146Y197840D01*
X401014Y195972D01*
X403302Y194651D01*
X405854Y193967D01*
X408496D01*
X411047Y194651D01*
X413335Y195972D01*
X415203Y197840D01*
X416524Y200128D01*
X417208Y202679D01*
Y205321D01*
X416528Y207859D01*
X434547Y225879D01*
X435389Y227139D01*
X435685Y228625D01*
Y473091D01*
X435733Y473104D01*
X438057Y474446D01*
X439954Y476343D01*
X441296Y478667D01*
X441990Y481258D01*
Y483942D01*
X441296Y486533D01*
X439954Y488857D01*
X438057Y490754D01*
X435733Y492096D01*
X435685Y492109D01*
Y498491D01*
X435733Y498504D01*
X438057Y499846D01*
X439954Y501743D01*
X441296Y504067D01*
X441990Y506658D01*
Y509342D01*
X441296Y511933D01*
X440119Y513971D01*
X440445Y515196D01*
X441897Y517971D01*
X447103D01*
X448555Y515196D01*
D02*
G37*
%LPC*%
G36*
X532130Y518190D02*
X532058D01*
X529467Y517496D01*
X527143Y516154D01*
X525246Y514257D01*
X523904Y511933D01*
X523210Y509342D01*
Y509270D01*
X532130D01*
Y518190D01*
D02*
G37*
G36*
X543590Y506730D02*
X534670D01*
Y497810D01*
X534742D01*
X537333Y498504D01*
X539657Y499846D01*
X541554Y501743D01*
X542896Y504067D01*
X543590Y506658D01*
Y506730D01*
D02*
G37*
G36*
X532130D02*
X523210D01*
Y506658D01*
X523904Y504067D01*
X525246Y501743D01*
X527143Y499846D01*
X529467Y498504D01*
X532058Y497810D01*
X532130D01*
Y506730D01*
D02*
G37*
G36*
X534742Y492790D02*
X534670D01*
Y483870D01*
X543590D01*
Y483942D01*
X542896Y486533D01*
X541554Y488857D01*
X539657Y490754D01*
X537333Y492096D01*
X534742Y492790D01*
D02*
G37*
G36*
X532130D02*
X532058D01*
X529467Y492096D01*
X527143Y490754D01*
X525246Y488857D01*
X523904Y486533D01*
X523210Y483942D01*
Y483870D01*
X532130D01*
Y492790D01*
D02*
G37*
G36*
X543590Y481330D02*
X534670D01*
Y472410D01*
X534742D01*
X537333Y473104D01*
X539657Y474446D01*
X541554Y476343D01*
X542896Y478667D01*
X543590Y481258D01*
Y481330D01*
D02*
G37*
G36*
X532130D02*
X523210D01*
Y481258D01*
X523904Y478667D01*
X525246Y476343D01*
X527143Y474446D01*
X529467Y473104D01*
X532058Y472410D01*
X532130D01*
Y481330D01*
D02*
G37*
G36*
X483823Y308290D02*
X481377D01*
X479014Y307657D01*
X476896Y306434D01*
X475166Y304704D01*
X473943Y302586D01*
X473310Y300223D01*
Y297777D01*
X473943Y295414D01*
X475166Y293296D01*
X476896Y291566D01*
X479014Y290343D01*
X481377Y289710D01*
X483823D01*
X486186Y290343D01*
X488304Y291566D01*
X490034Y293296D01*
X491257Y295414D01*
X491890Y297777D01*
Y300223D01*
X491257Y302586D01*
X490034Y304704D01*
X488304Y306434D01*
X486186Y307657D01*
X483823Y308290D01*
D02*
G37*
G36*
X405905Y239033D02*
X405854D01*
X403302Y238349D01*
X401014Y237028D01*
X399146Y235160D01*
X397825Y232872D01*
X397142Y230321D01*
Y230270D01*
X405905D01*
Y239033D01*
D02*
G37*
G36*
X364890Y218290D02*
X346310D01*
Y199710D01*
X364890D01*
Y218290D01*
D02*
G37*
%LPD*%
G36*
X1379874Y471005D02*
X1379861Y470955D01*
X1269153Y360247D01*
X1228962D01*
X1227476Y359951D01*
X1226215Y359109D01*
X1204555Y337448D01*
X1204522Y337467D01*
X1201938Y338160D01*
X1199262D01*
X1196678Y337467D01*
X1195349Y336700D01*
X1192369Y339599D01*
X1192390Y339696D01*
X1237937Y385243D01*
X1278128D01*
X1279615Y385539D01*
X1280875Y386381D01*
X1367623Y473130D01*
X1367667Y473104D01*
X1370258Y472410D01*
X1372942D01*
X1375533Y473104D01*
X1377090Y474003D01*
X1379874Y471005D01*
D02*
G37*
D16*
X1412400Y109800D02*
X1437600Y135000D01*
Y175600D01*
X188722Y39878D02*
X283744D01*
X294005Y55271D02*
X317500Y78766D01*
X294005Y50139D02*
Y55271D01*
X283744Y39878D02*
X294005Y50139D01*
X317500Y78766D02*
Y106680D01*
X177800Y50800D02*
X188722Y39878D01*
X519430Y547370D02*
X558800Y508000D01*
X420878Y547370D02*
X519430D01*
X392684Y519176D02*
X420878Y547370D01*
X392684Y309325D02*
Y519176D01*
X291592Y208233D02*
X392684Y309325D01*
X291592Y139192D02*
Y208233D01*
X203200Y50800D02*
X291592Y139192D01*
X468744Y521856D02*
X482600Y508000D01*
X426720Y521856D02*
X468744D01*
X418478Y513613D02*
X426720Y521856D01*
X418478Y223520D02*
Y513613D01*
X412636Y217678D02*
X418478Y223520D01*
X395478Y217678D02*
X412636D01*
X228600Y50800D02*
X395478Y217678D01*
X254000Y435070D02*
Y482600D01*
Y435070D02*
X256000Y383226D01*
X1318600Y328000D02*
X1473200Y482600D01*
X1302200Y328000D02*
X1318600D01*
X1278128Y389128D02*
X1371600Y482600D01*
X1236328Y389128D02*
X1278128D01*
X1175200Y328000D02*
X1236328Y389128D01*
X1092200Y351600D02*
Y482600D01*
Y351600D02*
X1115800Y328000D01*
X1066800Y351600D02*
Y482600D01*
Y351600D02*
X1090400Y328000D01*
X1016000Y407184D02*
Y482600D01*
X1014200Y328000D02*
X1016000Y407184D01*
X990600D02*
Y482600D01*
X988800Y328000D02*
X990600Y407184D01*
X1065000Y132400D02*
Y175600D01*
X1041400Y108800D02*
X1065000Y132400D01*
X853600Y133600D02*
Y174600D01*
Y133600D02*
X878400Y108800D01*
X660400Y177800D02*
X676910Y194310D01*
Y313690D01*
X660400Y330200D02*
X676910Y313690D01*
X457200Y234400D02*
Y482600D01*
Y234400D02*
X482600Y209000D01*
X280175Y204000D02*
X381000Y304825D01*
Y482600D01*
X1310386Y928986D02*
X1372000Y990600D01*
X1310386Y776986D02*
Y928986D01*
X1244600Y711200D02*
X1310386Y776986D01*
X1092200Y711200D02*
X1138936Y757936D01*
Y910336D01*
X1219200Y990600D01*
X1164336Y588264D02*
X1244600Y508000D01*
X981456Y588264D02*
X1164336D01*
X911352Y658368D02*
X981456Y588264D01*
X911352Y658368D02*
Y775716D01*
X961136Y825500D01*
Y866902D01*
X959866Y956134D02*
X961136Y866902D01*
X926000Y990000D02*
X959866Y956134D01*
X896600Y877114D02*
Y888000D01*
Y877114D02*
X921914Y851800D01*
X1034200Y875001D02*
Y888600D01*
Y875001D02*
X1056400Y852800D01*
X1182600Y877001D02*
Y888600D01*
Y877001D02*
X1204800Y854800D01*
X558800Y609600D02*
Y685800D01*
Y609600D02*
X571500Y596900D01*
Y318008D02*
Y596900D01*
X519684Y266192D02*
X571500Y318008D01*
X519684Y59008D02*
Y266192D01*
X511168Y50492D02*
X519684Y59008D01*
X950456Y761791D02*
X983697D01*
X1004316Y741172D01*
Y675640D02*
Y741172D01*
Y675640D02*
X1005840Y674116D01*
X1154684D01*
X1320800Y508000D01*
X1182624Y395224D02*
X1270000Y482600D01*
X1143000Y395224D02*
X1182624D01*
X1137920Y390144D02*
X1143000Y395224D01*
X1137920Y317246D02*
Y390144D01*
X1132840Y312166D02*
X1137920Y317246D01*
X919234Y312166D02*
X1132840D01*
X904400Y327000D02*
X919234Y312166D01*
X508000Y214376D02*
Y482600D01*
X405638Y112014D02*
X508000Y214376D01*
X322834Y112014D02*
X405638D01*
X317500Y106680D02*
X322834Y112014D01*
X431800Y228625D02*
Y482600D01*
X407175Y204000D02*
X431800Y228625D01*
X1200600Y328000D02*
X1228962Y356362D01*
X1270762D01*
X1397000Y482600D01*
X1276800Y328000D02*
X1301098Y352298D01*
X1317498D01*
X1447800Y482600D01*
X228600Y508000D02*
X243078Y522478D01*
X259080D01*
X267716Y513842D01*
Y421509D02*
Y513842D01*
Y421509D02*
X306000Y383226D01*
X1226400Y109800D02*
X1251400Y134800D01*
Y175600D01*
X331000Y383226D02*
Y456400D01*
X304800Y482600D02*
X331000Y456400D01*
X356000Y383226D02*
Y456800D01*
X330200Y482600D02*
X356000Y456800D01*
X584200Y177800D02*
Y482600D01*
Y177800D02*
X660400Y101600D01*
X1016000Y711200D02*
X1056894Y752094D01*
X1068070D01*
X1071626Y755650D01*
Y985374D01*
X1065000Y992000D02*
X1071626Y985374D01*
X660400Y203200D02*
X671830Y214630D01*
Y267970D01*
X660400Y279400D02*
X671830Y267970D01*
X208300Y860000D02*
Y903000D01*
X508000Y482600D02*
Y508000D01*
X558800Y482600D02*
Y508000D01*
X482600Y482600D02*
Y508000D01*
X330200Y482600D02*
Y508000D01*
X304800Y482600D02*
Y508000D01*
X228600Y482600D02*
Y508000D01*
X254000Y482600D02*
Y508000D01*
X1219200Y482600D02*
Y508000D01*
X1193800Y482600D02*
Y508000D01*
X1143000Y482600D02*
Y508000D01*
X1117600Y482600D02*
Y508000D01*
X1386800Y142840D02*
Y175600D01*
Y142840D02*
X1387400Y142240D01*
Y109800D02*
Y142240D01*
X1463000Y142840D02*
Y175600D01*
X1462400Y142240D02*
X1463000Y142840D01*
X1462400Y109800D02*
Y142240D01*
X1473200Y482600D02*
Y508000D01*
X1447800Y482600D02*
Y508000D01*
X1397000Y482600D02*
Y508000D01*
X1371600Y482600D02*
Y508000D01*
X1200600Y143040D02*
Y175600D01*
Y143040D02*
X1201400Y142240D01*
Y109800D02*
Y142240D01*
X1276800Y142894D02*
Y175600D01*
X1276400Y142494D02*
X1276800Y142894D01*
X1276400Y109800D02*
Y142494D01*
X1092200Y482600D02*
Y508000D01*
X1066800Y482600D02*
Y508000D01*
X1016000Y482600D02*
Y508000D01*
X990600Y482600D02*
Y508000D01*
X1014200Y143170D02*
Y175600D01*
Y143170D02*
X1016400Y140970D01*
Y108800D02*
Y140970D01*
X1090400Y142478D02*
Y175600D01*
Y142478D02*
X1091400Y141478D01*
Y108800D02*
Y141478D01*
X1346200Y482600D02*
Y508000D01*
X1270000Y482600D02*
Y508000D01*
X1320800Y685800D02*
Y711200D01*
X1270000Y685800D02*
Y711200D01*
X828200Y141678D02*
Y174600D01*
Y141678D02*
X828400Y141478D01*
Y108800D02*
Y141478D01*
X904400Y141970D02*
Y174600D01*
X903400Y140970D02*
X904400Y141970D01*
X903400Y108800D02*
Y140970D01*
X1143000Y685800D02*
Y711200D01*
X711200Y482600D02*
Y508000D01*
X1117600Y685800D02*
Y711200D01*
X685800Y482600D02*
Y508000D01*
X635000Y482600D02*
Y508000D01*
X609600Y482600D02*
Y508000D01*
X584200Y482600D02*
Y508000D01*
X457200Y482600D02*
Y508000D01*
X431800Y482600D02*
Y508000D01*
X381000Y482600D02*
Y508000D01*
X279400Y482600D02*
Y508000D01*
X711200Y685800D02*
Y711200D01*
X635000Y685800D02*
Y711200D01*
X609600Y685800D02*
Y711200D01*
X584200Y685800D02*
Y711200D01*
X558800Y685800D02*
Y711200D01*
X508000Y685800D02*
Y711200D01*
X482600Y685800D02*
Y711200D01*
X457200Y685800D02*
Y711200D01*
X431800Y685800D02*
Y711200D01*
X381000Y685800D02*
Y711200D01*
X355600Y685800D02*
Y711200D01*
X330200Y685800D02*
Y711200D01*
X304800Y685800D02*
Y711200D01*
X254000Y685800D02*
Y711200D01*
X228600Y685800D02*
Y711200D01*
X1473200Y685800D02*
Y711200D01*
X1397000Y685800D02*
Y711200D01*
X1371600Y685800D02*
Y711200D01*
X1346200Y685800D02*
Y711200D01*
X1244600Y685800D02*
Y711200D01*
X1219200Y685800D02*
Y711200D01*
X1193800Y685800D02*
Y711200D01*
X1092200Y685800D02*
Y711200D01*
X1066800Y685800D02*
Y711200D01*
X1016000Y685800D02*
Y711200D01*
X990600Y685800D02*
Y711200D01*
X1320800Y482600D02*
Y508000D01*
X1244600Y482600D02*
Y508000D01*
X896600Y888000D02*
Y913400D01*
X922000Y888000D02*
Y913400D01*
X1034200Y888600D02*
Y914000D01*
X1059600Y888600D02*
Y914000D01*
X1182600Y888600D02*
Y914000D01*
X1208000Y888600D02*
Y914000D01*
X1333200Y889600D02*
Y915000D01*
X1358600Y889600D02*
Y915000D01*
X355600Y482600D02*
Y508000D01*
D18*
X231000Y383226D02*
D03*
X256000D02*
D03*
X281000D02*
D03*
X306000D02*
D03*
X331000D02*
D03*
X356000D02*
D03*
X1397000Y990600D02*
D03*
X1384000Y1069000D02*
D03*
X1244200Y990600D02*
D03*
X1230000Y1070000D02*
D03*
X1090000Y992000D02*
D03*
X1077000Y1071000D02*
D03*
X951000Y990000D02*
D03*
X939000Y1070000D02*
D03*
X534175Y228600D02*
D03*
X407175Y229000D02*
D03*
X280175D02*
D03*
X486168Y50492D02*
D03*
X1041400Y108800D02*
D03*
X1359000Y1069000D02*
D03*
X1347000Y990600D02*
D03*
X1205000Y1070000D02*
D03*
X1194200Y990600D02*
D03*
X1052000Y1071000D02*
D03*
X914000Y1070000D02*
D03*
X1040000Y992000D02*
D03*
X901000Y990000D02*
D03*
X536168Y50492D02*
D03*
X407175Y254000D02*
D03*
X534175Y253600D02*
D03*
X280175Y254000D02*
D03*
X1016400Y108800D02*
D03*
X1091400D02*
D03*
X1066400D02*
D03*
X991400D02*
D03*
X803400D02*
D03*
X828400D02*
D03*
X853400D02*
D03*
X878400D02*
D03*
X903400D02*
D03*
X534175Y203600D02*
D03*
X280175Y204000D02*
D03*
X407175D02*
D03*
X1362400Y109800D02*
D03*
X1387400D02*
D03*
X1412400D02*
D03*
X1437400D02*
D03*
X1462400D02*
D03*
X1176400D02*
D03*
X1201400D02*
D03*
X1226400D02*
D03*
X1251400D02*
D03*
X1276400D02*
D03*
X511168Y50492D02*
D03*
X1372000Y990600D02*
D03*
X1065000Y992000D02*
D03*
X926000Y990000D02*
D03*
X1219200Y990600D02*
D03*
D19*
X660400Y50800D02*
D03*
D20*
Y76200D02*
D03*
Y101600D02*
D03*
Y127000D02*
D03*
Y152400D02*
D03*
Y177800D02*
D03*
Y203200D02*
D03*
Y228600D02*
D03*
Y254000D02*
D03*
Y279400D02*
D03*
Y304800D02*
D03*
Y330200D02*
D03*
Y355600D02*
D03*
Y381000D02*
D03*
X1226000Y328000D02*
D03*
X1412200D02*
D03*
X1039600D02*
D03*
X853600Y327000D02*
D03*
X1065000Y175600D02*
D03*
X1437600Y328000D02*
D03*
X1251400D02*
D03*
X1065000D02*
D03*
X879000Y327000D02*
D03*
X1090400Y328000D02*
D03*
X988800D02*
D03*
X1014200D02*
D03*
Y175600D02*
D03*
X1090400D02*
D03*
X1039600D02*
D03*
X1115800Y328000D02*
D03*
X929800Y327000D02*
D03*
X904400D02*
D03*
X828200D02*
D03*
X802800D02*
D03*
X929800Y174600D02*
D03*
X904400D02*
D03*
X879000D02*
D03*
X853600D02*
D03*
X828200D02*
D03*
X802800D02*
D03*
X1115800Y175600D02*
D03*
X988800D02*
D03*
X1302200Y328000D02*
D03*
X1276800D02*
D03*
X1200600D02*
D03*
X1175200D02*
D03*
X1302200Y175600D02*
D03*
X1276800D02*
D03*
X1251400D02*
D03*
X1226000D02*
D03*
X1200600D02*
D03*
X1175200D02*
D03*
X1488400Y328000D02*
D03*
X1463000D02*
D03*
X1386800D02*
D03*
X1361400D02*
D03*
X1488400Y175600D02*
D03*
X1463000D02*
D03*
X1437600D02*
D03*
X1412200D02*
D03*
X1386800D02*
D03*
X1361400D02*
D03*
D21*
X304800Y508000D02*
D03*
Y482600D02*
D03*
X1422400Y711200D02*
D03*
Y685800D02*
D03*
X1295400D02*
D03*
Y711200D02*
D03*
Y508000D02*
D03*
X1168400Y711200D02*
D03*
Y685800D02*
D03*
X1422400Y508000D02*
D03*
X1295400Y482600D02*
D03*
X1422400D02*
D03*
X1168400D02*
D03*
Y508000D02*
D03*
X660400Y711200D02*
D03*
X1041400D02*
D03*
X660400Y685800D02*
D03*
X1041400D02*
D03*
X533400D02*
D03*
Y508000D02*
D03*
X279400Y711200D02*
D03*
X533400D02*
D03*
X406400Y685800D02*
D03*
Y508000D02*
D03*
Y711200D02*
D03*
X279400Y685800D02*
D03*
X1041400Y482600D02*
D03*
Y508000D02*
D03*
X660400D02*
D03*
X533400Y482600D02*
D03*
X660400D02*
D03*
X406400D02*
D03*
X1447800Y711200D02*
D03*
Y685800D02*
D03*
X685800Y711200D02*
D03*
Y685800D02*
D03*
X1066800Y482600D02*
D03*
Y508000D02*
D03*
X990600Y482600D02*
D03*
Y508000D02*
D03*
X1016000Y482600D02*
D03*
Y508000D02*
D03*
X1092200Y482600D02*
D03*
Y508000D02*
D03*
X711200Y482600D02*
D03*
X685800D02*
D03*
X711200Y508000D02*
D03*
X685800D02*
D03*
X635000D02*
D03*
Y482600D02*
D03*
X609600Y508000D02*
D03*
Y482600D02*
D03*
X584200Y508000D02*
D03*
Y482600D02*
D03*
X457200Y508000D02*
D03*
Y482600D02*
D03*
X431800Y508000D02*
D03*
Y482600D02*
D03*
X381000Y508000D02*
D03*
Y482600D02*
D03*
X355600Y508000D02*
D03*
Y482600D02*
D03*
X330200Y508000D02*
D03*
Y482600D02*
D03*
X279400Y508000D02*
D03*
Y482600D02*
D03*
X254000Y508000D02*
D03*
Y482600D02*
D03*
X228600Y508000D02*
D03*
Y482600D02*
D03*
X482600D02*
D03*
Y508000D02*
D03*
X508000Y482600D02*
D03*
Y508000D02*
D03*
X558800Y482600D02*
D03*
Y508000D02*
D03*
X1473200Y685800D02*
D03*
Y711200D02*
D03*
X1397000D02*
D03*
Y685800D02*
D03*
X1371600Y711200D02*
D03*
Y685800D02*
D03*
X1346200Y711200D02*
D03*
Y685800D02*
D03*
X1320800Y711200D02*
D03*
Y685800D02*
D03*
X1270000Y711200D02*
D03*
Y685800D02*
D03*
X1244600Y711200D02*
D03*
Y685800D02*
D03*
X1219200Y711200D02*
D03*
Y685800D02*
D03*
X1193800Y711200D02*
D03*
Y685800D02*
D03*
X1143000Y711200D02*
D03*
Y685800D02*
D03*
X1117600Y711200D02*
D03*
Y685800D02*
D03*
X1092200Y711200D02*
D03*
Y685800D02*
D03*
X1066800Y711200D02*
D03*
Y685800D02*
D03*
X1016000Y711200D02*
D03*
Y685800D02*
D03*
X990600Y711200D02*
D03*
Y685800D02*
D03*
X228600D02*
D03*
Y711200D02*
D03*
X254000Y685800D02*
D03*
Y711200D02*
D03*
X304800Y685800D02*
D03*
Y711200D02*
D03*
X330200Y685800D02*
D03*
Y711200D02*
D03*
X355600Y685800D02*
D03*
Y711200D02*
D03*
X381000Y685800D02*
D03*
Y711200D02*
D03*
X431800Y685800D02*
D03*
Y711200D02*
D03*
X457200Y685800D02*
D03*
Y711200D02*
D03*
X482600Y685800D02*
D03*
Y711200D02*
D03*
X508000Y685800D02*
D03*
Y711200D02*
D03*
X558800Y685800D02*
D03*
Y711200D02*
D03*
X584200Y685800D02*
D03*
Y711200D02*
D03*
X609600Y685800D02*
D03*
Y711200D02*
D03*
X635000Y685800D02*
D03*
Y711200D02*
D03*
X711200D02*
D03*
Y685800D02*
D03*
X1473200Y482600D02*
D03*
X1447800D02*
D03*
X1473200Y508000D02*
D03*
X1447800D02*
D03*
X1397000D02*
D03*
Y482600D02*
D03*
X1371600Y508000D02*
D03*
Y482600D02*
D03*
X1346200Y508000D02*
D03*
Y482600D02*
D03*
X1320800Y508000D02*
D03*
Y482600D02*
D03*
X1270000Y508000D02*
D03*
Y482600D02*
D03*
X1244600Y508000D02*
D03*
Y482600D02*
D03*
X1219200Y508000D02*
D03*
Y482600D02*
D03*
X1193800Y508000D02*
D03*
Y482600D02*
D03*
X1143000Y508000D02*
D03*
Y482600D02*
D03*
X1117600Y508000D02*
D03*
Y482600D02*
D03*
D22*
X1409400Y915000D02*
D03*
Y889600D02*
D03*
X1258800Y914000D02*
D03*
Y888600D02*
D03*
X1110400D02*
D03*
Y914000D02*
D03*
X972800Y888000D02*
D03*
Y913400D02*
D03*
X1384000Y915000D02*
D03*
X1085000Y914000D02*
D03*
X1384000Y889600D02*
D03*
X1233400Y914000D02*
D03*
X1085000Y888600D02*
D03*
X947400Y913400D02*
D03*
X1233400Y888600D02*
D03*
X947400Y888000D02*
D03*
X1358600Y915000D02*
D03*
Y889600D02*
D03*
X1333200D02*
D03*
X1208000Y914000D02*
D03*
Y888600D02*
D03*
X1182600D02*
D03*
X1059600Y914000D02*
D03*
Y888600D02*
D03*
X1034200D02*
D03*
X922000Y913400D02*
D03*
Y888000D02*
D03*
X896600D02*
D03*
D23*
X1397000Y857800D02*
D03*
X1233343Y854800D02*
D03*
X1084943Y852800D02*
D03*
X950456Y851792D02*
D03*
X334000Y99000D02*
D03*
X228600Y299000D02*
D03*
X355600D02*
D03*
X482600D02*
D03*
X921914Y851800D02*
D03*
X1368457Y857800D02*
D03*
X777762Y991345D02*
D03*
X727000Y991200D02*
D03*
X1056400Y852800D02*
D03*
X625400Y991200D02*
D03*
X1204800Y854800D02*
D03*
X676200Y991200D02*
D03*
D24*
X419000Y924000D02*
D03*
X232000Y979000D02*
D03*
D25*
X318000Y952250D02*
D03*
D26*
X367700Y860000D02*
D03*
X208300Y903000D02*
D03*
D27*
X33500Y932900D02*
D03*
D28*
X424000Y99000D02*
D03*
D29*
X304800Y50800D02*
D03*
X330200D02*
D03*
X177800D02*
D03*
X203200D02*
D03*
X228600D02*
D03*
X254000D02*
D03*
X279400D02*
D03*
D30*
X318000Y1033750D02*
D03*
D31*
X232000Y1029000D02*
D03*
X419000Y999000D02*
D03*
D32*
X371000Y1022800D02*
D03*
Y997400D02*
D03*
D33*
X33500Y1009100D02*
D03*
D34*
X228600Y209000D02*
D03*
X355600D02*
D03*
X482600D02*
D03*
X1056400Y762800D02*
D03*
X1084943D02*
D03*
X921914Y761800D02*
D03*
X1368457Y767800D02*
D03*
X1397000D02*
D03*
X1233343Y764800D02*
D03*
X950456Y761791D02*
D03*
X777762Y1081345D02*
D03*
X727000Y1081200D02*
D03*
X625400D02*
D03*
X1204800Y764800D02*
D03*
X676200Y1081200D02*
D03*
D35*
X1333200Y915000D02*
D03*
X1182600Y914000D02*
D03*
X1034200D02*
D03*
X896600Y913400D02*
D03*
D36*
X208300Y860000D02*
D03*
X367700Y903000D02*
D03*
D37*
X371000Y972000D02*
D03*
D38*
X30000Y1115000D02*
D03*
X1561000D02*
D03*
Y27000D02*
D03*
X30000D02*
D03*
D39*
X406400Y482600D02*
Y508000D01*
X304800Y50800D02*
X306134Y49466D01*
Y38967D02*
Y49466D01*
Y38967D02*
X315100Y30000D01*
X355000D01*
X424000Y99000D01*
X280175Y229000D02*
X293878Y242703D01*
Y370348D01*
X281000Y383226D02*
X293878Y370348D01*
X1168400Y482600D02*
Y508000D01*
D40*
X1251695Y316305D02*
Y327705D01*
Y316305D02*
X1277000Y291000D01*
X1251400Y328000D02*
X1251695Y327705D01*
X1277000Y291000D02*
X1400600D01*
X1437600Y328000D01*
X1488440Y378840D01*
Y645160D01*
X1447800Y685800D02*
X1488440Y645160D01*
X1384000Y889600D02*
X1400602Y872998D01*
X1411478D01*
X1447800Y836676D01*
Y711200D02*
Y836676D01*
X773430Y221430D02*
X879000Y327000D01*
X773430Y163830D02*
Y221430D01*
X660400Y50800D02*
X773430Y163830D01*
X534175Y253600D02*
X554288Y233487D01*
Y68612D02*
Y233487D01*
X536168Y50492D02*
X554288Y68612D01*
X685800Y685800D02*
Y711200D01*
X1447800Y685800D02*
Y711200D01*
X947400Y888000D02*
Y913400D01*
D41*
X357886Y984286D02*
X371000Y997400D01*
X357886Y912814D02*
Y984286D01*
Y912814D02*
X367700Y903000D01*
X355600Y299000D02*
X368554Y311954D01*
Y442976D01*
X368300Y443230D02*
X368554Y442976D01*
X368300Y443230D02*
Y771652D01*
X380746Y784098D01*
Y889954D01*
X367700Y903000D02*
X380746Y889954D01*
M02*
