G04*
G04 #@! TF.GenerationSoftware,Altium Limited,Altium Designer,26.5.0 (11)*
G04*
G04 Layer_Physical_Order=1*
G04 Layer_Color=255*
G04 Board_Origin=0|0*
%FSLAX44Y44*%
%MOMM*%
G71*
G04*
G04 #@! TF.SameCoordinates,BF38CAAB-9107-40E0-8CC0-74BF54994753*
G04*
G04*
G04 #@! TF.FilePolarity,Positive*
G04*
G01*
G75*
%ADD16C,0.2540*%
%ADD18C,1.4986*%
%ADD19R,1.5240X1.5240*%
%ADD20C,1.5240*%
%ADD21C,1.5300*%
%ADD22C,1.6050*%
%ADD23C,1.3500*%
%ADD24R,1.3000X1.3000*%
%ADD25C,1.2000*%
%ADD26C,1.6000*%
G04:AMPARAMS|DCode=27|XSize=2.25mm|YSize=2.25mm|CornerRadius=0.5625mm|HoleSize=0mm|Usage=FLASHONLY|Rotation=90.000|XOffset=0mm|YOffset=0mm|HoleType=Round|Shape=RoundedRectangle|*
%AMROUNDEDRECTD27*
21,1,2.2500,1.1250,0,0,90.0*
21,1,1.1250,2.2500,0,0,90.0*
1,1,1.1250,0.5625,0.5625*
1,1,1.1250,0.5625,-0.5625*
1,1,1.1250,-0.5625,-0.5625*
1,1,1.1250,-0.5625,0.5625*
%
%ADD27ROUNDEDRECTD27*%
%ADD28R,1.3500X1.3500*%
%ADD29C,1.3970*%
%ADD30R,1.2000X1.2000*%
%ADD31C,1.3000*%
%ADD32C,1.6000*%
%ADD33C,2.2500*%
%ADD34R,1.3500X1.3500*%
%ADD35R,1.6050X1.6050*%
%ADD36R,1.6000X1.6000*%
%ADD37R,1.6000X1.6000*%
%ADD38C,3.4000*%
%ADD39C,0.7000*%
%ADD40C,1.0000*%
%ADD41C,0.5000*%
G36*
X903315Y1007192D02*
X901302Y1002133D01*
X899669Y1002087D01*
X881561Y1020194D01*
X883232Y1025594D01*
X884647Y1025859D01*
X903315Y1007192D01*
D02*
G37*
G36*
X802000Y1009168D02*
Y987000D01*
X801000Y986000D01*
X789727D01*
X787019Y990000D01*
X787039Y990075D01*
X777762D01*
X768484D01*
X768504Y990000D01*
X765796Y986000D01*
X739076D01*
X736323Y989930D01*
X727000D01*
X717677D01*
X714923Y986000D01*
X688276D01*
X685523Y989930D01*
X676200D01*
X666877D01*
X664123Y986000D01*
X637476D01*
X634723Y989930D01*
X625400D01*
X616077D01*
X613323Y986000D01*
X420287D01*
X420190Y989960D01*
X422489Y990576D01*
X424551Y991766D01*
X426234Y993449D01*
X427424Y995510D01*
X428018Y997730D01*
X419000D01*
X409981D01*
X410576Y995510D01*
X411766Y993449D01*
X413449Y991766D01*
X415511Y990576D01*
X417810Y989960D01*
X417713Y986000D01*
X379968D01*
X378506Y990000D01*
X379434Y990928D01*
X380822Y993332D01*
X381540Y996012D01*
Y996130D01*
X371000D01*
X360460D01*
Y996012D01*
X361178Y993332D01*
X362566Y990928D01*
X363494Y990000D01*
X362032Y986000D01*
X348000D01*
Y1011000D01*
X364666Y1011037D01*
X366711Y1007400D01*
X366619Y1007041D01*
X364528Y1005834D01*
X362566Y1003872D01*
X361178Y1001468D01*
X360460Y998788D01*
Y998670D01*
X371000D01*
X381540D01*
Y998788D01*
X380822Y1001468D01*
X379434Y1003872D01*
X377472Y1005834D01*
X375348Y1007060D01*
X375246Y1007431D01*
X377207Y1011064D01*
X412458Y1011142D01*
X412892Y1010531D01*
X413449Y1006234D01*
X411766Y1004550D01*
X410576Y1002489D01*
X409981Y1000270D01*
X419000D01*
X428018D01*
X427424Y1002489D01*
X426234Y1004550D01*
X424551Y1006234D01*
X425004Y1010590D01*
X425400Y1011171D01*
X799168Y1011994D01*
X802000Y1009168D01*
D02*
G37*
G36*
X1447000Y1117461D02*
Y872000D01*
X1362214D01*
X1360527Y874257D01*
X1360513Y874379D01*
X1362559Y879723D01*
X1362678Y879755D01*
X1365087Y881146D01*
X1367054Y883113D01*
X1368445Y885522D01*
X1368712Y886518D01*
X1373888D01*
X1374155Y885522D01*
X1375546Y883113D01*
X1377513Y881146D01*
X1379922Y879755D01*
X1382609Y879035D01*
X1382730D01*
Y889600D01*
X1385270D01*
Y879035D01*
X1385391D01*
X1388078Y879755D01*
X1390487Y881146D01*
X1392454Y883113D01*
X1393845Y885522D01*
X1394112Y886518D01*
X1399288D01*
X1399555Y885522D01*
X1400946Y883113D01*
X1402913Y881146D01*
X1405322Y879755D01*
X1408009Y879035D01*
X1410791D01*
X1413478Y879755D01*
X1415887Y881146D01*
X1417854Y883113D01*
X1419245Y885522D01*
X1419965Y888209D01*
Y890991D01*
X1419245Y893678D01*
X1417854Y896087D01*
X1415887Y898054D01*
X1413478Y899445D01*
X1412482Y899712D01*
Y904888D01*
X1413478Y905155D01*
X1415887Y906546D01*
X1417854Y908513D01*
X1419245Y910922D01*
X1419965Y913609D01*
Y916391D01*
X1419245Y919078D01*
X1417854Y921487D01*
X1415887Y923454D01*
X1413478Y924845D01*
X1410791Y925565D01*
X1408009D01*
X1405322Y924845D01*
X1402913Y923454D01*
X1400946Y921487D01*
X1399555Y919078D01*
X1399288Y918082D01*
X1394112D01*
X1393845Y919078D01*
X1392454Y921487D01*
X1390487Y923454D01*
X1388078Y924845D01*
X1385391Y925565D01*
X1385270D01*
Y915000D01*
X1382730D01*
Y925565D01*
X1382609D01*
X1379922Y924845D01*
X1377513Y923454D01*
X1375546Y921487D01*
X1374155Y919078D01*
X1373888Y918082D01*
X1368712D01*
X1368445Y919078D01*
X1367054Y921487D01*
X1365087Y923454D01*
X1362678Y924845D01*
X1359991Y925565D01*
X1357209D01*
X1354522Y924845D01*
X1352113Y923454D01*
X1350146Y921487D01*
X1348755Y919078D01*
X1343765Y919773D01*
Y925565D01*
X1322635D01*
Y904435D01*
X1328426D01*
X1329122Y899445D01*
X1326713Y898054D01*
X1324746Y896087D01*
X1323355Y893678D01*
X1322635Y890991D01*
Y888209D01*
X1323355Y885522D01*
X1324746Y883113D01*
X1326713Y881146D01*
X1329122Y879755D01*
X1331809Y879035D01*
X1334591D01*
X1337278Y879755D01*
X1337305Y879771D01*
X1340564Y876324D01*
X1338773Y872000D01*
X953654D01*
X950797Y877000D01*
X951478Y878155D01*
X953887Y879546D01*
X955854Y881513D01*
X957245Y883922D01*
X957512Y884918D01*
X962688D01*
X962955Y883922D01*
X964346Y881513D01*
X966313Y879546D01*
X968722Y878155D01*
X971409Y877435D01*
X974191D01*
X976878Y878155D01*
X979287Y879546D01*
X981254Y881513D01*
X982645Y883922D01*
X983365Y886609D01*
Y889391D01*
X982645Y892078D01*
X981254Y894487D01*
X979287Y896454D01*
X976878Y897845D01*
X975882Y898112D01*
Y903288D01*
X976878Y903555D01*
X979287Y904946D01*
X981254Y906913D01*
X982645Y909322D01*
X983365Y912009D01*
Y914791D01*
X982645Y917478D01*
X981254Y919887D01*
X979287Y921854D01*
X976878Y923245D01*
X974191Y923965D01*
X971409D01*
X968722Y923245D01*
X966313Y921854D01*
X964346Y919887D01*
X962955Y917478D01*
X962688Y916482D01*
X957512D01*
X957245Y917478D01*
X955854Y919887D01*
X953887Y921854D01*
X951478Y923245D01*
X948791Y923965D01*
X948670D01*
Y913400D01*
X946130D01*
Y923965D01*
X946009D01*
X943322Y923245D01*
X940913Y921854D01*
X938946Y919887D01*
X937555Y917478D01*
X937288Y916482D01*
X932112D01*
X931845Y917478D01*
X930454Y919887D01*
X928487Y921854D01*
X926078Y923245D01*
X923391Y923965D01*
X920609D01*
X917922Y923245D01*
X915513Y921854D01*
X913546Y919887D01*
X912155Y917478D01*
X907165Y918174D01*
Y923965D01*
X886035D01*
Y902835D01*
X891827D01*
X892522Y897845D01*
X890113Y896454D01*
X888146Y894487D01*
X886755Y892078D01*
X886035Y889391D01*
Y886609D01*
X886755Y883922D01*
X888146Y881513D01*
X889390Y880269D01*
X888785Y877311D01*
X887572Y875269D01*
X848000D01*
Y1015195D01*
X865050D01*
X890967Y989278D01*
Y988679D01*
X891651Y986127D01*
X892972Y983840D01*
X894840Y981972D01*
X897127Y980651D01*
X899679Y979967D01*
X899730D01*
Y990000D01*
X902270D01*
Y979967D01*
X902321D01*
X904873Y980651D01*
X907160Y981972D01*
X909028Y983840D01*
X910349Y986127D01*
X911033Y988679D01*
X915967D01*
X916651Y986127D01*
X917972Y983840D01*
X919840Y981972D01*
X922128Y980651D01*
X924679Y979967D01*
X927321D01*
X929873Y980651D01*
X932161Y981972D01*
X934029Y983840D01*
X935349Y986127D01*
X936033Y988679D01*
X940967D01*
X941651Y986127D01*
X942971Y983840D01*
X944839Y981972D01*
X947127Y980651D01*
X949679Y979967D01*
X952321D01*
X954873Y980651D01*
X957160Y981972D01*
X959028Y983840D01*
X960349Y986127D01*
X961033Y988679D01*
Y991321D01*
X960349Y993873D01*
X959028Y996160D01*
X957160Y998028D01*
X954873Y999349D01*
X952321Y1000033D01*
X949679D01*
X947127Y999349D01*
X944839Y998028D01*
X942971Y996160D01*
X941651Y993873D01*
X940967Y991321D01*
X936033D01*
X935349Y993873D01*
X934029Y996160D01*
X932161Y998028D01*
X929873Y999349D01*
X927321Y1000033D01*
X924679D01*
X922141Y999353D01*
X886745Y1034749D01*
X885485Y1035591D01*
X883998Y1035887D01*
X848000D01*
Y1042849D01*
X1008657D01*
X1045744Y1005762D01*
X1045493Y1005170D01*
X1042798Y1001637D01*
X1041321Y1002033D01*
X1041270D01*
Y992000D01*
Y981967D01*
X1041321D01*
X1043873Y982651D01*
X1046160Y983972D01*
X1048028Y985840D01*
X1049349Y988128D01*
X1050033Y990679D01*
X1054967D01*
X1055651Y988128D01*
X1056972Y985840D01*
X1058840Y983972D01*
X1061128Y982651D01*
X1063679Y981967D01*
X1066321D01*
X1068873Y982651D01*
X1071161Y983972D01*
X1073028Y985840D01*
X1074349Y988128D01*
X1075033Y990679D01*
X1079967D01*
X1080651Y988128D01*
X1081972Y985840D01*
X1083840Y983972D01*
X1086128Y982651D01*
X1088680Y981967D01*
X1091321D01*
X1093873Y982651D01*
X1096161Y983972D01*
X1098029Y985840D01*
X1099350Y988128D01*
X1100033Y990679D01*
Y993321D01*
X1099350Y995873D01*
X1098029Y998160D01*
X1096161Y1000028D01*
X1093873Y1001349D01*
X1091321Y1002033D01*
X1088680D01*
X1086128Y1001349D01*
X1083840Y1000028D01*
X1081972Y998160D01*
X1080651Y995873D01*
X1079967Y993321D01*
X1075033D01*
X1074349Y995873D01*
X1073028Y998160D01*
X1071161Y1000028D01*
X1068873Y1001349D01*
X1066321Y1002033D01*
X1063679D01*
X1061141Y1001353D01*
X1013013Y1049481D01*
X1011753Y1050323D01*
X1010266Y1050619D01*
X848000D01*
Y1058597D01*
X860044D01*
X861531Y1058893D01*
X862791Y1059735D01*
X889339Y1086283D01*
X1118023D01*
X1199944Y1004362D01*
X1199693Y1003769D01*
X1196998Y1000237D01*
X1195521Y1000633D01*
X1195470D01*
Y990600D01*
Y980567D01*
X1195521D01*
X1198072Y981251D01*
X1200360Y982572D01*
X1202228Y984440D01*
X1203549Y986727D01*
X1204233Y989279D01*
X1209167D01*
X1209851Y986727D01*
X1211172Y984440D01*
X1213040Y982572D01*
X1215327Y981251D01*
X1217879Y980567D01*
X1220521D01*
X1223073Y981251D01*
X1225360Y982572D01*
X1227228Y984440D01*
X1228549Y986727D01*
X1229233Y989279D01*
X1234167D01*
X1234851Y986727D01*
X1236172Y984440D01*
X1238040Y982572D01*
X1240328Y981251D01*
X1242879Y980567D01*
X1245521D01*
X1248073Y981251D01*
X1250361Y982572D01*
X1252229Y984440D01*
X1253549Y986727D01*
X1254233Y989279D01*
Y991921D01*
X1253549Y994473D01*
X1252229Y996760D01*
X1250361Y998628D01*
X1248073Y999949D01*
X1245521Y1000633D01*
X1242879D01*
X1240328Y999949D01*
X1238040Y998628D01*
X1236172Y996760D01*
X1234851Y994473D01*
X1234167Y991921D01*
X1229233D01*
X1228549Y994473D01*
X1227228Y996760D01*
X1225360Y998628D01*
X1223073Y999949D01*
X1220521Y1000633D01*
X1217879D01*
X1215341Y999953D01*
X1122379Y1092915D01*
X1121119Y1093757D01*
X1119632Y1094053D01*
X887730D01*
X886243Y1093757D01*
X884983Y1092915D01*
X858435Y1066367D01*
X848000D01*
Y1104063D01*
X1253043D01*
X1352744Y1004362D01*
X1352493Y1003769D01*
X1349798Y1000237D01*
X1348320Y1000633D01*
X1348270D01*
Y990600D01*
Y980567D01*
X1348320D01*
X1350872Y981251D01*
X1353160Y982572D01*
X1355028Y984440D01*
X1356349Y986727D01*
X1357033Y989279D01*
X1361967D01*
X1362650Y986727D01*
X1363971Y984440D01*
X1365839Y982572D01*
X1368127Y981251D01*
X1370679Y980567D01*
X1373321D01*
X1375872Y981251D01*
X1378160Y982572D01*
X1380028Y984440D01*
X1381349Y986727D01*
X1382033Y989279D01*
X1386967D01*
X1387651Y986727D01*
X1388972Y984440D01*
X1390840Y982572D01*
X1393127Y981251D01*
X1395679Y980567D01*
X1398321D01*
X1400873Y981251D01*
X1403160Y982572D01*
X1405028Y984440D01*
X1406349Y986727D01*
X1407033Y989279D01*
Y991921D01*
X1406349Y994473D01*
X1405028Y996760D01*
X1403160Y998628D01*
X1400873Y999949D01*
X1398321Y1000633D01*
X1395679D01*
X1393127Y999949D01*
X1390840Y998628D01*
X1388972Y996760D01*
X1387651Y994473D01*
X1386967Y991921D01*
X1382033D01*
X1381349Y994473D01*
X1380028Y996760D01*
X1378160Y998628D01*
X1375872Y999949D01*
X1373321Y1000633D01*
X1370679D01*
X1368141Y999953D01*
X1257399Y1110695D01*
X1256138Y1111537D01*
X1254652Y1111833D01*
X848000D01*
Y1120000D01*
X1443461Y1120994D01*
X1447000Y1117461D01*
D02*
G37*
G36*
X1350146Y908513D02*
X1352113Y906546D01*
X1354522Y905155D01*
X1355517Y904888D01*
Y899712D01*
X1354522Y899445D01*
X1352113Y898054D01*
X1350146Y896087D01*
X1348755Y893678D01*
X1348488Y892682D01*
X1343312D01*
X1343045Y893678D01*
X1341654Y896087D01*
X1339687Y898054D01*
X1337278Y899445D01*
X1337973Y904435D01*
X1343765D01*
Y910226D01*
X1348755Y910922D01*
X1350146Y908513D01*
D02*
G37*
G36*
X1399555Y910922D02*
X1400946Y908513D01*
X1402913Y906546D01*
X1405322Y905155D01*
X1406317Y904888D01*
Y899712D01*
X1405322Y899445D01*
X1402913Y898054D01*
X1400946Y896087D01*
X1399555Y893678D01*
X1399288Y892682D01*
X1394112D01*
X1393845Y893678D01*
X1392454Y896087D01*
X1390487Y898054D01*
X1388078Y899445D01*
X1387082Y899712D01*
Y904888D01*
X1388078Y905155D01*
X1390487Y906546D01*
X1392454Y908513D01*
X1393845Y910922D01*
X1394112Y911918D01*
X1399288D01*
X1399555Y910922D01*
D02*
G37*
G36*
X1374155D02*
X1375546Y908513D01*
X1377513Y906546D01*
X1379922Y905155D01*
X1380918Y904888D01*
Y899712D01*
X1379922Y899445D01*
X1377513Y898054D01*
X1375546Y896087D01*
X1374155Y893678D01*
X1373888Y892682D01*
X1368712D01*
X1368445Y893678D01*
X1367054Y896087D01*
X1365087Y898054D01*
X1362678Y899445D01*
X1361682Y899712D01*
Y904888D01*
X1362678Y905155D01*
X1365087Y906546D01*
X1367054Y908513D01*
X1368445Y910922D01*
X1368712Y911918D01*
X1373888D01*
X1374155Y910922D01*
D02*
G37*
G36*
X962955Y909322D02*
X964346Y906913D01*
X966313Y904946D01*
X968722Y903555D01*
X969718Y903288D01*
Y898112D01*
X968722Y897845D01*
X966313Y896454D01*
X964346Y894487D01*
X962955Y892078D01*
X962688Y891083D01*
X957512D01*
X957245Y892078D01*
X955854Y894487D01*
X953887Y896454D01*
X951478Y897845D01*
X950482Y898112D01*
Y903288D01*
X951478Y903555D01*
X953887Y904946D01*
X955854Y906913D01*
X957245Y909322D01*
X957512Y910318D01*
X962688D01*
X962955Y909322D01*
D02*
G37*
G36*
X937555D02*
X938946Y906913D01*
X940913Y904946D01*
X943322Y903555D01*
X944318Y903288D01*
Y898112D01*
X943322Y897845D01*
X940913Y896454D01*
X938946Y894487D01*
X937555Y892078D01*
X937288Y891083D01*
X932112D01*
X931845Y892078D01*
X930454Y894487D01*
X928487Y896454D01*
X926078Y897845D01*
X925082Y898112D01*
Y903288D01*
X926078Y903555D01*
X928487Y904946D01*
X930454Y906913D01*
X931845Y909322D01*
X932112Y910318D01*
X937288D01*
X937555Y909322D01*
D02*
G37*
G36*
X913546Y906913D02*
X915513Y904946D01*
X917922Y903555D01*
X918918Y903288D01*
Y898112D01*
X917922Y897845D01*
X915513Y896454D01*
X913546Y894487D01*
X912155Y892078D01*
X911888Y891083D01*
X906712D01*
X906445Y892078D01*
X905054Y894487D01*
X903087Y896454D01*
X900678Y897845D01*
X901374Y902835D01*
X907165D01*
Y908627D01*
X912155Y909322D01*
X913546Y906913D01*
D02*
G37*
G36*
X1351629Y357677D02*
X1365573Y343733D01*
X1365434Y342614D01*
X1362737Y338160D01*
X1360062D01*
X1357478Y337467D01*
X1357445Y337448D01*
X1341801Y353093D01*
X1343723Y357708D01*
X1351629Y357677D01*
D02*
G37*
G36*
X1416102Y357421D02*
X1422071Y351451D01*
Y339568D01*
X1420976Y338531D01*
X1417071Y336919D01*
X1416122Y337467D01*
X1413537Y338160D01*
X1410862D01*
X1408278Y337467D01*
X1405961Y336130D01*
X1404070Y334238D01*
X1402732Y331922D01*
X1402610Y331466D01*
X1401716Y330907D01*
X1398857Y331440D01*
X1395640Y333008D01*
X1394930Y334238D01*
X1393038Y336130D01*
X1390721Y337467D01*
X1388138Y338160D01*
X1385462D01*
X1382878Y337467D01*
X1382845Y337448D01*
X1367302Y352991D01*
X1369225Y357607D01*
X1416102Y357421D01*
D02*
G37*
G36*
X798915Y359873D02*
Y336478D01*
X798878Y336468D01*
X796562Y335130D01*
X794670Y333238D01*
X793332Y330922D01*
X792640Y328338D01*
Y325662D01*
X793332Y323078D01*
X794670Y320762D01*
X796562Y318870D01*
X798878Y317533D01*
X801462Y316840D01*
X804138D01*
X806722Y317533D01*
X809038Y318870D01*
X810930Y320762D01*
X812268Y323078D01*
X812960Y325662D01*
Y328338D01*
X812268Y330922D01*
X810930Y333238D01*
X809038Y335130D01*
X806722Y336468D01*
X806685Y336478D01*
Y356300D01*
X810227Y359828D01*
X824315Y359772D01*
Y336478D01*
X824278Y336468D01*
X821962Y335130D01*
X820070Y333238D01*
X818732Y330922D01*
X818040Y328338D01*
Y325662D01*
X818732Y323078D01*
X820070Y320762D01*
X821962Y318870D01*
X824278Y317533D01*
X826862Y316840D01*
X829538D01*
X832122Y317533D01*
X834438Y318870D01*
X836330Y320762D01*
X837668Y323078D01*
X838360Y325662D01*
Y328338D01*
X837668Y330922D01*
X836330Y333238D01*
X834438Y335130D01*
X832122Y336468D01*
X832085Y336478D01*
Y356199D01*
X835627Y359727D01*
X868529Y359597D01*
X870434Y354973D01*
X864663Y349203D01*
X863821Y347943D01*
X863525Y346456D01*
Y338514D01*
X862354Y337439D01*
X858525Y335888D01*
X857522Y336468D01*
X854938Y337160D01*
X852262D01*
X849678Y336468D01*
X847362Y335130D01*
X845470Y333238D01*
X844132Y330922D01*
X843440Y328338D01*
Y325662D01*
X844132Y323078D01*
X845470Y320762D01*
X847362Y318870D01*
X849678Y317533D01*
X852262Y316840D01*
X854938D01*
X857522Y317533D01*
X858525Y318112D01*
X862354Y316561D01*
X863525Y315486D01*
Y303530D01*
X859755Y300113D01*
X859518Y300000D01*
X766000D01*
Y355411D01*
X770592Y359986D01*
X798915Y359873D01*
D02*
G37*
G36*
X1326128Y357778D02*
X1351951Y331955D01*
X1351932Y331922D01*
X1351240Y329337D01*
Y326662D01*
X1351590Y325356D01*
X1349735Y321822D01*
X1348308Y320356D01*
X1315292D01*
X1313865Y321822D01*
X1312010Y325356D01*
X1312360Y326662D01*
Y329337D01*
X1311668Y331922D01*
X1310330Y334238D01*
X1308439Y336130D01*
X1306122Y337467D01*
X1303538Y338160D01*
X1300862D01*
X1298279Y337467D01*
X1295962Y336130D01*
X1294070Y334238D01*
X1292733Y331922D01*
X1292040Y329337D01*
Y326662D01*
X1290367Y326162D01*
X1286960Y329338D01*
X1286268Y331922D01*
X1284930Y334238D01*
X1283038Y336130D01*
X1280722Y337467D01*
X1278138Y338160D01*
X1275462D01*
X1272878Y337467D01*
X1270562Y336130D01*
X1268670Y334238D01*
X1267333Y331922D01*
X1266640Y329337D01*
Y326662D01*
X1264967Y326162D01*
X1261560Y329338D01*
X1260868Y331922D01*
X1259530Y334238D01*
X1257638Y336130D01*
X1255322Y337467D01*
X1252738Y338160D01*
X1251995D01*
X1241369Y348786D01*
X1239794Y349994D01*
X1237960Y350754D01*
X1235992Y351013D01*
X1080408D01*
X1078440Y350754D01*
X1077365Y350309D01*
X1076606Y349994D01*
X1075031Y348786D01*
X1065000Y338755D01*
X1054970Y348786D01*
X1053394Y349994D01*
X1051560Y350754D01*
X1049592Y351013D01*
X895408D01*
X893440Y350754D01*
X891605Y349994D01*
X890030Y348786D01*
X878405Y337160D01*
X877662D01*
X876295Y336794D01*
X872853Y338579D01*
X871449Y339911D01*
X871408Y344961D01*
X885975Y359527D01*
X1326128Y357778D01*
D02*
G37*
G36*
X1522000Y357000D02*
Y303000D01*
X1519000Y300000D01*
X914827D01*
X912913Y304619D01*
X925845Y317552D01*
X925878Y317533D01*
X928462Y316840D01*
X931138D01*
X933722Y317533D01*
X936038Y318870D01*
X937930Y320762D01*
X939268Y323078D01*
X939960Y325662D01*
Y328338D01*
X939268Y330922D01*
X942176Y335803D01*
X975800D01*
X977361Y334087D01*
X979033Y330803D01*
X978640Y329337D01*
Y326662D01*
X979333Y324078D01*
X980670Y321762D01*
X982562Y319870D01*
X984878Y318532D01*
X987463Y317840D01*
X990138D01*
X992722Y318532D01*
X995039Y319870D01*
X996930Y321762D01*
X998268Y324078D01*
X998960Y326662D01*
Y329337D01*
X1000780Y330000D01*
X1004040Y326662D01*
X1004733Y324078D01*
X1006070Y321762D01*
X1007962Y319870D01*
X1010278Y318532D01*
X1012863Y317840D01*
X1015538D01*
X1018122Y318532D01*
X1020439Y319870D01*
X1022330Y321762D01*
X1023668Y324078D01*
X1024360Y326662D01*
Y329337D01*
X1026180Y330000D01*
X1029440Y326662D01*
X1030133Y324078D01*
X1031470Y321762D01*
X1033362Y319870D01*
X1035678Y318532D01*
X1038263Y317840D01*
X1040938D01*
X1043522Y318532D01*
X1045838Y319870D01*
X1047730Y321762D01*
X1049068Y324078D01*
X1054310Y324503D01*
X1055533Y324078D01*
X1056870Y321762D01*
X1058762Y319870D01*
X1061078Y318532D01*
X1063663Y317840D01*
X1063730D01*
Y328000D01*
X1066270D01*
Y317840D01*
X1066338D01*
X1068922Y318532D01*
X1071238Y319870D01*
X1073130Y321762D01*
X1074468Y324078D01*
X1075690Y324503D01*
X1080932Y324078D01*
X1082270Y321762D01*
X1084162Y319870D01*
X1086479Y318532D01*
X1089063Y317840D01*
X1091738D01*
X1094322Y318532D01*
X1096638Y319870D01*
X1098530Y321762D01*
X1099868Y324078D01*
X1100560Y326662D01*
Y329337D01*
X1102380Y330000D01*
X1105640Y326662D01*
X1106332Y324078D01*
X1107670Y321762D01*
X1109562Y319870D01*
X1111879Y318532D01*
X1114463Y317840D01*
X1117138D01*
X1119722Y318532D01*
X1122038Y319870D01*
X1123930Y321762D01*
X1125268Y324078D01*
X1125960Y326662D01*
Y329337D01*
X1125567Y330803D01*
X1127239Y334087D01*
X1128800Y335803D01*
X1162200D01*
X1163761Y334087D01*
X1165433Y330803D01*
X1165040Y329337D01*
Y326662D01*
X1165732Y324078D01*
X1167070Y321762D01*
X1168962Y319870D01*
X1171279Y318532D01*
X1173863Y317840D01*
X1176538D01*
X1179122Y318532D01*
X1181439Y319870D01*
X1183330Y321762D01*
X1184668Y324078D01*
X1185360Y326662D01*
Y329337D01*
X1187180Y330000D01*
X1190440Y326662D01*
X1191133Y324078D01*
X1192470Y321762D01*
X1194362Y319870D01*
X1196678Y318532D01*
X1199262Y317840D01*
X1201938D01*
X1204522Y318532D01*
X1206839Y319870D01*
X1208730Y321762D01*
X1210068Y324078D01*
X1210760Y326662D01*
Y329337D01*
X1212580Y330000D01*
X1215840Y326662D01*
X1216533Y324078D01*
X1217870Y321762D01*
X1219762Y319870D01*
X1222078Y318532D01*
X1224662Y317840D01*
X1227338D01*
X1227427Y317864D01*
X1235447Y309843D01*
X1237445Y308508D01*
X1239802Y308040D01*
X1398398D01*
X1400755Y308508D01*
X1402753Y309843D01*
X1410773Y317864D01*
X1410862Y317840D01*
X1413537D01*
X1416122Y318532D01*
X1418099Y319674D01*
X1418515Y319862D01*
X1424190Y319268D01*
X1424450Y319100D01*
X1429813Y313737D01*
X1431073Y312895D01*
X1432560Y312599D01*
X1476884D01*
X1478371Y312895D01*
X1479631Y313737D01*
X1484445Y318551D01*
X1484478Y318532D01*
X1487062Y317840D01*
X1489738D01*
X1492321Y318532D01*
X1494638Y319870D01*
X1496530Y321762D01*
X1497867Y324078D01*
X1498560Y326662D01*
Y329337D01*
X1497867Y331922D01*
X1496530Y334238D01*
X1494638Y336130D01*
X1492321Y337467D01*
X1489738Y338160D01*
X1487062D01*
X1484478Y337467D01*
X1482162Y336130D01*
X1480270Y334238D01*
X1478932Y331922D01*
X1478240Y329337D01*
Y327706D01*
X1477287Y326980D01*
X1473160Y329018D01*
Y329337D01*
X1472467Y331922D01*
X1471130Y334238D01*
X1469238Y336130D01*
X1466922Y337467D01*
X1464337Y338160D01*
X1461662D01*
X1459078Y337467D01*
X1459045Y337448D01*
X1443806Y352687D01*
X1445729Y357303D01*
X1522000Y357000D01*
D02*
G37*
G36*
X880270Y316840D02*
X880338D01*
X882922Y317533D01*
X885238Y318870D01*
X887130Y320762D01*
X888468Y323078D01*
X889690Y323503D01*
X894932Y323078D01*
X896270Y320762D01*
X898162Y318870D01*
X900478Y317533D01*
X903062Y316840D01*
X905738D01*
X908434Y312386D01*
X908573Y311267D01*
X898371Y301065D01*
X875369D01*
X871295Y305139D01*
Y313944D01*
X872853Y315421D01*
X876295Y317207D01*
X877662Y316840D01*
X877730D01*
Y327000D01*
X880270D01*
Y316840D01*
D02*
G37*
%LPC*%
G36*
X779032Y1000622D02*
Y992615D01*
X787039D01*
X786419Y994930D01*
X785196Y997049D01*
X783466Y998779D01*
X781348Y1000002D01*
X779032Y1000622D01*
D02*
G37*
G36*
X776492D02*
X774176Y1000002D01*
X772057Y998779D01*
X770328Y997049D01*
X769105Y994930D01*
X768484Y992615D01*
X776492D01*
Y1000622D01*
D02*
G37*
G36*
X728270Y1000477D02*
Y992470D01*
X736277D01*
X735657Y994786D01*
X734434Y996904D01*
X732704Y998634D01*
X730586Y999857D01*
X728270Y1000477D01*
D02*
G37*
G36*
X677470D02*
Y992470D01*
X685477D01*
X684857Y994786D01*
X683634Y996904D01*
X681904Y998634D01*
X679786Y999857D01*
X677470Y1000477D01*
D02*
G37*
G36*
X626670D02*
Y992470D01*
X634677D01*
X634057Y994786D01*
X632834Y996904D01*
X631104Y998634D01*
X628986Y999857D01*
X626670Y1000477D01*
D02*
G37*
G36*
X725730D02*
X723414Y999857D01*
X721296Y998634D01*
X719566Y996904D01*
X718343Y994786D01*
X717722Y992470D01*
X725730D01*
Y1000477D01*
D02*
G37*
G36*
X674930D02*
X672614Y999857D01*
X670496Y998634D01*
X668766Y996904D01*
X667543Y994786D01*
X666922Y992470D01*
X674930D01*
Y1000477D01*
D02*
G37*
G36*
X624130D02*
X621814Y999857D01*
X619696Y998634D01*
X617966Y996904D01*
X616743Y994786D01*
X616122Y992470D01*
X624130D01*
Y1000477D01*
D02*
G37*
G36*
X1078321Y1081033D02*
X1075679D01*
X1073128Y1080349D01*
X1070840Y1079028D01*
X1068972Y1077160D01*
X1067651Y1074873D01*
X1066967Y1072321D01*
X1062033D01*
X1061349Y1074873D01*
X1060028Y1077160D01*
X1058160Y1079028D01*
X1055872Y1080349D01*
X1053321Y1081033D01*
X1053270D01*
Y1071000D01*
Y1060967D01*
X1053321D01*
X1055872Y1061651D01*
X1058160Y1062972D01*
X1060028Y1064840D01*
X1061349Y1067128D01*
X1062033Y1069679D01*
X1066967D01*
X1067651Y1067128D01*
X1068972Y1064840D01*
X1070840Y1062972D01*
X1073128Y1061651D01*
X1075679Y1060967D01*
X1078321D01*
X1080873Y1061651D01*
X1083160Y1062972D01*
X1085029Y1064840D01*
X1086349Y1067128D01*
X1087033Y1069679D01*
Y1072321D01*
X1086349Y1074873D01*
X1085029Y1077160D01*
X1083160Y1079028D01*
X1080873Y1080349D01*
X1078321Y1081033D01*
D02*
G37*
G36*
X1050730D02*
X1050679D01*
X1048127Y1080349D01*
X1045839Y1079028D01*
X1043971Y1077160D01*
X1042651Y1074873D01*
X1041967Y1072321D01*
Y1072270D01*
X1050730D01*
Y1081033D01*
D02*
G37*
G36*
X1231321Y1080033D02*
X1228679D01*
X1226127Y1079349D01*
X1223840Y1078028D01*
X1221972Y1076160D01*
X1220651Y1073873D01*
X1219967Y1071321D01*
X1215033D01*
X1214349Y1073873D01*
X1213028Y1076160D01*
X1211160Y1078028D01*
X1208873Y1079349D01*
X1206321Y1080033D01*
X1206270D01*
Y1070000D01*
Y1059967D01*
X1206321D01*
X1208873Y1060651D01*
X1211160Y1061972D01*
X1213028Y1063839D01*
X1214349Y1066127D01*
X1215033Y1068679D01*
X1219967D01*
X1220651Y1066127D01*
X1221972Y1063839D01*
X1223840Y1061972D01*
X1226127Y1060651D01*
X1228679Y1059967D01*
X1231321D01*
X1233873Y1060651D01*
X1236161Y1061972D01*
X1238028Y1063839D01*
X1239349Y1066127D01*
X1240033Y1068679D01*
Y1071321D01*
X1239349Y1073873D01*
X1238028Y1076160D01*
X1236161Y1078028D01*
X1233873Y1079349D01*
X1231321Y1080033D01*
D02*
G37*
G36*
X940321D02*
X937679D01*
X935127Y1079349D01*
X932840Y1078028D01*
X930972Y1076160D01*
X929651Y1073873D01*
X928967Y1071321D01*
X924033D01*
X923349Y1073873D01*
X922028Y1076160D01*
X920160Y1078028D01*
X917872Y1079349D01*
X915321Y1080033D01*
X915270D01*
Y1070000D01*
Y1059967D01*
X915321D01*
X917872Y1060651D01*
X920160Y1061972D01*
X922028Y1063839D01*
X923349Y1066127D01*
X924033Y1068679D01*
X928967D01*
X929651Y1066127D01*
X930972Y1063839D01*
X932840Y1061972D01*
X935127Y1060651D01*
X937679Y1059967D01*
X940321D01*
X942872Y1060651D01*
X945160Y1061972D01*
X947028Y1063839D01*
X948349Y1066127D01*
X949033Y1068679D01*
Y1071321D01*
X948349Y1073873D01*
X947028Y1076160D01*
X945160Y1078028D01*
X942872Y1079349D01*
X940321Y1080033D01*
D02*
G37*
G36*
X1203730D02*
X1203679D01*
X1201127Y1079349D01*
X1198839Y1078028D01*
X1196972Y1076160D01*
X1195651Y1073873D01*
X1194967Y1071321D01*
Y1071270D01*
X1203730D01*
Y1080033D01*
D02*
G37*
G36*
X912730D02*
X912679D01*
X910127Y1079349D01*
X907839Y1078028D01*
X905971Y1076160D01*
X904650Y1073873D01*
X903967Y1071321D01*
Y1071270D01*
X912730D01*
Y1080033D01*
D02*
G37*
G36*
X1385321Y1079033D02*
X1382679D01*
X1380127Y1078349D01*
X1377839Y1077029D01*
X1375971Y1075161D01*
X1374651Y1072873D01*
X1373967Y1070321D01*
X1369033D01*
X1368349Y1072873D01*
X1367028Y1075161D01*
X1365160Y1077029D01*
X1362872Y1078349D01*
X1360320Y1079033D01*
X1360270D01*
Y1069000D01*
Y1058967D01*
X1360320D01*
X1362872Y1059651D01*
X1365160Y1060972D01*
X1367028Y1062840D01*
X1368349Y1065128D01*
X1369033Y1067679D01*
X1373967D01*
X1374651Y1065128D01*
X1375971Y1062840D01*
X1377839Y1060972D01*
X1380127Y1059651D01*
X1382679Y1058967D01*
X1385321D01*
X1387872Y1059651D01*
X1390160Y1060972D01*
X1392028Y1062840D01*
X1393349Y1065128D01*
X1394033Y1067679D01*
Y1070321D01*
X1393349Y1072873D01*
X1392028Y1075161D01*
X1390160Y1077029D01*
X1387872Y1078349D01*
X1385321Y1079033D01*
D02*
G37*
G36*
X1357730D02*
X1357679D01*
X1355127Y1078349D01*
X1352839Y1077029D01*
X1350971Y1075161D01*
X1349650Y1072873D01*
X1348967Y1070321D01*
Y1070270D01*
X1357730D01*
Y1079033D01*
D02*
G37*
G36*
X1050730Y1069730D02*
X1041967D01*
Y1069679D01*
X1042651Y1067128D01*
X1043971Y1064840D01*
X1045839Y1062972D01*
X1048127Y1061651D01*
X1050679Y1060967D01*
X1050730D01*
Y1069730D01*
D02*
G37*
G36*
X1203730Y1068730D02*
X1194967D01*
Y1068679D01*
X1195651Y1066127D01*
X1196972Y1063839D01*
X1198839Y1061972D01*
X1201127Y1060651D01*
X1203679Y1059967D01*
X1203730D01*
Y1068730D01*
D02*
G37*
G36*
X912730D02*
X903967D01*
Y1068679D01*
X904650Y1066127D01*
X905971Y1063839D01*
X907839Y1061972D01*
X910127Y1060651D01*
X912679Y1059967D01*
X912730D01*
Y1068730D01*
D02*
G37*
G36*
X1357730Y1067730D02*
X1348967D01*
Y1067679D01*
X1349650Y1065128D01*
X1350971Y1062840D01*
X1352839Y1060972D01*
X1355127Y1059651D01*
X1357679Y1058967D01*
X1357730D01*
Y1067730D01*
D02*
G37*
G36*
X1038730Y1002033D02*
X1038679D01*
X1036127Y1001349D01*
X1033840Y1000028D01*
X1031972Y998160D01*
X1030651Y995873D01*
X1029967Y993321D01*
Y993270D01*
X1038730D01*
Y1002033D01*
D02*
G37*
G36*
X1192930Y1000633D02*
X1192879D01*
X1190327Y999949D01*
X1188039Y998628D01*
X1186171Y996760D01*
X1184850Y994473D01*
X1184167Y991921D01*
Y991870D01*
X1192930D01*
Y1000633D01*
D02*
G37*
G36*
X1345730D02*
X1345679D01*
X1343127Y999949D01*
X1340839Y998628D01*
X1338971Y996760D01*
X1337650Y994473D01*
X1336967Y991921D01*
Y991870D01*
X1345730D01*
Y1000633D01*
D02*
G37*
G36*
X1038730Y990730D02*
X1029967D01*
Y990679D01*
X1030651Y988128D01*
X1031972Y985840D01*
X1033840Y983972D01*
X1036127Y982651D01*
X1038679Y981967D01*
X1038730D01*
Y990730D01*
D02*
G37*
G36*
X1345730Y989330D02*
X1336967D01*
Y989279D01*
X1337650Y986727D01*
X1338971Y984440D01*
X1340839Y982572D01*
X1343127Y981251D01*
X1345679Y980567D01*
X1345730D01*
Y989330D01*
D02*
G37*
G36*
X1192930D02*
X1184167D01*
Y989279D01*
X1184850Y986727D01*
X1186171Y984440D01*
X1188039Y982572D01*
X1190327Y981251D01*
X1192879Y980567D01*
X1192930D01*
Y989330D01*
D02*
G37*
G36*
X1260191Y924565D02*
X1257409D01*
X1254722Y923845D01*
X1252313Y922454D01*
X1250346Y920487D01*
X1248955Y918078D01*
X1248688Y917082D01*
X1243512D01*
X1243245Y918078D01*
X1241854Y920487D01*
X1239887Y922454D01*
X1237478Y923845D01*
X1234791Y924565D01*
X1234670D01*
Y914000D01*
X1232130D01*
Y924565D01*
X1232009D01*
X1229322Y923845D01*
X1226913Y922454D01*
X1224946Y920487D01*
X1223555Y918078D01*
X1223288Y917082D01*
X1218112D01*
X1217845Y918078D01*
X1216454Y920487D01*
X1214487Y922454D01*
X1212078Y923845D01*
X1209391Y924565D01*
X1206609D01*
X1203922Y923845D01*
X1201513Y922454D01*
X1199546Y920487D01*
X1198155Y918078D01*
X1193165Y918774D01*
Y924565D01*
X1172035D01*
Y903435D01*
X1177827D01*
X1178522Y898445D01*
X1176113Y897054D01*
X1174146Y895087D01*
X1172755Y892678D01*
X1172035Y889991D01*
Y887209D01*
X1172755Y884522D01*
X1174146Y882113D01*
X1176113Y880146D01*
X1178522Y878755D01*
X1181209Y878035D01*
X1183991D01*
X1186678Y878755D01*
X1189087Y880146D01*
X1191054Y882113D01*
X1192445Y884522D01*
X1192712Y885518D01*
X1197888D01*
X1198155Y884522D01*
X1199546Y882113D01*
X1201513Y880146D01*
X1203922Y878755D01*
X1206609Y878035D01*
X1209391D01*
X1212078Y878755D01*
X1214487Y880146D01*
X1216454Y882113D01*
X1217845Y884522D01*
X1218112Y885518D01*
X1223288D01*
X1223555Y884522D01*
X1224946Y882113D01*
X1226913Y880146D01*
X1229322Y878755D01*
X1232009Y878035D01*
X1232130D01*
Y888600D01*
X1234670D01*
Y878035D01*
X1234791D01*
X1237478Y878755D01*
X1239887Y880146D01*
X1241854Y882113D01*
X1243245Y884522D01*
X1243512Y885518D01*
X1248688D01*
X1248955Y884522D01*
X1250346Y882113D01*
X1252313Y880146D01*
X1254722Y878755D01*
X1257409Y878035D01*
X1260191D01*
X1262878Y878755D01*
X1265287Y880146D01*
X1267254Y882113D01*
X1268645Y884522D01*
X1269365Y887209D01*
Y889991D01*
X1268645Y892678D01*
X1267254Y895087D01*
X1265287Y897054D01*
X1262878Y898445D01*
X1261882Y898712D01*
Y903888D01*
X1262878Y904155D01*
X1265287Y905546D01*
X1267254Y907513D01*
X1268645Y909922D01*
X1269365Y912609D01*
Y915391D01*
X1268645Y918078D01*
X1267254Y920487D01*
X1265287Y922454D01*
X1262878Y923845D01*
X1260191Y924565D01*
D02*
G37*
G36*
X1111791D02*
X1109009D01*
X1106322Y923845D01*
X1103913Y922454D01*
X1101946Y920487D01*
X1100555Y918078D01*
X1100288Y917082D01*
X1095112D01*
X1094845Y918078D01*
X1093454Y920487D01*
X1091487Y922454D01*
X1089078Y923845D01*
X1086391Y924565D01*
X1086270D01*
Y914000D01*
X1083730D01*
Y924565D01*
X1083609D01*
X1080922Y923845D01*
X1078513Y922454D01*
X1076546Y920487D01*
X1075155Y918078D01*
X1074888Y917082D01*
X1069712D01*
X1069445Y918078D01*
X1068054Y920487D01*
X1066087Y922454D01*
X1063678Y923845D01*
X1060991Y924565D01*
X1058209D01*
X1055522Y923845D01*
X1053113Y922454D01*
X1051146Y920487D01*
X1049755Y918078D01*
X1044765Y918774D01*
Y924565D01*
X1023635D01*
Y903435D01*
X1029426D01*
X1030122Y898445D01*
X1027713Y897054D01*
X1025746Y895087D01*
X1024355Y892678D01*
X1023635Y889991D01*
Y887209D01*
X1024355Y884522D01*
X1025746Y882113D01*
X1027713Y880146D01*
X1030122Y878755D01*
X1032809Y878035D01*
X1035591D01*
X1038278Y878755D01*
X1040687Y880146D01*
X1042654Y882113D01*
X1044045Y884522D01*
X1044312Y885518D01*
X1049488D01*
X1049755Y884522D01*
X1051146Y882113D01*
X1053113Y880146D01*
X1055522Y878755D01*
X1058209Y878035D01*
X1060991D01*
X1063678Y878755D01*
X1066087Y880146D01*
X1068054Y882113D01*
X1069445Y884522D01*
X1069712Y885518D01*
X1074888D01*
X1075155Y884522D01*
X1076546Y882113D01*
X1078513Y880146D01*
X1080922Y878755D01*
X1083609Y878035D01*
X1083730D01*
Y888600D01*
X1086270D01*
Y878035D01*
X1086391D01*
X1089078Y878755D01*
X1091487Y880146D01*
X1093454Y882113D01*
X1094845Y884522D01*
X1095112Y885518D01*
X1100288D01*
X1100555Y884522D01*
X1101946Y882113D01*
X1103913Y880146D01*
X1106322Y878755D01*
X1109009Y878035D01*
X1111791D01*
X1114478Y878755D01*
X1116887Y880146D01*
X1118854Y882113D01*
X1120245Y884522D01*
X1120965Y887209D01*
Y889991D01*
X1120245Y892678D01*
X1118854Y895087D01*
X1116887Y897054D01*
X1114478Y898445D01*
X1113482Y898712D01*
Y903888D01*
X1114478Y904155D01*
X1116887Y905546D01*
X1118854Y907513D01*
X1120245Y909922D01*
X1120965Y912609D01*
Y915391D01*
X1120245Y918078D01*
X1118854Y920487D01*
X1116887Y922454D01*
X1114478Y923845D01*
X1111791Y924565D01*
D02*
G37*
%LPD*%
G36*
X1248955Y909922D02*
X1250346Y907513D01*
X1252313Y905546D01*
X1254722Y904155D01*
X1255718Y903888D01*
Y898712D01*
X1254722Y898445D01*
X1252313Y897054D01*
X1250346Y895087D01*
X1248955Y892678D01*
X1248688Y891682D01*
X1243512D01*
X1243245Y892678D01*
X1241854Y895087D01*
X1239887Y897054D01*
X1237478Y898445D01*
X1236482Y898712D01*
Y903888D01*
X1237478Y904155D01*
X1239887Y905546D01*
X1241854Y907513D01*
X1243245Y909922D01*
X1243512Y910918D01*
X1248688D01*
X1248955Y909922D01*
D02*
G37*
G36*
X1223555D02*
X1224946Y907513D01*
X1226913Y905546D01*
X1229322Y904155D01*
X1230318Y903888D01*
Y898712D01*
X1229322Y898445D01*
X1226913Y897054D01*
X1224946Y895087D01*
X1223555Y892678D01*
X1223288Y891682D01*
X1218112D01*
X1217845Y892678D01*
X1216454Y895087D01*
X1214487Y897054D01*
X1212078Y898445D01*
X1211082Y898712D01*
Y903888D01*
X1212078Y904155D01*
X1214487Y905546D01*
X1216454Y907513D01*
X1217845Y909922D01*
X1218112Y910918D01*
X1223288D01*
X1223555Y909922D01*
D02*
G37*
G36*
X1199546Y907513D02*
X1201513Y905546D01*
X1203922Y904155D01*
X1204918Y903888D01*
Y898712D01*
X1203922Y898445D01*
X1201513Y897054D01*
X1199546Y895087D01*
X1198155Y892678D01*
X1197888Y891682D01*
X1192712D01*
X1192445Y892678D01*
X1191054Y895087D01*
X1189087Y897054D01*
X1186678Y898445D01*
X1187374Y903435D01*
X1193165D01*
Y909227D01*
X1198155Y909922D01*
X1199546Y907513D01*
D02*
G37*
G36*
X1100555Y909922D02*
X1101946Y907513D01*
X1103913Y905546D01*
X1106322Y904155D01*
X1107318Y903888D01*
Y898712D01*
X1106322Y898445D01*
X1103913Y897054D01*
X1101946Y895087D01*
X1100555Y892678D01*
X1100288Y891682D01*
X1095112D01*
X1094845Y892678D01*
X1093454Y895087D01*
X1091487Y897054D01*
X1089078Y898445D01*
X1088082Y898712D01*
Y903888D01*
X1089078Y904155D01*
X1091487Y905546D01*
X1093454Y907513D01*
X1094845Y909922D01*
X1095112Y910918D01*
X1100288D01*
X1100555Y909922D01*
D02*
G37*
G36*
X1075155D02*
X1076546Y907513D01*
X1078513Y905546D01*
X1080922Y904155D01*
X1081918Y903888D01*
Y898712D01*
X1080922Y898445D01*
X1078513Y897054D01*
X1076546Y895087D01*
X1075155Y892678D01*
X1074888Y891682D01*
X1069712D01*
X1069445Y892678D01*
X1068054Y895087D01*
X1066087Y897054D01*
X1063678Y898445D01*
X1062682Y898712D01*
Y903888D01*
X1063678Y904155D01*
X1066087Y905546D01*
X1068054Y907513D01*
X1069445Y909922D01*
X1069712Y910918D01*
X1074888D01*
X1075155Y909922D01*
D02*
G37*
G36*
X1051146Y907513D02*
X1053113Y905546D01*
X1055522Y904155D01*
X1056518Y903888D01*
Y898712D01*
X1055522Y898445D01*
X1053113Y897054D01*
X1051146Y895087D01*
X1049755Y892678D01*
X1049488Y891682D01*
X1044312D01*
X1044045Y892678D01*
X1042654Y895087D01*
X1040687Y897054D01*
X1038278Y898445D01*
X1038974Y903435D01*
X1044765D01*
Y909227D01*
X1049755Y909922D01*
X1051146Y907513D01*
D02*
G37*
D16*
X853400Y108800D02*
X879000Y134400D01*
Y174600D01*
X1412200Y135000D02*
X1437400Y109800D01*
X1412200Y135000D02*
Y175600D01*
X1226000Y135200D02*
X1251400Y109800D01*
X1226000Y135200D02*
Y175600D01*
X1039600Y135600D02*
X1066400Y108800D01*
X1039600Y135600D02*
Y175600D01*
X609600Y364216D02*
Y482600D01*
Y364216D02*
X655046Y318770D01*
X662595D01*
X671830Y309534D01*
Y290830D02*
Y309534D01*
X660400Y279400D02*
X671830Y290830D01*
X632000Y349000D02*
Y476147D01*
Y349000D02*
X650458Y330542D01*
X632000Y476147D02*
X635000Y479147D01*
Y482600D01*
X571500Y393700D02*
Y546100D01*
Y393700D02*
X660400Y304800D01*
X482600Y685800D02*
X646460Y521940D01*
Y480333D02*
Y521940D01*
Y480333D02*
X660400Y466393D01*
Y381000D02*
Y466393D01*
X521940Y681053D02*
X671860Y531133D01*
Y367060D02*
Y531133D01*
X508000Y711200D02*
X521940Y697260D01*
Y681053D02*
Y697260D01*
X660400Y355600D02*
X671860Y367060D01*
X650458Y330542D02*
X660058D01*
X660400Y330200D01*
X381000Y685800D02*
X401574Y665226D01*
X441270D01*
X547340Y559156D01*
Y341660D02*
Y559156D01*
Y341660D02*
X660400Y228600D01*
X439166Y660146D02*
X521716Y577596D01*
X355854Y660146D02*
X439166D01*
X330200Y685800D02*
X355854Y660146D01*
X355600Y209000D02*
X378714D01*
X383714Y204000D01*
X1476884Y316484D02*
X1488400Y328000D01*
X1432560Y316484D02*
X1476884D01*
X1425956Y323088D02*
X1432560Y316484D01*
X1425956Y323088D02*
Y353060D01*
X1308100Y470916D02*
X1425956Y353060D01*
X1308100Y470916D02*
Y487680D01*
X1300480Y495300D02*
X1308100Y487680D01*
X1240820Y495300D02*
X1300480D01*
X1228120Y482600D02*
X1240820Y495300D01*
X1219200Y482600D02*
X1228120D01*
X1408684Y382316D02*
X1463000Y328000D01*
X1408684Y382316D02*
Y513080D01*
X1397224Y524540D02*
X1408684Y513080D01*
X1210340Y524540D02*
X1397224D01*
X1193800Y508000D02*
X1210340Y524540D01*
X1143000Y482600D02*
X1197864Y427736D01*
X1287064D01*
X1386800Y328000D01*
X1117600Y482600D02*
X1192276Y407924D01*
X1281476D01*
X1361400Y328000D01*
X828200Y327000D02*
Y377604D01*
X1028700Y578104D01*
X1213104D01*
X1320800Y685800D01*
X482600Y209000D02*
X528775D01*
X534175Y203600D01*
X342900Y698500D02*
X355600Y685800D01*
X325120Y698500D02*
X342900D01*
X318516Y691896D02*
X325120Y698500D01*
X318516Y659384D02*
Y691896D01*
Y659384D02*
X420116Y557784D01*
Y384048D02*
Y557784D01*
Y384048D02*
X646938Y157226D01*
Y140462D02*
Y157226D01*
Y140462D02*
X660400Y127000D01*
X1339036Y738378D02*
X1368457Y767800D01*
X1220978Y738378D02*
X1339036D01*
X1193800Y711200D02*
X1220978Y738378D01*
X1119632Y1090168D02*
X1219200Y990600D01*
X887730Y1090168D02*
X1119632D01*
X860044Y1062482D02*
X887730Y1090168D01*
X745718Y1062482D02*
X860044D01*
X727000Y1081200D02*
X745718Y1062482D01*
X1066800Y711200D02*
X1120400Y764800D01*
X1204800D01*
X521716Y291084D02*
Y577596D01*
Y291084D02*
X660400Y152400D01*
X1117600Y711200D02*
X1129284Y722884D01*
X1173480D01*
X1180084Y716280D01*
Y664718D02*
Y716280D01*
X1169416Y654050D02*
X1180084Y664718D01*
X966216Y654050D02*
X1169416D01*
X749046Y436880D02*
X966216Y654050D01*
X731520Y436880D02*
X749046D01*
X685800Y482600D02*
X731520Y436880D01*
X431800Y685800D02*
X571500Y546100D01*
X802800Y327000D02*
Y364396D01*
X1053846Y615442D01*
X1199642D01*
X1270000Y685800D01*
X711200Y508000D02*
X900684Y697484D01*
X1131316D01*
X1143000Y685800D01*
X1334516Y496316D02*
X1346200Y508000D01*
X1314704Y496316D02*
X1334516D01*
X1308100Y502920D02*
X1314704Y496316D01*
X1308100Y502920D02*
Y512826D01*
X1301465Y519460D02*
X1308100Y512826D01*
X1238280Y519460D02*
X1301465D01*
X1231900Y513080D02*
X1238280Y519460D01*
X1231900Y497809D02*
Y513080D01*
X1230630Y496539D02*
X1231900Y497809D01*
X1036320Y496539D02*
X1230630D01*
X1029686Y489905D02*
X1036320Y496539D01*
X1029686Y478506D02*
Y489905D01*
X1022096Y470916D02*
X1029686Y478506D01*
X991870Y470916D02*
X1022096D01*
X867410Y346456D02*
X991870Y470916D01*
X867410Y303530D02*
Y346456D01*
Y303530D02*
X873760Y297180D01*
X899980D01*
X929800Y327000D01*
X254000Y50800D02*
X302200Y99000D01*
X334000D01*
X1010266Y1046734D02*
X1065000Y992000D01*
X710666Y1046734D02*
X1010266D01*
X676200Y1081200D02*
X710666Y1046734D01*
X1333200Y889600D02*
X1349040Y873760D01*
X1352498D01*
X1368457Y857800D01*
X231000Y383226D02*
X248586Y400812D01*
X273812D01*
X355600Y482600D01*
X1042200Y762800D02*
X1056400D01*
X990600Y711200D02*
X1042200Y762800D01*
X302000Y903000D02*
X371000Y972000D01*
X208300Y903000D02*
X302000D01*
X883998Y1032002D02*
X926000Y990000D01*
X674598Y1032002D02*
X883998D01*
X625400Y1081200D02*
X674598Y1032002D01*
X777762Y1081345D02*
X804365Y1107948D01*
X1254652D01*
X1372000Y990600D01*
X383714Y204000D02*
X407175D01*
X256714D02*
X280175D01*
X251714Y209000D02*
X256714Y204000D01*
X228600Y209000D02*
X251714D01*
X1368457Y767800D02*
X1397000D01*
X1204800Y764800D02*
X1233343D01*
X1056400Y762800D02*
X1084943D01*
X935999Y761791D02*
X950456D01*
X935990Y761800D02*
X935999Y761791D01*
X921914Y761800D02*
X935990D01*
D18*
X231000Y383226D02*
D03*
X256000D02*
D03*
X281000D02*
D03*
X306000D02*
D03*
X331000D02*
D03*
X356000D02*
D03*
X1397000Y990600D02*
D03*
X1384000Y1069000D02*
D03*
X1244200Y990600D02*
D03*
X1230000Y1070000D02*
D03*
X1090000Y992000D02*
D03*
X1077000Y1071000D02*
D03*
X951000Y990000D02*
D03*
X939000Y1070000D02*
D03*
X534175Y228600D02*
D03*
X407175Y229000D02*
D03*
X280175D02*
D03*
X486168Y50492D02*
D03*
X1041400Y108800D02*
D03*
X1359000Y1069000D02*
D03*
X1347000Y990600D02*
D03*
X1205000Y1070000D02*
D03*
X1194200Y990600D02*
D03*
X1052000Y1071000D02*
D03*
X914000Y1070000D02*
D03*
X1040000Y992000D02*
D03*
X901000Y990000D02*
D03*
X536168Y50492D02*
D03*
X407175Y254000D02*
D03*
X534175Y253600D02*
D03*
X280175Y254000D02*
D03*
X1016400Y108800D02*
D03*
X1091400D02*
D03*
X1066400D02*
D03*
X991400D02*
D03*
X803400D02*
D03*
X828400D02*
D03*
X853400D02*
D03*
X878400D02*
D03*
X903400D02*
D03*
X534175Y203600D02*
D03*
X280175Y204000D02*
D03*
X407175D02*
D03*
X1362400Y109800D02*
D03*
X1387400D02*
D03*
X1412400D02*
D03*
X1437400D02*
D03*
X1462400D02*
D03*
X1176400D02*
D03*
X1201400D02*
D03*
X1226400D02*
D03*
X1251400D02*
D03*
X1276400D02*
D03*
X511168Y50492D02*
D03*
X1372000Y990600D02*
D03*
X1065000Y992000D02*
D03*
X926000Y990000D02*
D03*
X1219200Y990600D02*
D03*
D19*
X660400Y50800D02*
D03*
D20*
Y76200D02*
D03*
Y101600D02*
D03*
Y127000D02*
D03*
Y152400D02*
D03*
Y177800D02*
D03*
Y203200D02*
D03*
Y228600D02*
D03*
Y254000D02*
D03*
Y279400D02*
D03*
Y304800D02*
D03*
Y330200D02*
D03*
Y355600D02*
D03*
Y381000D02*
D03*
X1226000Y328000D02*
D03*
X1412200D02*
D03*
X1039600D02*
D03*
X853600Y327000D02*
D03*
X1065000Y175600D02*
D03*
X1437600Y328000D02*
D03*
X1251400D02*
D03*
X1065000D02*
D03*
X879000Y327000D02*
D03*
X1090400Y328000D02*
D03*
X988800D02*
D03*
X1014200D02*
D03*
Y175600D02*
D03*
X1090400D02*
D03*
X1039600D02*
D03*
X1115800Y328000D02*
D03*
X929800Y327000D02*
D03*
X904400D02*
D03*
X828200D02*
D03*
X802800D02*
D03*
X929800Y174600D02*
D03*
X904400D02*
D03*
X879000D02*
D03*
X853600D02*
D03*
X828200D02*
D03*
X802800D02*
D03*
X1115800Y175600D02*
D03*
X988800D02*
D03*
X1302200Y328000D02*
D03*
X1276800D02*
D03*
X1200600D02*
D03*
X1175200D02*
D03*
X1302200Y175600D02*
D03*
X1276800D02*
D03*
X1251400D02*
D03*
X1226000D02*
D03*
X1200600D02*
D03*
X1175200D02*
D03*
X1488400Y328000D02*
D03*
X1463000D02*
D03*
X1386800D02*
D03*
X1361400D02*
D03*
X1488400Y175600D02*
D03*
X1463000D02*
D03*
X1437600D02*
D03*
X1412200D02*
D03*
X1386800D02*
D03*
X1361400D02*
D03*
D21*
X304800Y508000D02*
D03*
Y482600D02*
D03*
X1422400Y711200D02*
D03*
Y685800D02*
D03*
X1295400D02*
D03*
Y711200D02*
D03*
Y508000D02*
D03*
X1168400Y711200D02*
D03*
Y685800D02*
D03*
X1422400Y508000D02*
D03*
X1295400Y482600D02*
D03*
X1422400D02*
D03*
X1168400D02*
D03*
Y508000D02*
D03*
X660400Y711200D02*
D03*
X1041400D02*
D03*
X660400Y685800D02*
D03*
X1041400D02*
D03*
X533400D02*
D03*
Y508000D02*
D03*
X279400Y711200D02*
D03*
X533400D02*
D03*
X406400Y685800D02*
D03*
Y508000D02*
D03*
Y711200D02*
D03*
X279400Y685800D02*
D03*
X1041400Y482600D02*
D03*
Y508000D02*
D03*
X660400D02*
D03*
X533400Y482600D02*
D03*
X660400D02*
D03*
X406400D02*
D03*
X1447800Y711200D02*
D03*
Y685800D02*
D03*
X685800Y711200D02*
D03*
Y685800D02*
D03*
X1066800Y482600D02*
D03*
Y508000D02*
D03*
X990600Y482600D02*
D03*
Y508000D02*
D03*
X1016000Y482600D02*
D03*
Y508000D02*
D03*
X1092200Y482600D02*
D03*
Y508000D02*
D03*
X711200Y482600D02*
D03*
X685800D02*
D03*
X711200Y508000D02*
D03*
X685800D02*
D03*
X635000D02*
D03*
Y482600D02*
D03*
X609600Y508000D02*
D03*
Y482600D02*
D03*
X584200Y508000D02*
D03*
Y482600D02*
D03*
X457200Y508000D02*
D03*
Y482600D02*
D03*
X431800Y508000D02*
D03*
Y482600D02*
D03*
X381000Y508000D02*
D03*
Y482600D02*
D03*
X355600Y508000D02*
D03*
Y482600D02*
D03*
X330200Y508000D02*
D03*
Y482600D02*
D03*
X279400Y508000D02*
D03*
Y482600D02*
D03*
X254000Y508000D02*
D03*
Y482600D02*
D03*
X228600Y508000D02*
D03*
Y482600D02*
D03*
X482600D02*
D03*
Y508000D02*
D03*
X508000Y482600D02*
D03*
Y508000D02*
D03*
X558800Y482600D02*
D03*
Y508000D02*
D03*
X1473200Y685800D02*
D03*
Y711200D02*
D03*
X1397000D02*
D03*
Y685800D02*
D03*
X1371600Y711200D02*
D03*
Y685800D02*
D03*
X1346200Y711200D02*
D03*
Y685800D02*
D03*
X1320800Y711200D02*
D03*
Y685800D02*
D03*
X1270000Y711200D02*
D03*
Y685800D02*
D03*
X1244600Y711200D02*
D03*
Y685800D02*
D03*
X1219200Y711200D02*
D03*
Y685800D02*
D03*
X1193800Y711200D02*
D03*
Y685800D02*
D03*
X1143000Y711200D02*
D03*
Y685800D02*
D03*
X1117600Y711200D02*
D03*
Y685800D02*
D03*
X1092200Y711200D02*
D03*
Y685800D02*
D03*
X1066800Y711200D02*
D03*
Y685800D02*
D03*
X1016000Y711200D02*
D03*
Y685800D02*
D03*
X990600Y711200D02*
D03*
Y685800D02*
D03*
X228600D02*
D03*
Y711200D02*
D03*
X254000Y685800D02*
D03*
Y711200D02*
D03*
X304800Y685800D02*
D03*
Y711200D02*
D03*
X330200Y685800D02*
D03*
Y711200D02*
D03*
X355600Y685800D02*
D03*
Y711200D02*
D03*
X381000Y685800D02*
D03*
Y711200D02*
D03*
X431800Y685800D02*
D03*
Y711200D02*
D03*
X457200Y685800D02*
D03*
Y711200D02*
D03*
X482600Y685800D02*
D03*
Y711200D02*
D03*
X508000Y685800D02*
D03*
Y711200D02*
D03*
X558800Y685800D02*
D03*
Y711200D02*
D03*
X584200Y685800D02*
D03*
Y711200D02*
D03*
X609600Y685800D02*
D03*
Y711200D02*
D03*
X635000Y685800D02*
D03*
Y711200D02*
D03*
X711200D02*
D03*
Y685800D02*
D03*
X1473200Y482600D02*
D03*
X1447800D02*
D03*
X1473200Y508000D02*
D03*
X1447800D02*
D03*
X1397000D02*
D03*
Y482600D02*
D03*
X1371600Y508000D02*
D03*
Y482600D02*
D03*
X1346200Y508000D02*
D03*
Y482600D02*
D03*
X1320800Y508000D02*
D03*
Y482600D02*
D03*
X1270000Y508000D02*
D03*
Y482600D02*
D03*
X1244600Y508000D02*
D03*
Y482600D02*
D03*
X1219200Y508000D02*
D03*
Y482600D02*
D03*
X1193800Y508000D02*
D03*
Y482600D02*
D03*
X1143000Y508000D02*
D03*
Y482600D02*
D03*
X1117600Y508000D02*
D03*
Y482600D02*
D03*
D22*
X1409400Y915000D02*
D03*
Y889600D02*
D03*
X1258800Y914000D02*
D03*
Y888600D02*
D03*
X1110400D02*
D03*
Y914000D02*
D03*
X972800Y888000D02*
D03*
Y913400D02*
D03*
X1384000Y915000D02*
D03*
X1085000Y914000D02*
D03*
X1384000Y889600D02*
D03*
X1233400Y914000D02*
D03*
X1085000Y888600D02*
D03*
X947400Y913400D02*
D03*
X1233400Y888600D02*
D03*
X947400Y888000D02*
D03*
X1358600Y915000D02*
D03*
Y889600D02*
D03*
X1333200D02*
D03*
X1208000Y914000D02*
D03*
Y888600D02*
D03*
X1182600D02*
D03*
X1059600Y914000D02*
D03*
Y888600D02*
D03*
X1034200D02*
D03*
X922000Y913400D02*
D03*
Y888000D02*
D03*
X896600D02*
D03*
D23*
X1397000Y857800D02*
D03*
X1233343Y854800D02*
D03*
X1084943Y852800D02*
D03*
X950456Y851792D02*
D03*
X334000Y99000D02*
D03*
X228600Y299000D02*
D03*
X355600D02*
D03*
X482600D02*
D03*
X921914Y851800D02*
D03*
X1368457Y857800D02*
D03*
X777762Y991345D02*
D03*
X727000Y991200D02*
D03*
X1056400Y852800D02*
D03*
X625400Y991200D02*
D03*
X1204800Y854800D02*
D03*
X676200Y991200D02*
D03*
D24*
X419000Y924000D02*
D03*
X232000Y979000D02*
D03*
D25*
X318000Y952250D02*
D03*
D26*
X367700Y860000D02*
D03*
X208300Y903000D02*
D03*
D27*
X33500Y932900D02*
D03*
D28*
X424000Y99000D02*
D03*
D29*
X304800Y50800D02*
D03*
X330200D02*
D03*
X177800D02*
D03*
X203200D02*
D03*
X228600D02*
D03*
X254000D02*
D03*
X279400D02*
D03*
D30*
X318000Y1033750D02*
D03*
D31*
X232000Y1029000D02*
D03*
X419000Y999000D02*
D03*
D32*
X371000Y1022800D02*
D03*
Y997400D02*
D03*
D33*
X33500Y1009100D02*
D03*
D34*
X228600Y209000D02*
D03*
X355600D02*
D03*
X482600D02*
D03*
X1056400Y762800D02*
D03*
X1084943D02*
D03*
X921914Y761800D02*
D03*
X1368457Y767800D02*
D03*
X1397000D02*
D03*
X1233343Y764800D02*
D03*
X950456Y761791D02*
D03*
X777762Y1081345D02*
D03*
X727000Y1081200D02*
D03*
X625400D02*
D03*
X1204800Y764800D02*
D03*
X676200Y1081200D02*
D03*
D35*
X1333200Y915000D02*
D03*
X1182600Y914000D02*
D03*
X1034200D02*
D03*
X896600Y913400D02*
D03*
D36*
X208300Y860000D02*
D03*
X367700Y903000D02*
D03*
D37*
X371000Y972000D02*
D03*
D38*
X30000Y1115000D02*
D03*
X1561000D02*
D03*
Y27000D02*
D03*
X30000D02*
D03*
D39*
X660400Y482600D02*
Y508000D01*
X424000Y99000D02*
Y116250D01*
X333899Y206351D02*
X424000Y116250D01*
X333899Y206351D02*
Y216900D01*
X346000Y229000D01*
X407175D01*
X1041400Y685800D02*
X1060171Y667029D01*
X1149629D01*
X1168400Y685800D01*
X1398398Y314198D02*
X1412200Y328000D01*
X1239802Y314198D02*
X1398398D01*
X1226000Y328000D02*
X1239802Y314198D01*
X470808Y228600D02*
X534175D01*
X470408Y229000D02*
X470808Y228600D01*
X407175Y229000D02*
X470408D01*
D40*
X53401Y1029000D02*
X232000D01*
X33500Y1009100D02*
X53401Y1029000D01*
X236750Y1033750D02*
X318000D01*
X232000Y1029000D02*
X236750Y1033750D01*
X328950Y1022800D02*
X371000D01*
X318000Y1033750D02*
X328950Y1022800D01*
X1065000Y328000D02*
X1080408Y343408D01*
X1235992D01*
X1251400Y328000D01*
X868200Y1022800D02*
X901000Y990000D01*
X371000Y1022800D02*
X868200D01*
X927064Y867664D02*
X947400Y888000D01*
X842264Y867664D02*
X927064D01*
X685800Y711200D02*
X842264Y867664D01*
X1049592Y343408D02*
X1065000Y328000D01*
X895408Y343408D02*
X1049592D01*
X879000Y327000D02*
X895408Y343408D01*
X520981Y35306D02*
X536168Y50492D01*
X345694Y35306D02*
X520981D01*
X330200Y50800D02*
X345694Y35306D01*
X470808Y253600D02*
X534175D01*
X470408Y254000D02*
X470808Y253600D01*
X407175Y254000D02*
X470408D01*
X280175D02*
X407175D01*
X598224Y50800D02*
X660400D01*
X597916Y50492D02*
X598224Y50800D01*
X536168Y50492D02*
X597916D01*
D41*
X228600Y299000D02*
X355600D01*
X482600D01*
M02*
