G04*
G04 #@! TF.GenerationSoftware,Altium Limited,Altium Designer,26.5.0 (11)*
G04*
G04 Layer_Color=8388736*
G04 Board_Origin=0|0*
%FSLAX44Y44*%
%MOMM*%
G71*
G04*
G04 #@! TF.SameCoordinates,BF38CAAB-9107-40E0-8CC0-74BF54994753*
G04*
G04*
G04 #@! TF.FilePolarity,Negative*
G04*
G01*
G75*
%ADD18C,1.4986*%
%ADD19R,1.5240X1.5240*%
%ADD20C,1.5240*%
%ADD21C,1.5300*%
%ADD22C,1.6050*%
%ADD23C,1.3500*%
%ADD24R,1.3000X1.3000*%
%ADD25C,1.2000*%
%ADD26C,1.6000*%
G04:AMPARAMS|DCode=27|XSize=2.25mm|YSize=2.25mm|CornerRadius=0.5625mm|HoleSize=0mm|Usage=FLASHONLY|Rotation=90.000|XOffset=0mm|YOffset=0mm|HoleType=Round|Shape=RoundedRectangle|*
%AMROUNDEDRECTD27*
21,1,2.2500,1.1250,0,0,90.0*
21,1,1.1250,2.2500,0,0,90.0*
1,1,1.1250,0.5625,0.5625*
1,1,1.1250,0.5625,-0.5625*
1,1,1.1250,-0.5625,-0.5625*
1,1,1.1250,-0.5625,0.5625*
%
%ADD27ROUNDEDRECTD27*%
%ADD28R,1.3500X1.3500*%
%ADD29C,1.3970*%
%ADD30R,1.2000X1.2000*%
%ADD31C,1.3000*%
%ADD32C,1.6000*%
%ADD33C,2.2500*%
%ADD34R,1.3500X1.3500*%
%ADD35R,1.6050X1.6050*%
%ADD36R,1.6000X1.6000*%
%ADD37R,1.6000X1.6000*%
%ADD38C,3.4000*%
D18*
X231000Y383226D02*
D03*
X256000D02*
D03*
X281000D02*
D03*
X306000D02*
D03*
X331000D02*
D03*
X356000D02*
D03*
X1397000Y990600D02*
D03*
X1384000Y1069000D02*
D03*
X1244200Y990600D02*
D03*
X1230000Y1070000D02*
D03*
X1090000Y992000D02*
D03*
X1077000Y1071000D02*
D03*
X951000Y990000D02*
D03*
X939000Y1070000D02*
D03*
X534175Y228600D02*
D03*
X407175Y229000D02*
D03*
X280175D02*
D03*
X486168Y50492D02*
D03*
X1041400Y108800D02*
D03*
X1359000Y1069000D02*
D03*
X1347000Y990600D02*
D03*
X1205000Y1070000D02*
D03*
X1194200Y990600D02*
D03*
X1052000Y1071000D02*
D03*
X914000Y1070000D02*
D03*
X1040000Y992000D02*
D03*
X901000Y990000D02*
D03*
X536168Y50492D02*
D03*
X407175Y254000D02*
D03*
X534175Y253600D02*
D03*
X280175Y254000D02*
D03*
X1016400Y108800D02*
D03*
X1091400D02*
D03*
X1066400D02*
D03*
X991400D02*
D03*
X803400D02*
D03*
X828400D02*
D03*
X853400D02*
D03*
X878400D02*
D03*
X903400D02*
D03*
X534175Y203600D02*
D03*
X280175Y204000D02*
D03*
X407175D02*
D03*
X1362400Y109800D02*
D03*
X1387400D02*
D03*
X1412400D02*
D03*
X1437400D02*
D03*
X1462400D02*
D03*
X1176400D02*
D03*
X1201400D02*
D03*
X1226400D02*
D03*
X1251400D02*
D03*
X1276400D02*
D03*
X511168Y50492D02*
D03*
X1372000Y990600D02*
D03*
X1065000Y992000D02*
D03*
X926000Y990000D02*
D03*
X1219200Y990600D02*
D03*
D19*
X660400Y50800D02*
D03*
D20*
Y76200D02*
D03*
Y101600D02*
D03*
Y127000D02*
D03*
Y152400D02*
D03*
Y177800D02*
D03*
Y203200D02*
D03*
Y228600D02*
D03*
Y254000D02*
D03*
Y279400D02*
D03*
Y304800D02*
D03*
Y330200D02*
D03*
Y355600D02*
D03*
Y381000D02*
D03*
X1226000Y328000D02*
D03*
X1412200D02*
D03*
X1039600D02*
D03*
X853600Y327000D02*
D03*
X1065000Y175600D02*
D03*
X1437600Y328000D02*
D03*
X1251400D02*
D03*
X1065000D02*
D03*
X879000Y327000D02*
D03*
X1090400Y328000D02*
D03*
X988800D02*
D03*
X1014200D02*
D03*
Y175600D02*
D03*
X1090400D02*
D03*
X1039600D02*
D03*
X1115800Y328000D02*
D03*
X929800Y327000D02*
D03*
X904400D02*
D03*
X828200D02*
D03*
X802800D02*
D03*
X929800Y174600D02*
D03*
X904400D02*
D03*
X879000D02*
D03*
X853600D02*
D03*
X828200D02*
D03*
X802800D02*
D03*
X1115800Y175600D02*
D03*
X988800D02*
D03*
X1302200Y328000D02*
D03*
X1276800D02*
D03*
X1200600D02*
D03*
X1175200D02*
D03*
X1302200Y175600D02*
D03*
X1276800D02*
D03*
X1251400D02*
D03*
X1226000D02*
D03*
X1200600D02*
D03*
X1175200D02*
D03*
X1488400Y328000D02*
D03*
X1463000D02*
D03*
X1386800D02*
D03*
X1361400D02*
D03*
X1488400Y175600D02*
D03*
X1463000D02*
D03*
X1437600D02*
D03*
X1412200D02*
D03*
X1386800D02*
D03*
X1361400D02*
D03*
D21*
X304800Y508000D02*
D03*
Y482600D02*
D03*
X1422400Y711200D02*
D03*
Y685800D02*
D03*
X1295400D02*
D03*
Y711200D02*
D03*
Y508000D02*
D03*
X1168400Y711200D02*
D03*
Y685800D02*
D03*
X1422400Y508000D02*
D03*
X1295400Y482600D02*
D03*
X1422400D02*
D03*
X1168400D02*
D03*
Y508000D02*
D03*
X660400Y711200D02*
D03*
X1041400D02*
D03*
X660400Y685800D02*
D03*
X1041400D02*
D03*
X533400D02*
D03*
Y508000D02*
D03*
X279400Y711200D02*
D03*
X533400D02*
D03*
X406400Y685800D02*
D03*
Y508000D02*
D03*
Y711200D02*
D03*
X279400Y685800D02*
D03*
X1041400Y482600D02*
D03*
Y508000D02*
D03*
X660400D02*
D03*
X533400Y482600D02*
D03*
X660400D02*
D03*
X406400D02*
D03*
X1447800Y711200D02*
D03*
Y685800D02*
D03*
X685800Y711200D02*
D03*
Y685800D02*
D03*
X1066800Y482600D02*
D03*
Y508000D02*
D03*
X990600Y482600D02*
D03*
Y508000D02*
D03*
X1016000Y482600D02*
D03*
Y508000D02*
D03*
X1092200Y482600D02*
D03*
Y508000D02*
D03*
X711200Y482600D02*
D03*
X685800D02*
D03*
X711200Y508000D02*
D03*
X685800D02*
D03*
X635000D02*
D03*
Y482600D02*
D03*
X609600Y508000D02*
D03*
Y482600D02*
D03*
X584200Y508000D02*
D03*
Y482600D02*
D03*
X457200Y508000D02*
D03*
Y482600D02*
D03*
X431800Y508000D02*
D03*
Y482600D02*
D03*
X381000Y508000D02*
D03*
Y482600D02*
D03*
X355600Y508000D02*
D03*
Y482600D02*
D03*
X330200Y508000D02*
D03*
Y482600D02*
D03*
X279400Y508000D02*
D03*
Y482600D02*
D03*
X254000Y508000D02*
D03*
Y482600D02*
D03*
X228600Y508000D02*
D03*
Y482600D02*
D03*
X482600D02*
D03*
Y508000D02*
D03*
X508000Y482600D02*
D03*
Y508000D02*
D03*
X558800Y482600D02*
D03*
Y508000D02*
D03*
X1473200Y685800D02*
D03*
Y711200D02*
D03*
X1397000D02*
D03*
Y685800D02*
D03*
X1371600Y711200D02*
D03*
Y685800D02*
D03*
X1346200Y711200D02*
D03*
Y685800D02*
D03*
X1320800Y711200D02*
D03*
Y685800D02*
D03*
X1270000Y711200D02*
D03*
Y685800D02*
D03*
X1244600Y711200D02*
D03*
Y685800D02*
D03*
X1219200Y711200D02*
D03*
Y685800D02*
D03*
X1193800Y711200D02*
D03*
Y685800D02*
D03*
X1143000Y711200D02*
D03*
Y685800D02*
D03*
X1117600Y711200D02*
D03*
Y685800D02*
D03*
X1092200Y711200D02*
D03*
Y685800D02*
D03*
X1066800Y711200D02*
D03*
Y685800D02*
D03*
X1016000Y711200D02*
D03*
Y685800D02*
D03*
X990600Y711200D02*
D03*
Y685800D02*
D03*
X228600D02*
D03*
Y711200D02*
D03*
X254000Y685800D02*
D03*
Y711200D02*
D03*
X304800Y685800D02*
D03*
Y711200D02*
D03*
X330200Y685800D02*
D03*
Y711200D02*
D03*
X355600Y685800D02*
D03*
Y711200D02*
D03*
X381000Y685800D02*
D03*
Y711200D02*
D03*
X431800Y685800D02*
D03*
Y711200D02*
D03*
X457200Y685800D02*
D03*
Y711200D02*
D03*
X482600Y685800D02*
D03*
Y711200D02*
D03*
X508000Y685800D02*
D03*
Y711200D02*
D03*
X558800Y685800D02*
D03*
Y711200D02*
D03*
X584200Y685800D02*
D03*
Y711200D02*
D03*
X609600Y685800D02*
D03*
Y711200D02*
D03*
X635000Y685800D02*
D03*
Y711200D02*
D03*
X711200D02*
D03*
Y685800D02*
D03*
X1473200Y482600D02*
D03*
X1447800D02*
D03*
X1473200Y508000D02*
D03*
X1447800D02*
D03*
X1397000D02*
D03*
Y482600D02*
D03*
X1371600Y508000D02*
D03*
Y482600D02*
D03*
X1346200Y508000D02*
D03*
Y482600D02*
D03*
X1320800Y508000D02*
D03*
Y482600D02*
D03*
X1270000Y508000D02*
D03*
Y482600D02*
D03*
X1244600Y508000D02*
D03*
Y482600D02*
D03*
X1219200Y508000D02*
D03*
Y482600D02*
D03*
X1193800Y508000D02*
D03*
Y482600D02*
D03*
X1143000Y508000D02*
D03*
Y482600D02*
D03*
X1117600Y508000D02*
D03*
Y482600D02*
D03*
D22*
X1409400Y915000D02*
D03*
Y889600D02*
D03*
X1258800Y914000D02*
D03*
Y888600D02*
D03*
X1110400D02*
D03*
Y914000D02*
D03*
X972800Y888000D02*
D03*
Y913400D02*
D03*
X1384000Y915000D02*
D03*
X1085000Y914000D02*
D03*
X1384000Y889600D02*
D03*
X1233400Y914000D02*
D03*
X1085000Y888600D02*
D03*
X947400Y913400D02*
D03*
X1233400Y888600D02*
D03*
X947400Y888000D02*
D03*
X1358600Y915000D02*
D03*
Y889600D02*
D03*
X1333200D02*
D03*
X1208000Y914000D02*
D03*
Y888600D02*
D03*
X1182600D02*
D03*
X1059600Y914000D02*
D03*
Y888600D02*
D03*
X1034200D02*
D03*
X922000Y913400D02*
D03*
Y888000D02*
D03*
X896600D02*
D03*
D23*
X1397000Y857800D02*
D03*
X1233343Y854800D02*
D03*
X1084943Y852800D02*
D03*
X950456Y851792D02*
D03*
X334000Y99000D02*
D03*
X228600Y299000D02*
D03*
X355600D02*
D03*
X482600D02*
D03*
X921914Y851800D02*
D03*
X1368457Y857800D02*
D03*
X777762Y991345D02*
D03*
X727000Y991200D02*
D03*
X1056400Y852800D02*
D03*
X625400Y991200D02*
D03*
X1204800Y854800D02*
D03*
X676200Y991200D02*
D03*
D24*
X419000Y924000D02*
D03*
X232000Y979000D02*
D03*
D25*
X318000Y952250D02*
D03*
D26*
X367700Y860000D02*
D03*
X208300Y903000D02*
D03*
D27*
X33500Y932900D02*
D03*
D28*
X424000Y99000D02*
D03*
D29*
X304800Y50800D02*
D03*
X330200D02*
D03*
X177800D02*
D03*
X203200D02*
D03*
X228600D02*
D03*
X254000D02*
D03*
X279400D02*
D03*
D30*
X318000Y1033750D02*
D03*
D31*
X232000Y1029000D02*
D03*
X419000Y999000D02*
D03*
D32*
X371000Y1022800D02*
D03*
Y997400D02*
D03*
D33*
X33500Y1009100D02*
D03*
D34*
X228600Y209000D02*
D03*
X355600D02*
D03*
X482600D02*
D03*
X1056400Y762800D02*
D03*
X1084943D02*
D03*
X921914Y761800D02*
D03*
X1368457Y767800D02*
D03*
X1397000D02*
D03*
X1233343Y764800D02*
D03*
X950456Y761791D02*
D03*
X777762Y1081345D02*
D03*
X727000Y1081200D02*
D03*
X625400D02*
D03*
X1204800Y764800D02*
D03*
X676200Y1081200D02*
D03*
D35*
X1333200Y915000D02*
D03*
X1182600Y914000D02*
D03*
X1034200D02*
D03*
X896600Y913400D02*
D03*
D36*
X208300Y860000D02*
D03*
X367700Y903000D02*
D03*
D37*
X371000Y972000D02*
D03*
D38*
X30000Y1115000D02*
D03*
X1561000D02*
D03*
Y27000D02*
D03*
X30000D02*
D03*
M02*
